{
.appVersion = "1352";
DisplayStrings = (

glyphs = (
{
color = 6;
glyphname = .notdef;
lastChange = "2021-12-10 05:20:42 +0000";
layers = (
{
layerId = "5E1A2ACF-25BB-4872-A226-5327BC7330DB";
paths = (
{
closed = 1;
nodes = (
"479 0 LINE",
"488 8 LINE",
"488 621 LINE",
"479 630 LINE",
"58 630 LINE",
"50 620 LINE",
"50 9 LINE",
"58 0 LINE"
);
},
{
closed = 1;
nodes = (
"154 150 LINE",
"244 316 LINE",
"154 479 LINE",
"173 514 LINE",
"263 350 LINE",
"354 514 LINE",
"373 479 LINE",
"283 314 LINE",
"373 150 LINE",
"354 116 LINE",
"263 279 LINE",
"173 116 LINE"
);
},
{
closed = 1;
nodes = (
"67 16 LINE",
"67 613 LINE",
"471 613 LINE",
"471 16 LINE"
);
},
{
closed = 1;
nodes = (
"437 49 LINE",
"437 577 LINE",
"102 577 LINE",
"102 49 LINE"
);
}
);
width = 538;
}
);
note = .notdef;
},
{
glyphname = A;
lastChange = "2021-12-10 04:00:21 +0000";
layers = (
{
anchors = (
{
name = bottom;
position = "{178, 0}";
},
{
name = ogonek;
position = "{335, 0}";
},
{
name = top;
position = "{177, 591}";
}
);
background = {
paths = (
{
closed = 1;
nodes = (
"32 0 LINE",
"73 162 LINE",
"281 162 LINE",
"323 0 LINE",
"335 0 LINE",
"184 591 LINE",
"171 591 LINE",
"20 0 LINE"
);
},
{
closed = 1;
nodes = (
"76 173 LINE",
"169 534 LINE",
"177 572 LINE",
"187 532 LINE",
"278 173 LINE"
);
}
);
};
layerId = "5E1A2ACF-25BB-4872-A226-5327BC7330DB";
paths = (
{
closed = 1;
nodes = (
"32 0 LINE",
"73 162 LINE",
"281 162 LINE",
"323 0 LINE",
"335 0 LINE",
"184 591 LINE",
"171 591 LINE",
"20 0 LINE"
);
},
{
closed = 1;
nodes = (
"76 172 LINE",
"169 534 LINE",
"177 572 LINE",
"187 532 LINE",
"278 172 LINE"
);
}
);
width = 355;
}
);
leftKerningGroup = A;
note = A;
rightKerningGroup = A;
unicode = 0041;
},
{
glyphname = AE;
lastChange = "2021-12-09 03:35:29 +0000";
layers = (
{
anchors = (
{
name = bottom;
position = "{249, 0}";
},
{
name = top;
position = "{288, 591}";
}
);
layerId = "5E1A2ACF-25BB-4872-A226-5327BC7330DB";
paths = (
{
closed = 1;
nodes = (
"27 0 LINE",
"68 162 LINE",
"226 162 LINE",
"250 0 LINE",
"402 0 LINE",
"402 11 LINE",
"262 11 LINE",
"218 306 LINE",
"351 306 LINE",
"351 317 LINE",
"217 317 LINE",
"181 580 LINE",
"402 580 LINE",
"402 591 LINE",
"165 591 LINE",
"15 0 LINE"
);
},
{
closed = 1;
nodes = (
"71 173 LINE",
"170 568 LINE",
"225 173 LINE"
);
}
);
width = 429;
}
);
leftKerningGroup = A;
note = AE;
rightKerningGroup = E;
unicode = 00C6;
},
{
glyphname = B;
lastChange = "2021-12-09 03:35:29 +0000";
layers = (
{
background = {
paths = (
{
closed = 1;
nodes = (
"230 0 LINE SMOOTH",
"303 0 OFFCURVE",
"351 16 OFFCURVE",
"351 120 CURVE SMOOTH",
"351 209 LINE SMOOTH",
"351 269 OFFCURVE",
"318 312 OFFCURVE",
"258 312 CURVE",
"314 321 OFFCURVE",
"346 363 OFFCURVE",
"346 419 CURVE SMOOTH",
"346 494 LINE SMOOTH",
"346 566 OFFCURVE",
"298 591 OFFCURVE",
"239 591 CURVE SMOOTH",
"78 591 LINE",
"78 0 LINE"
);
},
{
closed = 1;
nodes = (
"90 306 LINE",
"223 306 LINE SMOOTH",
"287 306 OFFCURVE",
"339 287 OFFCURVE",
"339 214 CURVE SMOOTH",
"339 125 LINE SMOOTH",
"339 26 OFFCURVE",
"297 11 OFFCURVE",
"227 11 CURVE SMOOTH",
"90 11 LINE"
);
},
{
closed = 1;
nodes = (
"90 580 LINE",
"239 580 LINE SMOOTH",
"294 580 OFFCURVE",
"334 553 OFFCURVE",
"334 496 CURVE SMOOTH",
"334 420 LINE SMOOTH",
"334 355 OFFCURVE",
"295 317 OFFCURVE",
"218 317 CURVE SMOOTH",
"90 317 LINE"
);
}
);
};
layerId = "5E1A2ACF-25BB-4872-A226-5327BC7330DB";
paths = (
{
closed = 1;
nodes = (
"230 0 LINE SMOOTH",
"303 0 OFFCURVE",
"351 16 OFFCURVE",
"351 120 CURVE SMOOTH",
"351 209 LINE SMOOTH",
"351 269 OFFCURVE",
"318 312 OFFCURVE",
"258 312 CURVE",
"314 321 OFFCURVE",
"346 363 OFFCURVE",
"346 419 CURVE SMOOTH",
"346 494 LINE SMOOTH",
"346 566 OFFCURVE",
"298 591 OFFCURVE",
"239 591 CURVE SMOOTH",
"78 591 LINE",
"78 0 LINE"
);
},
{
closed = 1;
nodes = (
"90 306 LINE",
"223 306 LINE SMOOTH",
"287 306 OFFCURVE",
"339 287 OFFCURVE",
"339 214 CURVE SMOOTH",
"339 125 LINE SMOOTH",
"339 26 OFFCURVE",
"297 11 OFFCURVE",
"227 11 CURVE SMOOTH",
"90 11 LINE"
);
},
{
closed = 1;
nodes = (
"90 580 LINE",
"239 580 LINE SMOOTH",
"294 580 OFFCURVE",
"334 553 OFFCURVE",
"334 496 CURVE SMOOTH",
"334 420 LINE SMOOTH",
"334 355 OFFCURVE",
"294 316 OFFCURVE",
"218 316 CURVE SMOOTH",
"90 316 LINE"
);
}
);
width = 413;
}
);
leftMetricsKey = H;
note = B;
unicode = 0042;
},
{
glyphname = C;
lastChange = "2021-12-09 03:35:33 +0000";
layers = (
{
anchors = (
{
name = bottom;
position = "{204, -9}";
},
{
name = top;
position = "{204, 591}";
}
);
layerId = "5E1A2ACF-25BB-4872-A226-5327BC7330DB";
paths = (
{
closed = 1;
nodes = (
"282 -12 OFFCURVE",
"340 2 OFFCURVE",
"340 118 CURVE SMOOTH",
"340 189 LINE",
"328 189 LINE",
"328 116 LINE SMOOTH",
"328 12 OFFCURVE",
"273 -3 OFFCURVE",
"203 -3 CURVE SMOOTH",
"134 -3 OFFCURVE",
"79 12 OFFCURVE",
"79 116 CURVE SMOOTH",
"79 467 LINE SMOOTH",
"79 572 OFFCURVE",
"128 589 OFFCURVE",
"203 589 CURVE SMOOTH",
"278 589 OFFCURVE",
"328 574 OFFCURVE",
"328 473 CURVE SMOOTH",
"328 381 LINE",
"340 381 LINE",
"340 469 LINE SMOOTH",
"340 583 OFFCURVE",
"281 599 OFFCURVE",
"204 599 CURVE SMOOTH",
"127 599 OFFCURVE",
"67 585 OFFCURVE",
"67 469 CURVE SMOOTH",
"67 118 LINE SMOOTH",
"67 4 OFFCURVE",
"126 -12 OFFCURVE",
"202 -12 CURVE SMOOTH"
);
}
);
width = 407;
}
);
leftKerningGroup = O;
leftMetricsKey = O;
note = C;
rightKerningGroup = C;
rightMetricsKey = O;
unicode = 0043;
},
{
glyphname = D;
lastChange = "2021-12-09 03:35:29 +0000";
layers = (
{
anchors = (
{
name = bottom;
position = "{186, 0}";
},
{
name = center;
position = "{118, 296}";
},
{
name = top;
position = "{192, 591}";
}
);
layerId = "5E1A2ACF-25BB-4872-A226-5327BC7330DB";
paths = (
{
closed = 1;
nodes = (
"78 0 LINE",
"230 0 LINE SMOOTH",
"306 0 OFFCURVE",
"351 25 OFFCURVE",
"351 130 CURVE SMOOTH",
"351 461 LINE SMOOTH",
"351 566 OFFCURVE",
"301 591 OFFCURVE",
"230 591 CURVE SMOOTH",
"78 591 LINE"
);
},
{
closed = 1;
nodes = (
"90 11 LINE",
"90 582 LINE",
"230 582 LINE SMOOTH",
"299 582 OFFCURVE",
"339 552 OFFCURVE",
"339 461 CURVE SMOOTH",
"339 130 LINE SMOOTH",
"339 34 OFFCURVE",
"298 11 OFFCURVE",
"230 11 CURVE SMOOTH"
);
}
);
width = 418;
}
);
leftKerningGroup = H;
leftMetricsKey = H;
note = D;
rightKerningGroup = O;
rightMetricsKey = O;
unicode = 0044;
},
{
glyphname = E;
lastChange = "2021-12-09 03:35:29 +0000";
layers = (
{
anchors = (
{
name = bottom;
position = "{199, 0}";
},
{
name = ogonek;
position = "{303, 0}";
},
{
name = top;
position = "{199, 591}";
},
{
name = topleft;
position = "{48, 591}";
}
);
background = {
paths = (
{
closed = 1;
nodes = (
"319 0 LINE",
"319 11 LINE",
"90 11 LINE",
"90 306 LINE",
"268 306 LINE",
"268 317 LINE",
"90 317 LINE",
"90 580 LINE",
"319 580 LINE",
"319 591 LINE",
"78 591 LINE",
"78 0 LINE"
);
}
);
};
layerId = "5E1A2ACF-25BB-4872-A226-5327BC7330DB";
paths = (
{
closed = 1;
nodes = (
"319 0 LINE",
"319 11 LINE",
"90 11 LINE",
"90 306 LINE",
"268 306 LINE",
"268 316 LINE",
"90 316 LINE",
"90 580 LINE",
"319 580 LINE",
"319 591 LINE",
"78 591 LINE",
"78 0 LINE"
);
}
);
width = 346;
}
);
leftKerningGroup = H;
leftMetricsKey = H;
note = E;
rightKerningGroup = E;
unicode = 0045;
},
{
glyphname = F;
lastChange = "2021-12-09 03:35:29 +0000";
layers = (
{
background = {
paths = (
{
closed = 1;
nodes = (
"90 0 LINE",
"90 306 LINE",
"268 306 LINE",
"268 317 LINE",
"90 317 LINE",
"90 580 LINE",
"319 580 LINE",
"319 591 LINE",
"78 591 LINE",
"78 0 LINE"
);
}
);
};
layerId = "5E1A2ACF-25BB-4872-A226-5327BC7330DB";
paths = (
{
closed = 1;
nodes = (
"90 0 LINE",
"90 306 LINE",
"268 306 LINE",
"268 316 LINE",
"90 316 LINE",
"90 580 LINE",
"319 580 LINE",
"319 591 LINE",
"78 591 LINE",
"78 0 LINE"
);
}
);
width = 335;
}
);
leftKerningGroup = H;
leftMetricsKey = H;
note = F;
rightKerningGroup = F;
unicode = 0046;
},
{
glyphname = G;
lastChange = "2021-12-09 03:35:33 +0000";
layers = (
{
anchors = (
{
name = bottom;
position = "{203, 0}";
},
{
name = top;
position = "{203, 591}";
}
);
layerId = "5E1A2ACF-25BB-4872-A226-5327BC7330DB";
paths = (
{
closed = 1;
nodes = (
"263 -12 OFFCURVE",
"313 18 OFFCURVE",
"329 69 CURVE",
"333 0 LINE",
"340 0 LINE",
"340 266 LINE",
"221 266 LINE",
"221 257 LINE",
"328 257 LINE",
"328 118 LINE SMOOTH",
"328 42 OFFCURVE",
"271 -3 OFFCURVE",
"203 -3 CURVE SMOOTH",
"134 -3 OFFCURVE",
"79 11 OFFCURVE",
"79 118 CURVE SMOOTH",
"79 468 LINE SMOOTH",
"79 572 OFFCURVE",
"126 589 OFFCURVE",
"203 589 CURVE SMOOTH",
"284 589 OFFCURVE",
"328 572 OFFCURVE",
"328 468 CURVE SMOOTH",
"328 401 LINE",
"340 401 LINE",
"340 469 LINE SMOOTH",
"340 583 OFFCURVE",
"284 599 OFFCURVE",
"205 599 CURVE SMOOTH",
"126 599 OFFCURVE",
"67 585 OFFCURVE",
"67 469 CURVE SMOOTH",
"67 118 LINE SMOOTH",
"67 4 OFFCURVE",
"126 -12 OFFCURVE",
"202 -12 CURVE SMOOTH"
);
}
);
width = 405;
}
);
leftKerningGroup = O;
leftMetricsKey = O;
note = G;
rightKerningGroup = G;
rightMetricsKey = "=O-2";
unicode = 0047;
},
{
glyphname = H;
lastChange = "2021-12-09 03:35:29 +0000";
layers = (
{
anchors = (
{
name = bottom;
position = "{215, 0}";
},
{
name = center;
position = "{215, 296}";
},
{
name = top;
position = "{215, 591}";
},
{
name = topleft;
position = "{48, 591}";
}
);
layerId = "5E1A2ACF-25BB-4872-A226-5327BC7330DB";
paths = (
{
closed = 1;
nodes = (
"90 0 LINE",
"90 306 LINE",
"339 306 LINE",
"339 0 LINE",
"351 0 LINE",
"351 591 LINE",
"339 591 LINE",
"339 317 LINE",
"90 317 LINE",
"90 591 LINE",
"78 591 LINE",
"78 0 LINE"
);
}
);
width = 429;
}
);
leftKerningGroup = H;
note = H;
rightKerningGroup = H;
unicode = 0048;
},
{
glyphname = Hbar;
lastChange = "2021-12-09 03:35:29 +0000";
layers = (
{
layerId = "5E1A2ACF-25BB-4872-A226-5327BC7330DB";
paths = (
{
closed = 1;
nodes = (
"99 0 LINE",
"99 306 LINE",
"348 306 LINE",
"348 0 LINE",
"360 0 LINE",
"360 494 LINE",
"410 494 LINE",
"410 504 LINE",
"360 504 LINE",
"360 591 LINE",
"348 591 LINE",
"348 504 LINE",
"99 504 LINE",
"99 591 LINE",
"87 591 LINE",
"87 504 LINE",
"38 504 LINE",
"38 494 LINE",
"87 494 LINE",
"87 0 LINE"
);
},
{
closed = 1;
nodes = (
"99 494 LINE",
"348 494 LINE",
"348 317 LINE",
"99 317 LINE"
);
}
);
width = 448;
}
);
leftKerningGroup = H;
note = Hbar;
rightKerningGroup = H;
unicode = 0126;
},
{
glyphname = I;
lastChange = "2021-12-10 04:00:31 +0000";
layers = (
{
anchors = (
{
name = bottom;
position = "{84, 0}";
},
{
name = ogonek;
position = "{90, 0}";
},
{
name = top;
position = "{84, 591}";
},
{
name = topleft;
position = "{48, 591}";
}
);
layerId = "5E1A2ACF-25BB-4872-A226-5327BC7330DB";
paths = (
{
closed = 1;
nodes = (
"90 0 LINE",
"90 591 LINE",
"78 591 LINE",
"78 0 LINE"
);
}
);
width = 168;
}
);
leftKerningGroup = H;
leftMetricsKey = H;
note = I;
rightKerningGroup = H;
rightMetricsKey = H;
unicode = 0049;
},
{
glyphname = J;
lastChange = "2021-12-09 03:35:33 +0000";
layers = (
{
anchors = (
{
name = bottom;
position = "{99, 0}";
},
{
name = top;
position = "{119, 591}";
}
);
layerId = "5E1A2ACF-25BB-4872-A226-5327BC7330DB";
paths = (
{
closed = 1;
nodes = (
"15 -1 OFFCURVE",
"23 0 OFFCURVE",
"30 0 CURVE SMOOTH",
"42 0 LINE SMOOTH",
"119 0 OFFCURVE",
"125 33 OFFCURVE",
"125 117 CURVE SMOOTH",
"125 591 LINE",
"113 591 LINE",
"113 86 LINE SMOOTH",
"113 29 OFFCURVE",
"90 10 OFFCURVE",
"42 10 CURVE SMOOTH",
"8 10 LINE",
"8 0 LINE"
);
}
);
width = 203;
}
);
leftKerningGroup = J;
note = J;
rightKerningGroup = J;
rightMetricsKey = H;
unicode = 004A;
},
{
glyphname = K;
lastChange = "2021-12-10 02:41:52 +0000";
layers = (
{
anchors = (
{
name = bottom;
position = "{188, 0}";
},
{
name = top;
position = "{189, 591}";
}
);
layerId = "5E1A2ACF-25BB-4872-A226-5327BC7330DB";
paths = (
{
closed = 1;
nodes = (
"319 0 LINE",
"133 306 LINE",
"314 591 LINE",
"300 591 LINE",
"119 306 LINE",
"304 0 LINE"
);
},
{
closed = 1;
nodes = (
"90 0 LINE",
"90 591 LINE",
"78 591 LINE",
"78 0 LINE"
);
}
);
width = 333;
}
);
leftKerningGroup = H;
leftMetricsKey = H;
note = K;
rightKerningGroup = K;
unicode = 004B;
},
{
glyphname = L;
lastChange = "2021-12-10 02:42:04 +0000";
layers = (
{
anchors = (
{
name = bottom;
position = "{183, 0}";
},
{
name = center;
position = "{161, 296}";
},
{
name = top;
position = "{84, 591}";
},
{
name = topright;
position = "{217, 495}";
}
);
layerId = "5E1A2ACF-25BB-4872-A226-5327BC7330DB";
paths = (
{
closed = 1;
nodes = (
"288 0 LINE",
"288 11 LINE",
"90 11 LINE",
"90 591 LINE",
"78 591 LINE",
"78 0 LINE"
);
}
);
width = 293;
}
);
leftKerningGroup = H;
leftMetricsKey = H;
note = L;
rightKerningGroup = L;
unicode = 004C;
},
{
glyphname = Lslash;
lastChange = "2021-12-09 03:35:29 +0000";
layers = (
{
layerId = "5E1A2ACF-25BB-4872-A226-5327BC7330DB";
paths = (
{
closed = 1;
nodes = (
"299 0 LINE",
"299 11 LINE",
"101 11 LINE",
"101 197 LINE",
"188 237 LINE",
"188 247 LINE",
"101 207 LINE",
"101 591 LINE",
"89 591 LINE",
"89 202 LINE",
"20 171 LINE",
"20 160 LINE",
"89 191 LINE",
"89 0 LINE"
);
}
);
width = 304;
}
);
leftKerningGroup = H;
note = Lslash;
rightKerningGroup = L;
unicode = 0141;
},
{
glyphname = M;
lastChange = "2021-12-09 03:35:29 +0000";
layers = (
{
layerId = "5E1A2ACF-25BB-4872-A226-5327BC7330DB";
paths = (
{
closed = 1;
nodes = (
"90 0 LINE",
"90 537 LINE",
"254 0 LINE",
"268 0 LINE",
"311 148 OFFCURVE",
"368 324 OFFCURVE",
"432 537 CURVE",
"432 0 LINE",
"444 0 LINE",
"444 591 LINE",
"436 591 LINE",
"261 16 LINE",
"87 591 LINE",
"78 591 LINE",
"78 0 LINE"
);
}
);
width = 522;
}
);
leftKerningGroup = H;
leftMetricsKey = H;
note = M;
rightKerningGroup = H;
rightMetricsKey = H;
unicode = 004D;
},
{
glyphname = N;
lastChange = "2021-12-10 00:59:58 +0000";
layers = (
{
anchors = (
{
name = bottom;
position = "{215, 0}";
},
{
name = top;
position = "{221, 591}";
}
);
layerId = "5E1A2ACF-25BB-4872-A226-5327BC7330DB";
paths = (
{
closed = 1;
nodes = (
"90 0 LINE",
"90 564 LINE",
"335 0 LINE",
"351 0 LINE",
"351 591 LINE",
"340 591 LINE",
"340 17 LINE",
"92 591 LINE",
"78 591 LINE",
"78 0 LINE"
);
}
);
width = 429;
}
);
leftKerningGroup = H;
leftMetricsKey = H;
note = N;
rightKerningGroup = H;
rightMetricsKey = H;
unicode = 004E;
},
{
glyphname = Eng;
lastChange = "2021-12-09 03:35:29 +0000";
layers = (
{
layerId = "5E1A2ACF-25BB-4872-A226-5327BC7330DB";
paths = (
{
closed = 1;
nodes = (
"241 -248 OFFCURVE",
"249 -247 OFFCURVE",
"256 -247 CURVE SMOOTH",
"268 -247 LINE SMOOTH",
"345 -247 OFFCURVE",
"351 -214 OFFCURVE",
"351 -130 CURVE SMOOTH",
"351 591 LINE",
"340 591 LINE",
"340 17 LINE",
"92 591 LINE",
"78 591 LINE",
"78 0 LINE",
"90 0 LINE",
"90 564 LINE",
"339 -9 LINE",
"339 -161 LINE SMOOTH",
"339 -218 OFFCURVE",
"316 -237 OFFCURVE",
"268 -237 CURVE SMOOTH",
"234 -237 LINE",
"234 -247 LINE"
);
}
);
width = 429;
}
);
leftKerningGroup = H;
note = Eng;
rightKerningGroup = H;
unicode = 014A;
},
{
glyphname = O;
lastChange = "2021-12-10 04:01:29 +0000";
layers = (
{
anchors = (
{
name = bottom;
position = "{204, 0}";
},
{
name = center;
position = "{204, 296}";
},
{
name = ogonek;
position = "{230, -3}";
},
{
name = top;
position = "{203, 591}";
},
{
name = topleft;
position = "{43, 591}";
},
{
name = topright;
position = "{258, 591}";
}
);
layerId = "5E1A2ACF-25BB-4872-A226-5327BC7330DB";
paths = (
{
closed = 1;
nodes = (
"282 -10 OFFCURVE",
"340 4 OFFCURVE",
"340 120 CURVE SMOOTH",
"340 469 LINE SMOOTH",
"340 583 OFFCURVE",
"281 599 OFFCURVE",
"204 599 CURVE SMOOTH",
"127 599 OFFCURVE",
"67 585 OFFCURVE",
"67 469 CURVE SMOOTH",
"67 120 LINE SMOOTH",
"67 6 OFFCURVE",
"126 -10 OFFCURVE",
"202 -10 CURVE SMOOTH"
);
},
{
closed = 1;
nodes = (
"134 0 OFFCURVE",
"79 13 OFFCURVE",
"79 117 CURVE SMOOTH",
"79 472 LINE SMOOTH",
"79 576 OFFCURVE",
"134 589 OFFCURVE",
"203 589 CURVE SMOOTH",
"271 589 OFFCURVE",
"328 576 OFFCURVE",
"328 472 CURVE SMOOTH",
"328 117 LINE SMOOTH",
"328 13 OFFCURVE",
"273 0 OFFCURVE",
"203 0 CURVE SMOOTH"
);
}
);
width = 407;
}
);
leftKerningGroup = O;
note = O;
rightKerningGroup = O;
unicode = 004F;
},
{
glyphname = Oslash;
lastChange = "2021-12-09 03:35:29 +0000";
layers = (
{
anchors = (
{
name = bottom;
position = "{203, 0}";
},
{
name = top;
position = "{192, 589}";
}
);
layerId = "5E1A2ACF-25BB-4872-A226-5327BC7330DB";
paths = (
{
closed = 1;
nodes = (
"44 -46 LINE",
"80 25 LINE",
"104 -6 OFFCURVE",
"144 -12 OFFCURVE",
"191 -12 CURVE SMOOTH",
"271 -12 OFFCURVE",
"329 2 OFFCURVE",
"329 118 CURVE SMOOTH",
"329 469 LINE SMOOTH",
"329 484 OFFCURVE",
"328 498 OFFCURVE",
"326 510 CURVE",
"341 541 OFFCURVE",
"357 572 OFFCURVE",
"374 604 CURVE",
"361 604 LINE",
"322 527 LINE",
"303 589 OFFCURVE",
"255 599 OFFCURVE",
"193 599 CURVE SMOOTH",
"116 599 OFFCURVE",
"56 585 OFFCURVE",
"56 469 CURVE SMOOTH",
"56 118 LINE SMOOTH",
"56 82 OFFCURVE",
"61 55 OFFCURVE",
"72 36 CURVE",
"30 -46 LINE"
);
},
{
closed = 1;
nodes = (
"145 -3 OFFCURVE",
"107 3 OFFCURVE",
"86 36 CURVE",
"166 193 OFFCURVE",
"237 336 OFFCURVE",
"316 491 CURVE",
"316 484 OFFCURVE",
"317 479 OFFCURVE",
"317 472 CURVE SMOOTH",
"317 114 LINE SMOOTH",
"317 10 OFFCURVE",
"262 -3 OFFCURVE",
"192 -3 CURVE SMOOTH"
);
},
{
closed = 1;
nodes = (
"71 64 OFFCURVE",
"68 86 OFFCURVE",
"68 114 CURVE SMOOTH",
"68 472 LINE SMOOTH",
"68 576 OFFCURVE",
"123 589 OFFCURVE",
"192 589 CURVE SMOOTH",
"251 589 OFFCURVE",
"300 579 OFFCURVE",
"314 511 CURVE",
"78 49 LINE"
);
}
);
width = 419;
}
);
leftKerningGroup = O;
note = Oslash;
rightKerningGroup = O;
unicode = 00D8;
},
{
glyphname = OE;
lastChange = "2021-12-09 03:35:29 +0000";
layers = (
{
layerId = "5E1A2ACF-25BB-4872-A226-5327BC7330DB";
paths = (
{
closed = 1;
nodes = (
"261 -12 OFFCURVE",
"307 -4 OFFCURVE",
"328 45 CURVE",
"328 0 LINE",
"569 0 LINE",
"569 11 LINE",
"340 11 LINE",
"340 306 LINE",
"518 306 LINE",
"518 317 LINE",
"340 317 LINE",
"340 580 LINE",
"569 580 LINE",
"569 591 LINE",
"328 591 LINE",
"328 541 LINE",
"307 590 OFFCURVE",
"261 599 OFFCURVE",
"204 599 CURVE SMOOTH",
"127 599 OFFCURVE",
"67 585 OFFCURVE",
"67 469 CURVE SMOOTH",
"67 118 LINE SMOOTH",
"67 4 OFFCURVE",
"126 -12 OFFCURVE",
"202 -12 CURVE SMOOTH"
);
},
{
closed = 1;
nodes = (
"134 -3 OFFCURVE",
"79 10 OFFCURVE",
"79 114 CURVE SMOOTH",
"79 472 LINE SMOOTH",
"79 576 OFFCURVE",
"134 589 OFFCURVE",
"203 589 CURVE SMOOTH",
"271 589 OFFCURVE",
"328 576 OFFCURVE",
"328 472 CURVE SMOOTH",
"328 106 LINE SMOOTH",
"328 9 OFFCURVE",
"271 -3 OFFCURVE",
"203 -3 CURVE SMOOTH"
);
}
);
width = 596;
}
);
leftKerningGroup = O;
note = OE;
rightKerningGroup = E;
unicode = 0152;
},
{
glyphname = P;
lastChange = "2021-12-09 03:35:29 +0000";
layers = (
{
layerId = "5E1A2ACF-25BB-4872-A226-5327BC7330DB";
paths = (
{
closed = 1;
nodes = (
"90 0 LINE",
"90 271 LINE",
"201 271 LINE SMOOTH",
"323 271 OFFCURVE",
"346 313 OFFCURVE",
"346 418 CURVE SMOOTH",
"346 494 LINE SMOOTH",
"346 569 OFFCURVE",
"306 591 OFFCURVE",
"226 591 CURVE SMOOTH",
"78 591 LINE",
"78 0 LINE"
);
},
{
closed = 1;
nodes = (
"90 282 LINE",
"90 580 LINE",
"225 580 LINE SMOOTH",
"310 580 OFFCURVE",
"334 556 OFFCURVE",
"334 476 CURVE SMOOTH",
"334 417 LINE SMOOTH",
"334 315 OFFCURVE",
"310 282 OFFCURVE",
"201 282 CURVE SMOOTH"
);
}
);
width = 380;
}
);
leftKerningGroup = H;
leftMetricsKey = H;
note = P;
rightKerningGroup = P;
unicode = 0050;
},
{
glyphname = Thorn;
lastChange = "2021-12-09 03:35:29 +0000";
layers = (
{
layerId = "5E1A2ACF-25BB-4872-A226-5327BC7330DB";
paths = (
{
closed = 1;
nodes = (
"61 0 LINE",
"61 151 LINE",
"197 151 LINE SMOOTH",
"291 151 OFFCURVE",
"317 211 OFFCURVE",
"317 270 CURVE SMOOTH",
"317 374 LINE SMOOTH",
"317 446 OFFCURVE",
"268 471 OFFCURVE",
"211 471 CURVE SMOOTH",
"61 471 LINE",
"61 591 LINE",
"49 591 LINE",
"49 0 LINE"
);
},
{
closed = 1;
nodes = (
"61 162 LINE",
"61 460 LINE",
"219 460 LINE SMOOTH",
"264 460 OFFCURVE",
"305 433 OFFCURVE",
"305 376 CURVE SMOOTH",
"305 265 LINE SMOOTH",
"305 197 OFFCURVE",
"262 162 OFFCURVE",
"197 162 CURVE SMOOTH"
);
}
);
width = 366;
}
);
note = Thorn;
unicode = 00DE;
},
{
glyphname = Q;
lastChange = "2021-12-09 03:35:29 +0000";
layers = (
{
layerId = "5E1A2ACF-25BB-4872-A226-5327BC7330DB";
paths = (
{
closed = 1;
nodes = (
"325 -103 LINE",
"267 -6 LINE",
"311 5 OFFCURVE",
"340 37 OFFCURVE",
"340 118 CURVE SMOOTH",
"340 469 LINE SMOOTH",
"340 583 OFFCURVE",
"281 599 OFFCURVE",
"204 599 CURVE SMOOTH",
"127 599 OFFCURVE",
"67 585 OFFCURVE",
"67 469 CURVE SMOOTH",
"67 118 LINE SMOOTH",
"67 4 OFFCURVE",
"126 -12 OFFCURVE",
"202 -12 CURVE SMOOTH",
"223 -12 OFFCURVE",
"241 -11 OFFCURVE",
"256 -8 CURVE",
"315 -109 LINE"
);
},
{
closed = 1;
nodes = (
"134 -3 OFFCURVE",
"79 10 OFFCURVE",
"79 114 CURVE SMOOTH",
"79 472 LINE SMOOTH",
"79 576 OFFCURVE",
"134 589 OFFCURVE",
"203 589 CURVE SMOOTH",
"271 589 OFFCURVE",
"328 576 OFFCURVE",
"328 472 CURVE SMOOTH",
"328 114 LINE SMOOTH",
"328 10 OFFCURVE",
"273 -3 OFFCURVE",
"203 -3 CURVE SMOOTH"
);
}
);
width = 407;
}
);
leftKerningGroup = O;
leftMetricsKey = O;
note = Q;
rightKerningGroup = O;
rightMetricsKey = O;
unicode = 0051;
},
{
glyphname = R;
lastChange = "2021-12-09 03:35:29 +0000";
layers = (
{
anchors = (
{
name = bottom;
position = "{206, 0}";
},
{
name = top;
position = "{201, 591}";
}
);
background = {
paths = (
{
closed = 1;
nodes = (
"90 0 LINE",
"90 292 LINE",
"209 292 LINE SMOOTH",
"250 292 OFFCURVE",
"276 257 OFFCURVE",
"292 205 CURVE SMOOTH",
"353 0 LINE",
"367 0 LINE",
"298 224 LINE SMOOTH",
"287 256 OFFCURVE",
"265 293 OFFCURVE",
"232 296 CURVE",
"295 296 OFFCURVE",
"346 328 OFFCURVE",
"346 411 CURVE SMOOTH",
"346 494 LINE SMOOTH",
"346 566 OFFCURVE",
"297 591 OFFCURVE",
"240 591 CURVE SMOOTH",
"78 591 LINE",
"78 0 LINE"
);
},
{
closed = 1;
nodes = (
"90 303 LINE",
"90 580 LINE",
"248 580 LINE SMOOTH",
"293 580 OFFCURVE",
"334 553 OFFCURVE",
"334 496 CURVE SMOOTH",
"334 409 LINE SMOOTH",
"334 331 OFFCURVE",
"283 303 OFFCURVE",
"215 303 CURVE SMOOTH"
);
}
);
};
layerId = "5E1A2ACF-25BB-4872-A226-5327BC7330DB";
paths = (
{
closed = 1;
nodes = (
"90 0 LINE",
"90 292 LINE",
"209 292 LINE SMOOTH",
"250 292 OFFCURVE",
"276 257 OFFCURVE",
"292 205 CURVE SMOOTH",
"353 0 LINE",
"367 0 LINE",
"298 224 LINE SMOOTH",
"288 256 OFFCURVE",
"265 293 OFFCURVE",
"232 296 CURVE",
"295 296 OFFCURVE",
"346 328 OFFCURVE",
"346 411 CURVE SMOOTH",
"346 494 LINE SMOOTH",
"346 566 OFFCURVE",
"297 591 OFFCURVE",
"240 591 CURVE SMOOTH",
"78 591 LINE",
"78 0 LINE"
);
},
{
closed = 1;
nodes = (
"90 302 LINE",
"90 580 LINE",
"248 580 LINE SMOOTH",
"293 580 OFFCURVE",
"334 553 OFFCURVE",
"334 496 CURVE SMOOTH",
"334 409 LINE SMOOTH",
"334 343 OFFCURVE",
"295 302 OFFCURVE",
"215 302 CURVE SMOOTH"
);
}
);
width = 406;
}
);
leftKerningGroup = H;
leftMetricsKey = H;
note = R;
rightKerningGroup = R;
unicode = 0052;
},
{
glyphname = S;
lastChange = "2021-12-10 02:50:39 +0000";
layers = (
{
anchors = (
{
name = bottom;
position = "{171, 0}";
},
{
name = top;
position = "{171, 591}";
}
);
layerId = "5E1A2ACF-25BB-4872-A226-5327BC7330DB";
paths = (
{
closed = 1;
nodes = (
"242 -9 OFFCURVE",
"301 31 OFFCURVE",
"301 146 CURVE SMOOTH",
"301 202 OFFCURVE",
"288 237 OFFCURVE",
"261 260 CURVE SMOOTH",
"189 324 OFFCURVE",
"53 304 OFFCURVE",
"53 448 CURVE SMOOTH",
"53 540 OFFCURVE",
"86 583 OFFCURVE",
"169 583 CURVE SMOOTH",
"241 583 OFFCURVE",
"283 541 OFFCURVE",
"283 469 CURVE SMOOTH",
"283 429 LINE",
"295 429 LINE",
"295 469 LINE SMOOTH",
"295 549 OFFCURVE",
"249 595 OFFCURVE",
"169 595 CURVE SMOOTH",
"77 595 OFFCURVE",
"41 544 OFFCURVE",
"41 448 CURVE SMOOTH",
"41 354 OFFCURVE",
"99 322 OFFCURVE",
"159 298 CURVE SMOOTH",
"239 269 OFFCURVE",
"289 250 OFFCURVE",
"289 146 CURVE SMOOTH",
"289 38 OFFCURVE",
"235 3 OFFCURVE",
"165 3 CURVE SMOOTH",
"97 3 OFFCURVE",
"50 38 OFFCURVE",
"50 163 CURVE SMOOTH",
"50 175 LINE",
"38 175 LINE",
"38 163 LINE SMOOTH",
"38 32 OFFCURVE",
"88 -9 OFFCURVE",
"165 -9 CURVE SMOOTH"
);
}
);
width = 339;
}
);
leftKerningGroup = S;
note = S;
rightKerningGroup = S;
unicode = 0053;
},
{
glyphname = Germandbls;
lastChange = "2021-12-09 03:35:33 +0000";
layers = (
{
associatedMasterId = "5E1A2ACF-25BB-4872-A226-5327BC7330DB";
background = {
paths = (
{
closed = 1;
nodes = (
"718 -8 OFFCURVE",
"794 36 OFFCURVE",
"794 171 CURVE SMOOTH",
"794 290 OFFCURVE",
"757 313 OFFCURVE",
"669 345 CURVE SMOOTH",
"626 361 OFFCURVE",
"587 368 OFFCURVE",
"587 427 CURVE SMOOTH",
"587 456 OFFCURVE",
"590 467 OFFCURVE",
"607 467 CURVE SMOOTH",
"628 467 OFFCURVE",
"628 453 OFFCURVE",
"628 399 CURVE SMOOTH",
"628 373 LINE",
"681 373 OFFCURVE",
"734 373 OFFCURVE",
"787 373 CURVE",
"787 449 LINE SMOOTH",
"787 546 OFFCURVE",
"725 593 OFFCURVE",
"605 593 CURVE SMOOTH",
"465 593 OFFCURVE",
"422 548 OFFCURVE",
"422 422 CURVE SMOOTH",
"422 332 OFFCURVE",
"443 279 OFFCURVE",
"518 246 CURVE SMOOTH",
"598 211 OFFCURVE",
"625 211 OFFCURVE",
"625 147 CURVE SMOOTH",
"625 101 OFFCURVE",
"620 92 OFFCURVE",
"605 92 CURVE SMOOTH",
"591 92 OFFCURVE",
"584 101 OFFCURVE",
"584 155 CURVE SMOOTH",
"584 206 LINE",
"528 206 OFFCURVE",
"473 206 OFFCURVE",
"417 206 CURVE",
"417 169 LINE SMOOTH",
"417 26 OFFCURVE",
"480 -8 OFFCURVE",
"599 -8 CURVE SMOOTH"
);
},
{
closed = 1;
nodes = (
"321 -8 OFFCURVE",
"397 36 OFFCURVE",
"397 171 CURVE SMOOTH",
"397 290 OFFCURVE",
"360 313 OFFCURVE",
"272 345 CURVE SMOOTH",
"229 361 OFFCURVE",
"190 368 OFFCURVE",
"190 427 CURVE SMOOTH",
"190 456 OFFCURVE",
"193 467 OFFCURVE",
"210 467 CURVE SMOOTH",
"231 467 OFFCURVE",
"231 453 OFFCURVE",
"231 399 CURVE SMOOTH",
"231 373 LINE",
"284 373 OFFCURVE",
"337 373 OFFCURVE",
"390 373 CURVE",
"390 449 LINE SMOOTH",
"390 546 OFFCURVE",
"328 593 OFFCURVE",
"208 593 CURVE SMOOTH",
"68 593 OFFCURVE",
"25 548 OFFCURVE",
"25 422 CURVE SMOOTH",
"25 332 OFFCURVE",
"46 279 OFFCURVE",
"121 246 CURVE SMOOTH",
"201 211 OFFCURVE",
"228 211 OFFCURVE",
"228 147 CURVE SMOOTH",
"228 101 OFFCURVE",
"223 92 OFFCURVE",
"208 92 CURVE SMOOTH",
"194 92 OFFCURVE",
"187 101 OFFCURVE",
"187 155 CURVE SMOOTH",
"187 206 LINE",
"131 206 OFFCURVE",
"76 206 OFFCURVE",
"20 206 CURVE",
"20 169 LINE SMOOTH",
"20 26 OFFCURVE",
"83 -8 OFFCURVE",
"202 -8 CURVE SMOOTH"
);
}
);
};
layerId = "8A3706BD-364F-4FE3-9C2E-7E87DF0DB4CC";
name = Black;
paths = (
{
closed = 1;
nodes = (
"215 -25 LINE",
"214 542 LINE SMOOTH",
"214 556 OFFCURVE",
"221 558 OFFCURVE",
"258 558 CURVE SMOOTH",
"302 558 OFFCURVE",
"302 538 OFFCURVE",
"302 483 CURVE SMOOTH",
"302 435 LINE SMOOTH",
"302 396 OFFCURVE",
"298 373 OFFCURVE",
"276 373 CURVE SMOOTH",
"239 373 LINE",
"238 293 LINE",
"256 293 LINE SMOOTH",
"301 293 OFFCURVE",
"301 270 OFFCURVE",
"301 239 CURVE SMOOTH",
"301 186 LINE SMOOTH",
"301 94 OFFCURVE",
"298 78 OFFCURVE",
"261 78 CURVE SMOOTH",
"241 78 LINE",
"241 0 LINE",
"285 0 LINE SMOOTH",
"398 0 OFFCURVE",
"474 16 OFFCURVE",
"474 121 CURVE SMOOTH",
"474 244 LINE SMOOTH",
"474 303 OFFCURVE",
"419 334 OFFCURVE",
"371 338 CURVE",
"371 342 LINE",
"413 345 OFFCURVE",
"456 382 OFFCURVE",
"456 438 CURVE SMOOTH",
"456 533 LINE SMOOTH",
"456 606 OFFCURVE",
"385 631 OFFCURVE",
"256 631 CURVE SMOOTH",
"89 631 OFFCURVE",
"58 624 OFFCURVE",
"58 584 CURVE",
"58 -25 LINE"
);
}
);
width = 499;
},
{
layerId = "5E1A2ACF-25BB-4872-A226-5327BC7330DB";
paths = (
{
closed = 1;
nodes = (
"90 -59 LINE",
"90 525 LINE SMOOTH",
"90 558 OFFCURVE",
"86 583 OFFCURVE",
"194 583 CURVE SMOOTH",
"266 583 OFFCURVE",
"299 558 OFFCURVE",
"299 497 CURVE SMOOTH",
"299 448 LINE SMOOTH",
"299 385 OFFCURVE",
"279 346 OFFCURVE",
"208 346 CURVE SMOOTH",
"154 346 LINE",
"154 336 LINE",
"197 336 LINE SMOOTH",
"257 336 OFFCURVE",
"311 315 OFFCURVE",
"311 239 CURVE SMOOTH",
"311 123 LINE SMOOTH",
"311 24 OFFCURVE",
"270 9 OFFCURVE",
"211 9 CURVE SMOOTH",
"134 9 LINE",
"134 0 LINE",
"211 0 LINE SMOOTH",
"276 0 OFFCURVE",
"321 15 OFFCURVE",
"321 119 CURVE SMOOTH",
"321 244 LINE SMOOTH",
"321 300 OFFCURVE",
"286 334 OFFCURVE",
"240 340 CURVE",
"240 343 LINE",
"283 347 OFFCURVE",
"310 385 OFFCURVE",
"310 441 CURVE SMOOTH",
"310 498 LINE SMOOTH",
"310 570 OFFCURVE",
"269 593 OFFCURVE",
"194 593 CURVE SMOOTH",
"87 593 OFFCURVE",
"78 573 OFFCURVE",
"78 527 CURVE SMOOTH",
"78 -59 LINE"
);
}
);
width = 383;
}
);
leftMetricsKey = H;
rightKerningGroup = B;
rightMetricsKey = B;
unicode = 1E9E;
},
{
glyphname = Schwa;
lastChange = "2021-12-09 03:35:29 +0000";
layers = (
{
layerId = "5E1A2ACF-25BB-4872-A226-5327BC7330DB";
paths = (
{
closed = 1;
nodes = (
"272 -8 OFFCURVE",
"332 6 OFFCURVE",
"332 122 CURVE SMOOTH",
"332 473 LINE SMOOTH",
"332 587 OFFCURVE",
"273 603 OFFCURVE",
"197 603 CURVE SMOOTH",
"117 603 OFFCURVE",
"59 589 OFFCURVE",
"59 473 CURVE SMOOTH",
"59 402 LINE",
"71 402 LINE",
"71 475 LINE SMOOTH",
"71 579 OFFCURVE",
"126 594 OFFCURVE",
"196 594 CURVE SMOOTH",
"265 594 OFFCURVE",
"320 579 OFFCURVE",
"320 475 CURVE SMOOTH",
"320 124 LINE SMOOTH",
"320 19 OFFCURVE",
"271 2 OFFCURVE",
"196 2 CURVE SMOOTH",
"121 2 OFFCURVE",
"71 17 OFFCURVE",
"71 118 CURVE SMOOTH",
"71 247 LINE",
"59 247 LINE",
"59 122 LINE SMOOTH",
"59 8 OFFCURVE",
"118 -8 OFFCURVE",
"195 -8 CURVE SMOOTH"
);
},
{
closed = 1;
nodes = (
"324 236 LINE",
"324 247 LINE",
"59 247 LINE",
"59 236 LINE"
);
}
);
width = 399;
},
{
anchors = (
{
name = bottom;
position = "{197, 0}";
},
{
name = top;
position = "{197, 591}";
}
);
associatedMasterId = "5E1A2ACF-25BB-4872-A226-5327BC7330DB";
layerId = "8A3706BD-364F-4FE3-9C2E-7E87DF0DB4CC";
name = Black;
paths = (
{
closed = 1;
nodes = (
"302 -12 OFFCURVE",
"375 14 OFFCURVE",
"375 173 CURVE SMOOTH",
"375 465 LINE SMOOTH",
"375 564 OFFCURVE",
"302 600 OFFCURVE",
"193 600 CURVE SMOOTH",
"84 600 OFFCURVE",
"18 564 OFFCURVE",
"18 465 CURVE SMOOTH",
"18 327 LINE",
"177 327 LINE",
"177 473 LINE SMOOTH",
"177 496 OFFCURVE",
"184 503 OFFCURVE",
"193 503 CURVE SMOOTH",
"203 503 OFFCURVE",
"209 496 OFFCURVE",
"209 473 CURVE SMOOTH",
"209 110 LINE SMOOTH",
"209 87 OFFCURVE",
"203 80 OFFCURVE",
"193 80 CURVE SMOOTH",
"184 80 OFFCURVE",
"177 87 OFFCURVE",
"177 110 CURVE SMOOTH",
"177 248 LINE",
"18 248 LINE",
"18 174 LINE SMOOTH",
"18 14 OFFCURVE",
"84 -12 OFFCURVE",
"193 -12 CURVE SMOOTH"
);
},
{
closed = 1;
nodes = (
"230 216 LINE",
"230 289 LINE",
"18 289 LINE",
"18 216 LINE"
);
}
);
width = 395;
}
);
leftKerningGroup = a;
rightKerningGroup = o;
unicode = 018F;
},
{
glyphname = T;
lastChange = "2021-12-09 03:35:29 +0000";
layers = (
{
anchors = (
{
name = bottom;
position = "{131, 0}";
},
{
name = center;
position = "{131, 395}";
},
{
name = top;
position = "{131, 591}";
}
);
layerId = "5E1A2ACF-25BB-4872-A226-5327BC7330DB";
paths = (
{
closed = 1;
nodes = (
"137 0 LINE",
"137 580 LINE",
"251 580 LINE",
"251 591 LINE",
"12 591 LINE",
"12 580 LINE",
"125 580 LINE",
"125 0 LINE"
);
}
);
width = 263;
}
);
leftKerningGroup = T;
note = T;
rightKerningGroup = T;
unicode = 0054;
},
{
glyphname = U;
lastChange = "2021-12-09 03:35:33 +0000";
layers = (
{
anchors = (
{
name = bottom;
position = "{205, 0}";
},
{
name = ogonek;
position = "{228, -11}";
},
{
name = top;
position = "{211, 591}";
},
{
name = topright;
position = "{328, 591}";
}
);
layerId = "5E1A2ACF-25BB-4872-A226-5327BC7330DB";
paths = (
{
closed = 1;
nodes = (
"277 -12 OFFCURVE",
"347 6 OFFCURVE",
"347 110 CURVE SMOOTH",
"347 591 LINE",
"335 591 LINE",
"335 106 LINE SMOOTH",
"335 14 OFFCURVE",
"266 -3 OFFCURVE",
"205 -3 CURVE SMOOTH",
"144 -3 OFFCURVE",
"86 14 OFFCURVE",
"86 106 CURVE SMOOTH",
"86 591 LINE",
"74 591 LINE",
"74 110 LINE SMOOTH",
"74 6 OFFCURVE",
"134 -12 OFFCURVE",
"205 -12 CURVE SMOOTH"
);
}
);
width = 421;
}
);
leftKerningGroup = U;
leftMetricsKey = "=H-4";
note = U;
rightKerningGroup = U;
rightMetricsKey = "=H-4";
unicode = 0055;
},
{
glyphname = V;
lastChange = "2021-12-09 03:35:29 +0000";
layers = (
{
layerId = "5E1A2ACF-25BB-4872-A226-5327BC7330DB";
paths = (
{
closed = 1;
nodes = (
"165 0 LINE",
"287 591 LINE",
"275 591 LINE",
"159 24 LINE",
"37 591 LINE",
"25 591 LINE",
"152 0 LINE"
);
}
);
width = 311;
}
);
leftKerningGroup = V;
note = V;
rightKerningGroup = V;
unicode = 0056;
},
{
glyphname = W;
lastChange = "2021-12-09 03:50:25 +0000";
layers = (
{
anchors = (
{
name = bottom;
position = "{258, 0}";
},
{
name = top;
position = "{258, 591}";
}
);
background = {
paths = (
{
closed = 1;
nodes = (
"25 591 LINE",
"57 391 OFFCURVE",
"93 201 OFFCURVE",
"125 0 CURVE",
"137 0 LINE",
"258 565 LINE",
"375 0 LINE",
"390 0 LINE",
"422 201 OFFCURVE",
"458 390 OFFCURVE",
"490 591 CURVE",
"477 591 LINE",
"382 38 LINE",
"265 591 LINE",
"251 591 LINE",
"133 38 LINE",
"38 591 LINE"
);
},
{
closed = 1;
nodes = (
"25 591 LINE",
"152 0 LINE",
"165 0 LINE",
"287 591 LINE",
"275 591 LINE",
"159 24 LINE",
"37 591 LINE"
);
}
);
};
layerId = "5E1A2ACF-25BB-4872-A226-5327BC7330DB";
paths = (
{
closed = 1;
nodes = (
"137 0 LINE",
"258 569 LINE",
"375 0 LINE",
"390 0 LINE",
"422 201 OFFCURVE",
"458 390 OFFCURVE",
"490 591 CURVE",
"479 591 LINE",
"382 26 LINE",
"265 591 LINE",
"252 591 LINE",
"131 26 LINE",
"37 591 LINE",
"25 591 LINE",
"125 0 LINE"
);
}
);
width = 515;
}
);
leftKerningGroup = W;
note = W;
rightKerningGroup = W;
unicode = 0057;
},
{
glyphname = X;
lastChange = "2021-12-09 03:35:29 +0000";
layers = (
{
layerId = "5E1A2ACF-25BB-4872-A226-5327BC7330DB";
paths = (
{
closed = 1;
nodes = (
"37 0 LINE",
"135 292 LINE",
"153 292 LINE",
"249 0 LINE",
"264 0 LINE",
"164 298 LINE",
"266 591 LINE",
"252 591 LINE",
"153 303 LINE",
"135 303 LINE",
"47 591 LINE",
"33 591 LINE",
"125 298 LINE",
"22 0 LINE"
);
}
);
width = 288;
}
);
note = X;
unicode = 0058;
},
{
glyphname = Y;
lastChange = "2021-12-09 03:35:29 +0000";
layers = (
{
anchors = (
{
name = bottom;
position = "{137, 0}";
},
{
name = top;
position = "{138, 591}";
},
{
name = topleft;
position = "{30, 591}";
}
);
layerId = "5E1A2ACF-25BB-4872-A226-5327BC7330DB";
paths = (
{
closed = 1;
nodes = (
"131 0 LINE",
"143 0 LINE",
"143 251 LINE",
"268 591 LINE",
"253 591 LINE",
"138 269 LINE",
"35 591 LINE",
"20 591 LINE",
"131 253 LINE"
);
}
);
width = 288;
}
);
leftKerningGroup = Y;
note = Y;
rightKerningGroup = Y;
unicode = 0059;
},
{
glyphname = Z;
lastChange = "2021-12-09 03:35:29 +0000";
layers = (
{
anchors = (
{
name = bottom;
position = "{133, 0}";
},
{
name = center;
position = "{133, 296}";
},
{
name = top;
position = "{133, 591}";
}
);
layerId = "5E1A2ACF-25BB-4872-A226-5327BC7330DB";
paths = (
{
closed = 1;
nodes = (
"242 0 LINE",
"242 11 LINE",
"35 11 LINE",
"234 577 LINE",
"234 591 LINE",
"34 591 LINE",
"34 580 LINE",
"223 580 LINE",
"22 14 LINE",
"22 0 LINE"
);
}
);
width = 263;
}
);
leftKerningGroup = Z;
note = Z;
rightKerningGroup = Z;
unicode = 005A;
},
{
color = 6;
glyphname = a;
lastChange = "2021-12-10 04:01:42 +0000";
layers = (
{
anchors = (
{
name = bottom;
position = "{177, 0}";
},
{
name = ogonek;
position = "{290, 0}";
},
{
name = top;
position = "{177, 495}";
}
);
background = {
paths = (
{
closed = 1;
nodes = (
"188 -7 OFFCURVE",
"223 4 OFFCURVE",
"250 31 CURVE SMOOTH",
"263 46 OFFCURVE",
"273 62 OFFCURVE",
"279 79 CURVE",
"281 0 LINE",
"290 0 LINE",
"290 402 LINE SMOOTH",
"290 455 OFFCURVE",
"283 502 OFFCURVE",
"178 502 CURVE SMOOTH",
"82 502 OFFCURVE",
"62 452 OFFCURVE",
"62 377 CURVE SMOOTH",
"62 334 LINE",
"73 334 LINE",
"73 375 LINE SMOOTH",
"73 448 OFFCURVE",
"90 493 OFFCURVE",
"178 493 CURVE SMOOTH",
"228 493 OFFCURVE",
"279 481 OFFCURVE",
"279 414 CURVE SMOOTH",
"279 400 LINE SMOOTH",
"279 350 OFFCURVE",
"248 328 OFFCURVE",
"181 291 CURVE SMOOTH",
"144 270 OFFCURVE",
"51 237 OFFCURVE",
"51 146 CURVE SMOOTH",
"51 112 LINE SMOOTH",
"51 -3 OFFCURVE",
"111 -7 OFFCURVE",
"152 -7 CURVE SMOOTH"
);
},
{
closed = 1;
nodes = (
"117 3 OFFCURVE",
"62 5 OFFCURVE",
"62 112 CURVE SMOOTH",
"62 142 LINE SMOOTH",
"62 225 OFFCURVE",
"131 251 OFFCURVE",
"179 278 CURVE SMOOTH",
"223 303 OFFCURVE",
"265 323 OFFCURVE",
"279 357 CURVE",
"279 157 LINE SMOOTH",
"279 110 OFFCURVE",
"275 74 OFFCURVE",
"242 39 CURVE SMOOTH",
"218 14 OFFCURVE",
"187 3 OFFCURVE",
"154 3 CURVE SMOOTH"
);
},
{
closed = 1;
nodes = (
"188 -7 OFFCURVE",
"223 4 OFFCURVE",
"250 31 CURVE SMOOTH",
"263 46 OFFCURVE",
"272 62 OFFCURVE",
"278 79 CURVE",
"280 0 LINE",
"290 0 LINE",
"290 402 LINE SMOOTH",
"290 455 OFFCURVE",
"283 502 OFFCURVE",
"178 502 CURVE SMOOTH",
"82 502 OFFCURVE",
"62 452 OFFCURVE",
"62 377 CURVE SMOOTH",
"62 334 LINE",
"74 334 LINE",
"74 375 LINE SMOOTH",
"74 447 OFFCURVE",
"91 492 OFFCURVE",
"178 492 CURVE SMOOTH",
"228 492 OFFCURVE",
"278 480 OFFCURVE",
"278 414 CURVE SMOOTH",
"278 400 LINE SMOOTH",
"278 350 OFFCURVE",
"247 328 OFFCURVE",
"181 291 CURVE SMOOTH",
"144 270 OFFCURVE",
"51 237 OFFCURVE",
"51 146 CURVE SMOOTH",
"51 112 LINE SMOOTH",
"51 -3 OFFCURVE",
"111 -7 OFFCURVE",
"152 -7 CURVE SMOOTH"
);
},
{
closed = 1;
nodes = (
"117 3 OFFCURVE",
"63 5 OFFCURVE",
"63 112 CURVE SMOOTH",
"63 142 LINE SMOOTH",
"63 225 OFFCURVE",
"131 252 OFFCURVE",
"179 278 CURVE SMOOTH",
"223 302 OFFCURVE",
"264 323 OFFCURVE",
"278 357 CURVE",
"278 157 LINE SMOOTH",
"278 110 OFFCURVE",
"275 74 OFFCURVE",
"242 39 CURVE SMOOTH",
"218 14 OFFCURVE",
"187 3 OFFCURVE",
"154 3 CURVE SMOOTH"
);
}
);
};
layerId = "5E1A2ACF-25BB-4872-A226-5327BC7330DB";
paths = (
{
closed = 1;
nodes = (
"211 -7 OFFCURVE",
"257 20 OFFCURVE",
"278 79 CURVE",
"280 0 LINE",
"290 0 LINE",
"290 402 LINE SMOOTH",
"290 470 OFFCURVE",
"268 502 OFFCURVE",
"178 502 CURVE SMOOTH",
"82 502 OFFCURVE",
"62 452 OFFCURVE",
"62 377 CURVE SMOOTH",
"62 334 LINE",
"74 334 LINE",
"74 375 LINE SMOOTH",
"74 447 OFFCURVE",
"91 492 OFFCURVE",
"178 492 CURVE SMOOTH",
"253 492 OFFCURVE",
"278 464 OFFCURVE",
"278 414 CURVE SMOOTH",
"278 400 LINE SMOOTH",
"278 350 OFFCURVE",
"247 328 OFFCURVE",
"181 291 CURVE SMOOTH",
"144 270 OFFCURVE",
"51 237 OFFCURVE",
"51 146 CURVE SMOOTH",
"51 112 LINE SMOOTH",
"51 -3 OFFCURVE",
"112 -7 OFFCURVE",
"154 -7 CURVE SMOOTH"
);
},
{
closed = 1;
nodes = (
"118 3 OFFCURVE",
"63 5 OFFCURVE",
"63 112 CURVE SMOOTH",
"63 142 LINE SMOOTH",
"63 225 OFFCURVE",
"131 252 OFFCURVE",
"179 278 CURVE SMOOTH",
"223 302 OFFCURVE",
"264 323 OFFCURVE",
"278 357 CURVE",
"278 139 LINE SMOOTH",
"278 61 OFFCURVE",
"232 3 OFFCURVE",
"156 3 CURVE SMOOTH"
);
}
);
width = 344;
}
);
leftKerningGroup = a;
note = a;
rightKerningGroup = n;
rightMetricsKey = n;
unicode = 0061;
},
{
glyphname = ae;
lastChange = "2021-12-09 03:35:29 +0000";
layers = (
{
anchors = (
{
name = bottom;
position = "{278, 0}";
},
{
name = top;
position = "{295, 493}";
}
);
layerId = "5E1A2ACF-25BB-4872-A226-5327BC7330DB";
paths = (
{
closed = 1;
nodes = (
"195 -7 OFFCURVE",
"252 18 OFFCURVE",
"279 88 CURVE",
"281 0 LINE",
"290 0 LINE",
"290 47 LINE",
"303 16 OFFCURVE",
"332 -7 OFFCURVE",
"399 -7 CURVE SMOOTH",
"512 -7 OFFCURVE",
"518 62 OFFCURVE",
"518 124 CURVE SMOOTH",
"518 167 LINE",
"507 167 LINE",
"507 127 LINE SMOOTH",
"507 68 OFFCURVE",
"502 3 OFFCURVE",
"399 3 CURVE SMOOTH",
"306 3 OFFCURVE",
"290 56 OFFCURVE",
"290 109 CURVE SMOOTH",
"290 263 LINE",
"518 263 LINE",
"518 372 LINE SMOOTH",
"518 433 OFFCURVE",
"512 503 OFFCURVE",
"399 503 CURVE SMOOTH",
"328 503 OFFCURVE",
"299 476 OFFCURVE",
"287 441 CURVE",
"279 474 OFFCURVE",
"256 502 OFFCURVE",
"173 502 CURVE SMOOTH",
"61 502 OFFCURVE",
"62 429 OFFCURVE",
"62 369 CURVE SMOOTH",
"62 335 LINE",
"73 335 LINE",
"73 375 LINE SMOOTH",
"73 448 OFFCURVE",
"90 493 OFFCURVE",
"173 493 CURVE SMOOTH",
"277 493 OFFCURVE",
"279 433 OFFCURVE",
"279 417 CURVE SMOOTH",
"279 380 LINE SMOOTH",
"279 341 OFFCURVE",
"220 312 OFFCURVE",
"169 285 CURVE SMOOTH",
"105 250 OFFCURVE",
"51 223 OFFCURVE",
"51 133 CURVE SMOOTH",
"51 111 LINE SMOOTH",
"51 -3 OFFCURVE",
"111 -7 OFFCURVE",
"151 -7 CURVE SMOOTH"
);
},
{
closed = 1;
nodes = (
"98 3 OFFCURVE",
"62 19 OFFCURVE",
"62 114 CURVE SMOOTH",
"62 149 LINE SMOOTH",
"62 217 OFFCURVE",
"143 259 OFFCURVE",
"172 275 CURVE SMOOTH",
"223 302 OFFCURVE",
"267 324 OFFCURVE",
"279 356 CURVE",
"279 129 LINE SMOOTH",
"279 74 OFFCURVE",
"226 3 OFFCURVE",
"151 3 CURVE SMOOTH"
);
},
{
closed = 1;
nodes = (
"290 273 LINE",
"290 369 LINE SMOOTH",
"290 428 OFFCURVE",
"295 493 OFFCURVE",
"399 493 CURVE SMOOTH",
"502 493 OFFCURVE",
"507 428 OFFCURVE",
"507 369 CURVE SMOOTH",
"507 273 LINE"
);
}
);
width = 562;
}
);
leftKerningGroup = a;
note = ae;
rightKerningGroup = e;
unicode = 00E6;
},
{
glyphname = b;
lastChange = "2021-12-09 03:37:52 +0000";
layers = (
{
layerId = "5E1A2ACF-25BB-4872-A226-5327BC7330DB";
paths = (
{
closed = 1;
nodes = (
"297 -7 OFFCURVE",
"303 62 OFFCURVE",
"303 124 CURVE SMOOTH",
"303 372 LINE SMOOTH",
"303 433 OFFCURVE",
"297 503 OFFCURVE",
"184 503 CURVE SMOOTH",
"117 503 OFFCURVE",
"88 480 OFFCURVE",
"75 449 CURVE",
"75 630 LINE",
"64 630 LINE",
"64 0 LINE",
"73 0 LINE",
"75 47 LINE",
"88 16 OFFCURVE",
"117 -7 OFFCURVE",
"184 -7 CURVE SMOOTH"
);
},
{
closed = 1;
nodes = (
"80 3 OFFCURVE",
"75 68 OFFCURVE",
"75 127 CURVE SMOOTH",
"75 387 LINE SMOOTH",
"75 440 OFFCURVE",
"91 493 OFFCURVE",
"184 493 CURVE SMOOTH",
"287 493 OFFCURVE",
"292 428 OFFCURVE",
"292 369 CURVE SMOOTH",
"292 127 LINE SMOOTH",
"292 68 OFFCURVE",
"287 3 OFFCURVE",
"184 3 CURVE SMOOTH"
);
}
);
width = 352;
}
);
leftKerningGroup = b;
leftMetricsKey = n;
note = b;
rightKerningGroup = o;
rightMetricsKey = o;
unicode = 0062;
},
{
glyphname = c;
lastChange = "2021-12-09 03:38:17 +0000";
layers = (
{
anchors = (
{
name = bottom;
position = "{166, 0}";
},
{
name = top;
position = "{166, 495}";
}
);
layerId = "5E1A2ACF-25BB-4872-A226-5327BC7330DB";
paths = (
{
closed = 1;
nodes = (
"282 -7 OFFCURVE",
"288 62 OFFCURVE",
"288 124 CURVE SMOOTH",
"288 167 LINE",
"277 167 LINE",
"277 127 LINE SMOOTH",
"277 68 OFFCURVE",
"272 3 OFFCURVE",
"169 3 CURVE SMOOTH",
"65 3 OFFCURVE",
"60 68 OFFCURVE",
"60 127 CURVE SMOOTH",
"60 369 LINE SMOOTH",
"60 428 OFFCURVE",
"65 493 OFFCURVE",
"169 493 CURVE SMOOTH",
"272 493 OFFCURVE",
"277 428 OFFCURVE",
"277 369 CURVE SMOOTH",
"277 328 LINE",
"288 328 LINE",
"288 372 LINE SMOOTH",
"288 433 OFFCURVE",
"282 503 OFFCURVE",
"169 503 CURVE SMOOTH",
"54 503 OFFCURVE",
"49 433 OFFCURVE",
"49 372 CURVE SMOOTH",
"49 124 LINE SMOOTH",
"49 62 OFFCURVE",
"54 -7 OFFCURVE",
"169 -7 CURVE SMOOTH"
);
}
);
width = 327;
}
);
leftKerningGroup = o;
leftMetricsKey = o;
note = c;
rightKerningGroup = c;
rightMetricsKey = "=o-10";
unicode = 0063;
},
{
glyphname = d;
lastChange = "2021-12-10 02:33:29 +0000";
layers = (
{
anchors = (
{
name = bottom;
position = "{171, 0}";
},
{
name = center;
position = "{171, 248}";
},
{
name = top;
position = "{171, 630}";
},
{
name = topright;
position = "{333, 513}";
}
);
layerId = "5E1A2ACF-25BB-4872-A226-5327BC7330DB";
paths = (
{
closed = 1;
nodes = (
"201 -7 OFFCURVE",
"226 -1 OFFCURVE",
"244 12 CURVE SMOOTH",
"259 23 OFFCURVE",
"270 38 OFFCURVE",
"277 59 CURVE",
"279 0 LINE",
"288 0 LINE",
"288 630 LINE",
"277 630 LINE",
"277 466 LINE",
"269 474 OFFCURVE",
"237 503 OFFCURVE",
"168 503 CURVE SMOOTH",
"55 503 OFFCURVE",
"49 433 OFFCURVE",
"49 372 CURVE SMOOTH",
"49 124 LINE SMOOTH",
"49 62 OFFCURVE",
"55 -7 OFFCURVE",
"168 -7 CURVE SMOOTH"
);
},
{
closed = 1;
nodes = (
"65 3 OFFCURVE",
"60 68 OFFCURVE",
"60 127 CURVE SMOOTH",
"60 369 LINE SMOOTH",
"60 428 OFFCURVE",
"65 493 OFFCURVE",
"168 493 CURVE SMOOTH",
"250 493 OFFCURVE",
"277 452 OFFCURVE",
"277 452 CURVE",
"277 127 LINE SMOOTH",
"277 98 OFFCURVE",
"275 46 OFFCURVE",
"235 19 CURVE SMOOTH",
"218 8 OFFCURVE",
"195 3 OFFCURVE",
"168 3 CURVE SMOOTH"
);
}
);
width = 352;
}
);
leftKerningGroup = o;
leftMetricsKey = o;
note = d;
rightKerningGroup = d;
unicode = 0064;
},
{
glyphname = eth;
lastChange = "2021-12-09 03:35:29 +0000";
layers = (
{
layerId = "5E1A2ACF-25BB-4872-A226-5327BC7330DB";
paths = (
{
closed = 1;
nodes = (
"266 -7 OFFCURVE",
"288 43 OFFCURVE",
"288 123 CURVE SMOOTH",
"288 449 LINE SMOOTH",
"288 516 OFFCURVE",
"285 567 OFFCURVE",
"274 599 CURVE SMOOTH",
"258 646 OFFCURVE",
"226 658 OFFCURVE",
"191 661 CURVE",
"216 707 LINE",
"204 707 LINE",
"180 661 LINE",
"141 660 OFFCURVE",
"111 653 OFFCURVE",
"92 646 CURVE",
"92 636 LINE",
"110 641 OFFCURVE",
"149 651 OFFCURVE",
"170 651 CURVE SMOOTH",
"174 651 LINE",
"143 591 LINE",
"155 591 LINE",
"186 650 LINE",
"266 645 OFFCURVE",
"271 585 OFFCURVE",
"276 463 CURVE",
"256 486 OFFCURVE",
"223 503 OFFCURVE",
"168 503 CURVE SMOOTH",
"55 503 OFFCURVE",
"49 433 OFFCURVE",
"49 372 CURVE SMOOTH",
"49 124 LINE SMOOTH",
"49 62 OFFCURVE",
"55 -7 OFFCURVE",
"168 -7 CURVE SMOOTH"
);
},
{
closed = 1;
nodes = (
"65 3 OFFCURVE",
"60 68 OFFCURVE",
"60 127 CURVE SMOOTH",
"60 369 LINE SMOOTH",
"60 428 OFFCURVE",
"65 493 OFFCURVE",
"168 493 CURVE SMOOTH",
"245 493 OFFCURVE",
"268 454 OFFCURVE",
"277 445 CURVE",
"277 127 LINE SMOOTH",
"277 71 OFFCURVE",
"272 3 OFFCURVE",
"168 3 CURVE SMOOTH"
);
}
);
width = 337;
}
);
leftKerningGroup = o;
note = eth;
rightKerningGroup = d;
unicode = 00F0;
},
{
glyphname = e;
lastChange = "2021-12-10 04:01:57 +0000";
layers = (
{
anchors = (
{
name = bottom;
position = "{167, 0}";
},
{
name = ogonek;
position = "{236, 6}";
},
{
name = top;
position = "{173, 495}";
}
);
layerId = "5E1A2ACF-25BB-4872-A226-5327BC7330DB";
paths = (
{
closed = 1;
nodes = (
"282 -6 OFFCURVE",
"288 63 OFFCURVE",
"288 125 CURVE SMOOTH",
"288 168 LINE",
"277 168 LINE",
"277 128 LINE SMOOTH",
"277 69 OFFCURVE",
"272 4 OFFCURVE",
"169 4 CURVE SMOOTH",
"65 4 OFFCURVE",
"60 69 OFFCURVE",
"60 128 CURVE SMOOTH",
"60 262 LINE",
"288 262 LINE",
"288 373 LINE SMOOTH",
"288 434 OFFCURVE",
"282 504 OFFCURVE",
"169 504 CURVE SMOOTH",
"54 504 OFFCURVE",
"49 434 OFFCURVE",
"49 373 CURVE SMOOTH",
"49 125 LINE SMOOTH",
"49 63 OFFCURVE",
"54 -6 OFFCURVE",
"169 -6 CURVE SMOOTH"
);
},
{
closed = 1;
nodes = (
"60 272 LINE",
"60 370 LINE SMOOTH",
"60 429 OFFCURVE",
"65 494 OFFCURVE",
"169 494 CURVE SMOOTH",
"272 494 OFFCURVE",
"277 429 OFFCURVE",
"277 370 CURVE SMOOTH",
"277 272 LINE"
);
}
);
width = 334;
}
);
leftKerningGroup = o;
leftMetricsKey = o;
note = e;
rightKerningGroup = e;
rightMetricsKey = "=o-3";
unicode = 0065;
},
{
glyphname = f;
lastChange = "2021-12-09 03:49:30 +0000";
layers = (
{
background = {
paths = (
{
closed = 1;
nodes = (
"72 0 LINE",
"72 461 LINE",
"190 461 LINE",
"190 471 LINE",
"72 471 LINE",
"72 552 LINE SMOOTH",
"72 587 OFFCURVE",
"83 627 OFFCURVE",
"130 627 CURVE SMOOTH",
"147 627 OFFCURVE",
"162 626 OFFCURVE",
"173 625 CURVE SMOOTH",
"190 623 LINE",
"190 632 LINE",
"177 635 OFFCURVE",
"156 636 OFFCURVE",
"131 636 CURVE SMOOTH",
"79 636 OFFCURVE",
"61 603 OFFCURVE",
"61 547 CURVE SMOOTH",
"61 471 LINE",
"30 471 LINE",
"30 461 LINE",
"61 461 LINE",
"61 0 LINE"
);
}
);
};
layerId = "5E1A2ACF-25BB-4872-A226-5327BC7330DB";
paths = (
{
closed = 1;
nodes = (
"72 0 LINE",
"72 462 LINE",
"190 462 LINE",
"190 471 LINE",
"72 471 LINE",
"72 552 LINE SMOOTH",
"72 587 OFFCURVE",
"83 627 OFFCURVE",
"130 627 CURVE SMOOTH",
"147 627 OFFCURVE",
"162 626 OFFCURVE",
"173 625 CURVE SMOOTH",
"190 623 LINE",
"190 632 LINE",
"177 635 OFFCURVE",
"156 636 OFFCURVE",
"131 636 CURVE SMOOTH",
"79 636 OFFCURVE",
"61 603 OFFCURVE",
"61 547 CURVE SMOOTH",
"61 471 LINE",
"30 471 LINE",
"30 462 LINE",
"61 462 LINE",
"61 0 LINE"
);
}
);
width = 175;
}
);
note = f;
unicode = 0066;
},
{
glyphname = g;
lastChange = "2021-12-09 03:39:00 +0000";
layers = (
{
anchors = (
{
name = bottom;
position = "{170, -116}";
},
{
name = top;
position = "{178, 495}";
}
);
layerId = "5E1A2ACF-25BB-4872-A226-5327BC7330DB";
paths = (
{
closed = 1;
nodes = (
"210 -115 OFFCURVE",
"288 -96 OFFCURVE",
"288 0 CURVE SMOOTH",
"288 495 LINE",
"280 495 LINE",
"277 466 LINE",
"269 478 OFFCURVE",
"235 503 OFFCURVE",
"168 503 CURVE SMOOTH",
"55 503 OFFCURVE",
"49 433 OFFCURVE",
"49 372 CURVE SMOOTH",
"49 155 LINE SMOOTH",
"49 93 OFFCURVE",
"55 24 OFFCURVE",
"168 24 CURVE SMOOTH",
"235 24 OFFCURVE",
"264 47 OFFCURVE",
"277 78 CURVE",
"277 8 LINE SMOOTH",
"277 -103 OFFCURVE",
"182 -104 OFFCURVE",
"146 -104 CURVE SMOOTH",
"135 -104 OFFCURVE",
"125 -103 OFFCURVE",
"116 -101 CURVE SMOOTH",
"100 -97 LINE",
"100 -108 LINE",
"107 -111 OFFCURVE",
"128 -115 OFFCURVE",
"149 -115 CURVE SMOOTH"
);
},
{
closed = 1;
nodes = (
"65 34 OFFCURVE",
"60 99 OFFCURVE",
"60 158 CURVE SMOOTH",
"60 369 LINE SMOOTH",
"60 428 OFFCURVE",
"65 493 OFFCURVE",
"168 493 CURVE SMOOTH",
"253 493 OFFCURVE",
"268 454 OFFCURVE",
"277 445 CURVE",
"277 158 LINE SMOOTH",
"277 99 OFFCURVE",
"272 34 OFFCURVE",
"168 34 CURVE SMOOTH"
);
}
);
width = 342;
}
);
leftKerningGroup = o;
leftMetricsKey = o;
note = g;
rightKerningGroup = g;
unicode = 0067;
},
{
glyphname = h;
lastChange = "2021-12-09 03:35:29 +0000";
layers = (
{
anchors = (
{
name = bottom;
position = "{183, 0}";
},
{
name = center;
position = "{104, 545}";
},
{
name = top;
position = "{70, 630}";
}
);
layerId = "5E1A2ACF-25BB-4872-A226-5327BC7330DB";
paths = (
{
closed = 1;
nodes = (
"76 0 LINE",
"76 417 LINE",
"81 452 OFFCURVE",
"112 493 OFFCURVE",
"185 493 CURVE SMOOTH",
"289 493 OFFCURVE",
"292 428 OFFCURVE",
"292 369 CURVE SMOOTH",
"292 0 LINE",
"304 0 LINE",
"304 372 LINE SMOOTH",
"304 433 OFFCURVE",
"298 503 OFFCURVE",
"185 503 CURVE SMOOTH",
"122 503 OFFCURVE",
"91 476 OFFCURVE",
"76 445 CURVE",
"76 630 LINE",
"64 630 LINE",
"64 0 LINE"
);
}
);
width = 358;
}
);
leftKerningGroup = n;
leftMetricsKey = n;
note = h;
rightKerningGroup = n;
rightMetricsKey = n;
unicode = 0068;
},
{
glyphname = idotless;
lastChange = "2021-12-10 05:21:28 +0000";
layers = (
{
anchors = (
{
name = bottom;
position = "{70, 0}";
},
{
name = ogonek;
position = "{75, 0}";
},
{
name = top;
position = "{70, 495}";
}
);
layerId = "5E1A2ACF-25BB-4872-A226-5327BC7330DB";
paths = (
{
closed = 1;
nodes = (
"64 0 LINE",
"75 0 LINE",
"75 495 LINE",
"64 495 LINE"
);
}
);
width = 139;
}
);
note = dotlessi;
unicode = 0131;
},
{
glyphname = jdotless;
lastChange = "2021-12-10 05:21:43 +0000";
layers = (
{
anchors = (
{
name = bottom;
position = "{54, -116}";
},
{
name = top;
position = "{66, 495}";
}
);
layerId = "5E1A2ACF-25BB-4872-A226-5327BC7330DB";
paths = (
{
closed = 1;
nodes = (
"-12 -115 LINE SMOOTH",
"37 -115 OFFCURVE",
"72 -91 OFFCURVE",
"72 -31 CURVE SMOOTH",
"72 495 LINE",
"61 495 LINE",
"61 -32 LINE SMOOTH",
"61 -85 OFFCURVE",
"25 -106 OFFCURVE",
"-27 -106 CURVE SMOOTH",
"-34 -106 OFFCURVE",
"-41 -105 OFFCURVE",
"-48 -104 CURVE",
"-48 -114 LINE",
"-40 -115 OFFCURVE",
"-31 -115 OFFCURVE",
"-22 -115 CURVE SMOOTH"
);
}
);
width = 126;
}
);
leftKerningGroup = j;
rightKerningGroup = j;
unicode = 0237;
},
{
glyphname = k;
lastChange = "2021-12-09 03:39:40 +0000";
layers = (
{
anchors = (
{
name = bottom;
position = "{159, 0}";
},
{
name = top;
position = "{146, 630}";
}
);
layerId = "5E1A2ACF-25BB-4872-A226-5327BC7330DB";
paths = (
{
closed = 1;
nodes = (
"64 0 LINE",
"75 0 LINE",
"75 283 LINE",
"110 283 LINE",
"260 0 LINE",
"273 0 LINE",
"121 287 LINE",
"271 495 LINE",
"256 495 LINE",
"111 293 LINE",
"75 293 LINE",
"75 630 LINE",
"64 630 LINE"
);
}
);
width = 289;
}
);
leftKerningGroup = b;
leftMetricsKey = n;
note = k;
rightKerningGroup = k;
unicode = 006B;
},
{
glyphname = kgreenlandic;
lastChange = "2021-12-09 03:35:29 +0000";
layers = (
{
layerId = "5E1A2ACF-25BB-4872-A226-5327BC7330DB";
paths = (
{
closed = 1;
nodes = (
"64 0 LINE",
"75 0 LINE",
"75 204 LINE",
"77 213 OFFCURVE",
"99 261 OFFCURVE",
"123 300 CURVE",
"271 0 LINE",
"283 0 LINE",
"129 311 LINE",
"172 378 OFFCURVE",
"230 447 OFFCURVE",
"291 468 CURVE",
"291 475 LINE",
"239 462 OFFCURVE",
"139 376 OFFCURVE",
"75 224 CURVE",
"75 631 LINE",
"64 631 LINE"
);
}
);
width = 310;
}
);
leftKerningGroup = b;
note = kgreenlandic;
rightKerningGroup = k;
unicode = 0138;
},
{
glyphname = l;
lastChange = "2021-12-10 02:33:40 +0000";
layers = (
{
anchors = (
{
name = bottom;
position = "{70, 0}";
},
{
name = center;
position = "{70, 315}";
},
{
name = top;
position = "{70, 630}";
},
{
name = topright;
position = "{113, 516}";
}
);
layerId = "5E1A2ACF-25BB-4872-A226-5327BC7330DB";
paths = (
{
closed = 1;
nodes = (
"64 0 LINE",
"75 0 LINE",
"75 630 LINE",
"64 630 LINE"
);
}
);
width = 139;
}
);
leftKerningGroup = b;
leftMetricsKey = n;
note = l;
rightKerningGroup = d;
rightMetricsKey = d;
unicode = 006C;
},
{
glyphname = lslash;
lastChange = "2021-12-09 03:35:29 +0000";
layers = (
{
layerId = "5E1A2ACF-25BB-4872-A226-5327BC7330DB";
paths = (
{
closed = 1;
nodes = (
"126 0 LINE",
"137 0 LINE",
"137 200 LINE",
"217 237 LINE",
"217 247 LINE",
"137 211 LINE",
"137 630 LINE",
"126 630 LINE",
"126 206 LINE",
"49 171 LINE",
"49 160 LINE",
"126 195 LINE"
);
}
);
width = 266;
}
);
leftKerningGroup = b;
note = lslash;
unicode = 0142;
},
{
glyphname = m;
lastChange = "2021-12-09 03:35:29 +0000";
layers = (
{
layerId = "5E1A2ACF-25BB-4872-A226-5327BC7330DB";
paths = (
{
closed = 1;
nodes = (
"76 0 LINE",
"76 417 LINE",
"81 452 OFFCURVE",
"112 493 OFFCURVE",
"185 493 CURVE SMOOTH",
"288 493 OFFCURVE",
"289 428 OFFCURVE",
"289 369 CURVE SMOOTH",
"289 0 LINE",
"301 0 LINE",
"301 421 LINE",
"320 469 OFFCURVE",
"356 493 OFFCURVE",
"410 493 CURVE SMOOTH",
"513 493 OFFCURVE",
"514 428 OFFCURVE",
"514 369 CURVE SMOOTH",
"514 0 LINE",
"526 0 LINE",
"526 372 LINE SMOOTH",
"526 433 OFFCURVE",
"523 503 OFFCURVE",
"410 503 CURVE SMOOTH",
"362 503 OFFCURVE",
"319 485 OFFCURVE",
"296 438 CURVE",
"285 474 OFFCURVE",
"258 503 OFFCURVE",
"185 503 CURVE SMOOTH",
"122 503 OFFCURVE",
"91 476 OFFCURVE",
"76 445 CURVE",
"73 495 LINE",
"64 495 LINE",
"64 0 LINE"
);
}
);
width = 580;
}
);
leftKerningGroup = n;
leftMetricsKey = n;
note = m;
rightKerningGroup = n;
rightMetricsKey = n;
unicode = 006D;
},
{
glyphname = n;
lastChange = "2021-12-09 03:35:29 +0000";
layers = (
{
anchors = (
{
name = bottom;
position = "{183, 0}";
},
{
name = top;
position = "{183, 495}";
}
);
layerId = "5E1A2ACF-25BB-4872-A226-5327BC7330DB";
paths = (
{
closed = 1;
nodes = (
"76 0 LINE",
"76 417 LINE",
"81 452 OFFCURVE",
"112 493 OFFCURVE",
"185 493 CURVE SMOOTH",
"289 493 OFFCURVE",
"292 428 OFFCURVE",
"292 369 CURVE SMOOTH",
"292 0 LINE",
"304 0 LINE",
"304 372 LINE SMOOTH",
"304 433 OFFCURVE",
"298 503 OFFCURVE",
"185 503 CURVE SMOOTH",
"122 503 OFFCURVE",
"91 476 OFFCURVE",
"76 445 CURVE",
"73 495 LINE",
"64 495 LINE",
"64 0 LINE"
);
}
);
width = 358;
}
);
leftKerningGroup = n;
note = n;
rightKerningGroup = n;
unicode = 006E;
},
{
glyphname = eng;
lastChange = "2021-12-09 03:35:29 +0000";
layers = (
{
layerId = "5E1A2ACF-25BB-4872-A226-5327BC7330DB";
paths = (
{
closed = 1;
nodes = (
"205 -115 LINE SMOOTH",
"254 -112 OFFCURVE",
"289 -91 OFFCURVE",
"289 -31 CURVE SMOOTH",
"289 372 LINE SMOOTH",
"289 433 OFFCURVE",
"283 503 OFFCURVE",
"170 503 CURVE SMOOTH",
"107 503 OFFCURVE",
"76 476 OFFCURVE",
"61 445 CURVE",
"58 495 LINE",
"49 495 LINE",
"49 0 LINE",
"61 0 LINE",
"61 417 LINE",
"66 452 OFFCURVE",
"97 493 OFFCURVE",
"170 493 CURVE SMOOTH",
"274 493 OFFCURVE",
"277 428 OFFCURVE",
"277 369 CURVE SMOOTH",
"277 -32 LINE SMOOTH",
"277 -85 OFFCURVE",
"242 -106 OFFCURVE",
"190 -106 CURVE SMOOTH",
"183 -106 OFFCURVE",
"176 -105 OFFCURVE",
"169 -104 CURVE",
"169 -114 LINE",
"177 -115 OFFCURVE",
"186 -115 OFFCURVE",
"195 -115 CURVE SMOOTH"
);
}
);
width = 339;
}
);
leftKerningGroup = n;
note = eng;
rightKerningGroup = n;
unicode = 014B;
},
{
glyphname = o;
lastChange = "2021-12-09 03:35:29 +0000";
layers = (
{
anchors = (
{
name = bottom;
position = "{169, 0}";
},
{
name = center;
position = "{169, 248}";
},
{
name = ogonek;
position = "{192, 0}";
},
{
name = top;
position = "{169, 495}";
},
{
name = topright;
position = "{203, 495}";
}
);
layerId = "5E1A2ACF-25BB-4872-A226-5327BC7330DB";
paths = (
{
closed = 1;
nodes = (
"282 -7 OFFCURVE",
"288 62 OFFCURVE",
"288 124 CURVE SMOOTH",
"288 372 LINE SMOOTH",
"288 433 OFFCURVE",
"282 503 OFFCURVE",
"169 503 CURVE SMOOTH",
"54 503 OFFCURVE",
"49 433 OFFCURVE",
"49 372 CURVE SMOOTH",
"49 124 LINE SMOOTH",
"49 62 OFFCURVE",
"54 -7 OFFCURVE",
"169 -7 CURVE SMOOTH"
);
},
{
closed = 1;
nodes = (
"65 3 OFFCURVE",
"60 68 OFFCURVE",
"60 127 CURVE SMOOTH",
"60 369 LINE SMOOTH",
"60 428 OFFCURVE",
"65 493 OFFCURVE",
"169 493 CURVE SMOOTH",
"272 493 OFFCURVE",
"277 428 OFFCURVE",
"277 369 CURVE SMOOTH",
"277 127 LINE SMOOTH",
"277 68 OFFCURVE",
"272 3 OFFCURVE",
"169 3 CURVE SMOOTH"
);
}
);
width = 337;
}
);
leftKerningGroup = o;
note = o;
rightKerningGroup = o;
unicode = 006F;
},
{
glyphname = oslash;
lastChange = "2021-12-09 03:35:29 +0000";
layers = (
{
anchors = (
{
name = top;
position = "{180, 495}";
}
);
layerId = "5E1A2ACF-25BB-4872-A226-5327BC7330DB";
paths = (
{
closed = 1;
nodes = (
"28 -46 LINE",
"73 42 LINE",
"88 13 OFFCURVE",
"116 -7 OFFCURVE",
"180 -7 CURVE SMOOTH",
"293 -7 OFFCURVE",
"299 62 OFFCURVE",
"299 124 CURVE SMOOTH",
"299 372 LINE SMOOTH",
"299 401 OFFCURVE",
"298 433 OFFCURVE",
"283 457 CURVE",
"330 548 LINE",
"318 548 LINE",
"277 467 LINE",
"260 488 OFFCURVE",
"231 503 OFFCURVE",
"180 503 CURVE SMOOTH",
"65 503 OFFCURVE",
"60 433 OFFCURVE",
"60 372 CURVE SMOOTH",
"60 124 LINE SMOOTH",
"60 101 OFFCURVE",
"61 77 OFFCURVE",
"68 56 CURVE",
"16 -46 LINE"
);
},
{
closed = 1;
nodes = (
"119 3 OFFCURVE",
"92 25 OFFCURVE",
"80 56 CURVE",
"147 187 OFFCURVE",
"209 313 OFFCURVE",
"277 444 CURVE",
"288 421 OFFCURVE",
"288 396 OFFCURVE",
"288 369 CURVE SMOOTH",
"288 127 LINE SMOOTH",
"288 68 OFFCURVE",
"283 3 OFFCURVE",
"180 3 CURVE SMOOTH"
);
},
{
closed = 1;
nodes = (
"71 88 OFFCURVE",
"71 108 OFFCURVE",
"71 127 CURVE SMOOTH",
"71 369 LINE SMOOTH",
"71 428 OFFCURVE",
"76 493 OFFCURVE",
"180 493 CURVE SMOOTH",
"229 493 OFFCURVE",
"256 478 OFFCURVE",
"271 455 CURVE",
"75 71 LINE"
);
}
);
width = 352;
}
);
leftKerningGroup = o;
note = oslash;
rightKerningGroup = o;
unicode = 00F8;
},
{
glyphname = oe;
lastChange = "2021-12-09 03:35:29 +0000";
layers = (
{
layerId = "5E1A2ACF-25BB-4872-A226-5327BC7330DB";
paths = (
{
closed = 1;
nodes = (
"245 -7 OFFCURVE",
"271 24 OFFCURVE",
"282 64 CURVE",
"293 24 OFFCURVE",
"320 -7 OFFCURVE",
"397 -7 CURVE SMOOTH",
"510 -7 OFFCURVE",
"516 62 OFFCURVE",
"516 124 CURVE SMOOTH",
"516 167 LINE",
"505 167 LINE",
"505 127 LINE SMOOTH",
"505 68 OFFCURVE",
"500 3 OFFCURVE",
"397 3 CURVE SMOOTH",
"304 3 OFFCURVE",
"288 56 OFFCURVE",
"288 110 CURVE SMOOTH",
"288 263 LINE",
"516 263 LINE",
"516 372 LINE SMOOTH",
"516 433 OFFCURVE",
"510 503 OFFCURVE",
"397 503 CURVE SMOOTH",
"320 503 OFFCURVE",
"292 471 OFFCURVE",
"282 432 CURVE",
"272 471 OFFCURVE",
"244 503 OFFCURVE",
"169 503 CURVE SMOOTH",
"54 503 OFFCURVE",
"49 433 OFFCURVE",
"49 372 CURVE SMOOTH",
"49 124 LINE SMOOTH",
"49 62 OFFCURVE",
"54 -7 OFFCURVE",
"169 -7 CURVE SMOOTH"
);
},
{
closed = 1;
nodes = (
"65 3 OFFCURVE",
"60 68 OFFCURVE",
"60 127 CURVE SMOOTH",
"60 369 LINE SMOOTH",
"60 428 OFFCURVE",
"65 493 OFFCURVE",
"169 493 CURVE SMOOTH",
"261 493 OFFCURVE",
"277 440 OFFCURVE",
"277 386 CURVE SMOOTH",
"277 127 LINE SMOOTH",
"277 68 OFFCURVE",
"272 3 OFFCURVE",
"169 3 CURVE SMOOTH"
);
},
{
closed = 1;
nodes = (
"288 273 LINE",
"288 386 LINE SMOOTH",
"288 440 OFFCURVE",
"304 493 OFFCURVE",
"397 493 CURVE SMOOTH",
"500 493 OFFCURVE",
"505 428 OFFCURVE",
"505 369 CURVE SMOOTH",
"505 273 LINE"
);
}
);
width = 560;
}
);
leftKerningGroup = o;
note = oe;
rightKerningGroup = e;
unicode = 0153;
},
{
glyphname = p;
lastChange = "2021-12-09 03:35:44 +0000";
layers = (
{
layerId = "5E1A2ACF-25BB-4872-A226-5327BC7330DB";
paths = (
{
closed = 1;
nodes = (
"75 -116 LINE",
"75 47 LINE",
"88 16 OFFCURVE",
"117 -7 OFFCURVE",
"184 -7 CURVE SMOOTH",
"297 -7 OFFCURVE",
"303 62 OFFCURVE",
"303 124 CURVE SMOOTH",
"303 372 LINE SMOOTH",
"303 433 OFFCURVE",
"297 503 OFFCURVE",
"184 503 CURVE SMOOTH",
"115 503 OFFCURVE",
"86 472 OFFCURVE",
"75 436 CURVE",
"72 495 LINE",
"64 495 LINE",
"64 -116 LINE"
);
},
{
closed = 1;
nodes = (
"80 3 OFFCURVE",
"75 68 OFFCURVE",
"75 127 CURVE SMOOTH",
"75 363 LINE SMOOTH",
"75 428 OFFCURVE",
"88 493 OFFCURVE",
"184 493 CURVE SMOOTH",
"287 493 OFFCURVE",
"292 428 OFFCURVE",
"292 369 CURVE SMOOTH",
"292 127 LINE SMOOTH",
"292 68 OFFCURVE",
"287 3 OFFCURVE",
"184 3 CURVE SMOOTH"
);
}
);
width = 352;
}
);
leftKerningGroup = n;
leftMetricsKey = n;
note = p;
rightKerningGroup = o;
rightMetricsKey = o;
unicode = 0070;
},
{
glyphname = thorn;
lastChange = "2021-12-09 03:35:29 +0000";
layers = (
{
layerId = "5E1A2ACF-25BB-4872-A226-5327BC7330DB";
paths = (
{
closed = 1;
nodes = (
"75 -116 LINE",
"75 47 LINE",
"88 16 OFFCURVE",
"117 -7 OFFCURVE",
"184 -7 CURVE SMOOTH",
"297 -7 OFFCURVE",
"303 62 OFFCURVE",
"303 124 CURVE SMOOTH",
"303 372 LINE SMOOTH",
"303 433 OFFCURVE",
"297 503 OFFCURVE",
"184 503 CURVE SMOOTH",
"117 503 OFFCURVE",
"88 480 OFFCURVE",
"75 449 CURVE",
"75 630 LINE",
"64 630 LINE",
"64 -116 LINE"
);
},
{
closed = 1;
nodes = (
"80 3 OFFCURVE",
"75 68 OFFCURVE",
"75 127 CURVE SMOOTH",
"75 387 LINE SMOOTH",
"75 440 OFFCURVE",
"91 493 OFFCURVE",
"184 493 CURVE SMOOTH",
"287 493 OFFCURVE",
"292 428 OFFCURVE",
"292 369 CURVE SMOOTH",
"292 127 LINE SMOOTH",
"292 68 OFFCURVE",
"287 3 OFFCURVE",
"184 3 CURVE SMOOTH"
);
}
);
width = 352;
}
);
note = thorn;
rightMetricsKey = o;
unicode = 00FE;
},
{
glyphname = q;
lastChange = "2021-12-09 03:35:29 +0000";
layers = (
{
layerId = "5E1A2ACF-25BB-4872-A226-5327BC7330DB";
paths = (
{
closed = 1;
nodes = (
"288 -116 LINE",
"288 495 LINE",
"281 495 LINE",
"277 449 LINE",
"264 480 OFFCURVE",
"235 503 OFFCURVE",
"168 503 CURVE SMOOTH",
"55 503 OFFCURVE",
"49 433 OFFCURVE",
"49 372 CURVE SMOOTH",
"49 124 LINE SMOOTH",
"49 62 OFFCURVE",
"55 -7 OFFCURVE",
"168 -7 CURVE SMOOTH",
"235 -7 OFFCURVE",
"264 16 OFFCURVE",
"277 47 CURVE",
"277 -116 LINE"
);
},
{
closed = 1;
nodes = (
"65 3 OFFCURVE",
"60 68 OFFCURVE",
"60 127 CURVE SMOOTH",
"60 369 LINE SMOOTH",
"60 428 OFFCURVE",
"65 493 OFFCURVE",
"168 493 CURVE SMOOTH",
"261 493 OFFCURVE",
"277 440 OFFCURVE",
"277 387 CURVE SMOOTH",
"277 127 LINE SMOOTH",
"277 68 OFFCURVE",
"272 3 OFFCURVE",
"168 3 CURVE SMOOTH"
);
}
);
width = 352;
}
);
leftKerningGroup = o;
leftMetricsKey = o;
note = q;
rightKerningGroup = d;
rightMetricsKey = d;
unicode = 0071;
},
{
glyphname = r;
lastChange = "2021-12-09 03:35:29 +0000";
layers = (
{
anchors = (
{
name = bottom;
position = "{70, 0}";
},
{
name = top;
position = "{133, 495}";
}
);
layerId = "5E1A2ACF-25BB-4872-A226-5327BC7330DB";
paths = (
{
closed = 1;
nodes = (
"76 0 LINE",
"76 425 LINE",
"81 446 OFFCURVE",
"112 492 OFFCURVE",
"184 492 CURVE SMOOTH",
"199 492 OFFCURVE",
"211 491 OFFCURVE",
"222 490 CURVE",
"222 500 LINE",
"211 501 OFFCURVE",
"199 502 OFFCURVE",
"184 502 CURVE SMOOTH",
"141 502 OFFCURVE",
"95 488 OFFCURVE",
"76 449 CURVE",
"74 495 LINE",
"64 495 LINE",
"64 0 LINE"
);
}
);
width = 222;
}
);
leftKerningGroup = n;
leftMetricsKey = n;
note = r;
rightKerningGroup = r;
unicode = 0072;
},
{
glyphname = s;
lastChange = "2021-12-09 03:40:33 +0000";
layers = (
{
anchors = (
{
name = bottom;
position = "{160, 0}";
},
{
name = top;
position = "{163, 495}";
}
);
layerId = "5E1A2ACF-25BB-4872-A226-5327BC7330DB";
paths = (
{
closed = 1;
nodes = (
"219 -6 OFFCURVE",
"276 19 OFFCURVE",
"276 96 CURVE SMOOTH",
"276 134 LINE SMOOTH",
"276 217 OFFCURVE",
"210 238 OFFCURVE",
"151 265 CURVE SMOOTH",
"99 287 OFFCURVE",
"54 311 OFFCURVE",
"54 372 CURVE SMOOTH",
"54 404 LINE SMOOTH",
"54 455 OFFCURVE",
"92 492 OFFCURVE",
"158 492 CURVE SMOOTH",
"224 492 OFFCURVE",
"265 465 OFFCURVE",
"265 401 CURVE SMOOTH",
"265 336 LINE",
"277 336 LINE",
"277 401 LINE SMOOTH",
"277 473 OFFCURVE",
"227 502 OFFCURVE",
"158 502 CURVE SMOOTH",
"87 502 OFFCURVE",
"42 460 OFFCURVE",
"42 404 CURVE SMOOTH",
"42 370 LINE SMOOTH",
"42 304 OFFCURVE",
"98 275 OFFCURVE",
"149 254 CURVE SMOOTH",
"204 230 OFFCURVE",
"264 209 OFFCURVE",
"264 134 CURVE SMOOTH",
"264 96 LINE SMOOTH",
"264 28 OFFCURVE",
"218 4 OFFCURVE",
"156 4 CURVE SMOOTH",
"92 4 OFFCURVE",
"50 34 OFFCURVE",
"50 99 CURVE SMOOTH",
"50 166 LINE",
"38 166 LINE",
"38 99 LINE SMOOTH",
"38 26 OFFCURVE",
"87 -6 OFFCURVE",
"156 -6 CURVE SMOOTH"
);
}
);
width = 313;
}
);
leftKerningGroup = s;
note = s;
rightKerningGroup = s;
unicode = 0073;
},
{
glyphname = germandbls;
lastChange = "2021-12-09 03:35:29 +0000";
layers = (
{
layerId = "5E1A2ACF-25BB-4872-A226-5327BC7330DB";
paths = (
{
closed = 1;
nodes = (
"86 -146 OFFCURVE",
"105 -115 OFFCURVE",
"105 -60 CURVE SMOOTH",
"105 534 LINE SMOOTH",
"105 581 OFFCURVE",
"114 623 OFFCURVE",
"209 623 CURVE SMOOTH",
"281 623 OFFCURVE",
"314 598 OFFCURVE",
"314 537 CURVE SMOOTH",
"314 448 LINE SMOOTH",
"314 385 OFFCURVE",
"294 346 OFFCURVE",
"223 346 CURVE SMOOTH",
"169 346 LINE",
"169 336 LINE",
"212 336 LINE SMOOTH",
"272 336 OFFCURVE",
"326 315 OFFCURVE",
"326 239 CURVE SMOOTH",
"326 123 LINE SMOOTH",
"326 24 OFFCURVE",
"285 9 OFFCURVE",
"226 9 CURVE SMOOTH",
"149 9 LINE",
"149 0 LINE",
"226 0 LINE SMOOTH",
"291 0 OFFCURVE",
"336 15 OFFCURVE",
"336 119 CURVE SMOOTH",
"336 244 LINE SMOOTH",
"336 300 OFFCURVE",
"301 334 OFFCURVE",
"255 340 CURVE",
"255 343 LINE",
"298 347 OFFCURVE",
"325 385 OFFCURVE",
"325 441 CURVE SMOOTH",
"325 538 LINE SMOOTH",
"325 610 OFFCURVE",
"284 633 OFFCURVE",
"209 633 CURVE SMOOTH",
"112 633 OFFCURVE",
"93 599 OFFCURVE",
"93 527 CURVE SMOOTH",
"93 457 LINE",
"62 457 LINE",
"62 447 LINE",
"93 447 LINE",
"93 -55 LINE SMOOTH",
"93 -104 OFFCURVE",
"79 -136 OFFCURVE",
"27 -136 CURVE SMOOTH",
"15 -136 OFFCURVE",
"0 -136 OFFCURVE",
"-13 -135 CURVE SMOOTH",
"-35 -133 LINE",
"-35 -143 LINE",
"-19 -146 OFFCURVE",
"9 -146 OFFCURVE",
"33 -146 CURVE SMOOTH"
);
}
);
width = 361;
}
);
note = germandbls;
unicode = 00DF;
},
{
glyphname = longs;
lastChange = "2021-12-09 03:35:29 +0000";
layers = (
{
layerId = "5E1A2ACF-25BB-4872-A226-5327BC7330DB";
paths = (
{
closed = 1;
nodes = (
"61 -147 OFFCURVE",
"79 -114 OFFCURVE",
"79 -58 CURVE SMOOTH",
"79 552 LINE SMOOTH",
"79 587 OFFCURVE",
"90 627 OFFCURVE",
"137 627 CURVE SMOOTH",
"154 627 OFFCURVE",
"169 626 OFFCURVE",
"180 625 CURVE SMOOTH",
"197 623 LINE",
"197 632 LINE",
"184 635 OFFCURVE",
"163 636 OFFCURVE",
"138 636 CURVE SMOOTH",
"86 636 OFFCURVE",
"68 603 OFFCURVE",
"68 547 CURVE SMOOTH",
"68 438 LINE",
"37 438 LINE",
"37 428 LINE",
"68 428 LINE",
"68 -63 LINE SMOOTH",
"68 -98 OFFCURVE",
"57 -138 OFFCURVE",
"10 -138 CURVE SMOOTH",
"-7 -138 OFFCURVE",
"-22 -137 OFFCURVE",
"-33 -136 CURVE SMOOTH",
"-50 -134 LINE",
"-50 -143 LINE",
"-37 -146 OFFCURVE",
"-16 -147 OFFCURVE",
"9 -147 CURVE SMOOTH"
);
}
);
width = 133;
}
);
note = longs;
unicode = 017F;
},
{
glyphname = t;
lastChange = "2021-12-09 03:35:29 +0000";
layers = (
{
anchors = (
{
name = bottom;
position = "{133, 0}";
},
{
name = center;
position = "{106, 378}";
},
{
name = top;
position = "{106, 495}";
},
{
name = topright;
position = "{137, 528}";
}
);
layerId = "5E1A2ACF-25BB-4872-A226-5327BC7330DB";
paths = (
{
closed = 1;
nodes = (
"152 -1 OFFCURVE",
"165 0 OFFCURVE",
"176 2 CURVE SMOOTH",
"194 5 LINE",
"194 14 LINE",
"176 11 LINE SMOOTH",
"165 9 OFFCURVE",
"150 9 OFFCURVE",
"137 9 CURVE SMOOTH",
"84 9 OFFCURVE",
"76 54 OFFCURVE",
"76 104 CURVE SMOOTH",
"76 485 LINE",
"194 485 LINE",
"194 495 LINE",
"76 495 LINE",
"76 591 LINE",
"68 591 LINE",
"65 495 LINE",
"24 493 LINE",
"24 485 LINE",
"65 485 LINE",
"65 100 LINE SMOOTH",
"65 48 OFFCURVE",
"74 -1 OFFCURVE",
"137 -1 CURVE SMOOTH"
);
}
);
width = 204;
}
);
leftKerningGroup = t;
note = t;
rightKerningGroup = t;
unicode = 0074;
},
{
glyphname = u;
lastChange = "2021-12-10 04:02:20 +0000";
layers = (
{
anchors = (
{
name = bottom;
position = "{184, 0}";
},
{
name = ogonek;
position = "{304, 0}";
},
{
name = top;
position = "{184, 495}";
},
{
name = topright;
position = "{272, 495}";
}
);
layerId = "5E1A2ACF-25BB-4872-A226-5327BC7330DB";
paths = (
{
closed = 1;
nodes = (
"246 -8 OFFCURVE",
"277 19 OFFCURVE",
"292 50 CURVE",
"295 0 LINE",
"304 0 LINE",
"304 495 LINE",
"292 495 LINE",
"292 78 LINE",
"287 43 OFFCURVE",
"256 2 OFFCURVE",
"183 2 CURVE SMOOTH",
"79 2 OFFCURVE",
"76 67 OFFCURVE",
"76 126 CURVE SMOOTH",
"76 495 LINE",
"64 495 LINE",
"64 123 LINE SMOOTH",
"64 61 OFFCURVE",
"70 -8 OFFCURVE",
"183 -8 CURVE SMOOTH"
);
}
);
width = 368;
}
);
leftKerningGroup = u;
leftMetricsKey = n;
note = u;
rightKerningGroup = u;
rightMetricsKey = d;
unicode = 0075;
},
{
glyphname = v;
lastChange = "2021-12-09 03:36:51 +0000";
layers = (
{
layerId = "5E1A2ACF-25BB-4872-A226-5327BC7330DB";
paths = (
{
closed = 1;
nodes = (
"155 0 LINE",
"277 495 LINE",
"265 495 LINE",
"147 14 LINE",
"31 495 LINE",
"18 495 LINE",
"139 0 LINE"
);
}
);
width = 292;
}
);
leftKerningGroup = v;
note = v;
rightKerningGroup = v;
unicode = 0076;
},
{
glyphname = w;
lastChange = "2021-12-09 03:37:14 +0000";
layers = (
{
anchors = (
{
name = bottom;
position = "{270, 0}";
},
{
name = top;
position = "{270, 495}";
}
);
layerId = "5E1A2ACF-25BB-4872-A226-5327BC7330DB";
paths = (
{
closed = 1;
nodes = (
"155 0 LINE",
"270 466 LINE",
"384 0 LINE",
"400 0 LINE",
"522 495 LINE",
"510 495 LINE",
"392 14 LINE",
"275 495 LINE",
"265 495 LINE",
"147 14 LINE",
"31 495 LINE",
"18 495 LINE",
"139 0 LINE"
);
}
);
width = 537;
}
);
leftKerningGroup = v;
leftMetricsKey = v;
note = w;
rightKerningGroup = v;
rightMetricsKey = v;
unicode = 0077;
},
{
glyphname = x;
lastChange = "2021-12-09 03:35:29 +0000";
layers = (
{
layerId = "5E1A2ACF-25BB-4872-A226-5327BC7330DB";
paths = (
{
closed = 1;
nodes = (
"28 0 LINE",
"57 88 OFFCURVE",
"97 173 OFFCURVE",
"125 257 CURVE",
"143 257 LINE",
"242 0 LINE",
"257 0 LINE",
"154 263 LINE",
"247 495 LINE",
"233 495 LINE",
"143 268 LINE",
"125 268 LINE",
"43 495 LINE",
"29 495 LINE",
"115 263 LINE",
"13 0 LINE"
);
}
);
width = 270;
}
);
note = x;
unicode = 0078;
},
{
glyphname = y;
lastChange = "2021-12-09 03:37:58 +0000";
layers = (
{
anchors = (
{
name = bottom;
position = "{206, 0}";
},
{
name = top;
position = "{151, 495}";
}
);
layerId = "5E1A2ACF-25BB-4872-A226-5327BC7330DB";
paths = (
{
closed = 1;
nodes = (
"115 -115 OFFCURVE",
"142 -69 OFFCURVE",
"159 0 CURVE SMOOTH",
"281 495 LINE",
"269 495 LINE",
"151 14 LINE",
"35 495 LINE",
"22 495 LINE",
"145 -9 LINE",
"131 -82 OFFCURVE",
"86 -106 OFFCURVE",
"55 -106 CURVE SMOOTH",
"32 -106 OFFCURVE",
"9 -101 OFFCURVE",
"6 -100 CURVE",
"6 -109 LINE",
"9 -110 OFFCURVE",
"35 -115 OFFCURVE",
"55 -115 CURVE SMOOTH"
);
}
);
width = 296;
}
);
leftKerningGroup = y;
note = y;
rightKerningGroup = v;
rightMetricsKey = v;
unicode = 0079;
},
{
glyphname = z;
lastChange = "2021-12-09 03:40:11 +0000";
layers = (
{
anchors = (
{
name = bottom;
position = "{117, 0}";
},
{
name = center;
position = "{117, 248}";
},
{
name = top;
position = "{122, 495}";
}
);
layerId = "5E1A2ACF-25BB-4872-A226-5327BC7330DB";
paths = (
{
closed = 1;
nodes = (
"16 0 LINE",
"217 0 LINE",
"217 10 LINE",
"30 10 LINE",
"217 489 LINE",
"217 495 LINE",
"24 495 LINE",
"24 485 LINE",
"203 485 LINE",
"16 6 LINE"
);
}
);
width = 235;
}
);
leftKerningGroup = z;
note = z;
rightKerningGroup = z;
unicode = 007A;
},
{
color = 6;
glyphname = "Be-cy";
lastChange = "2021-12-09 03:35:29 +0000";
layers = (
{
layerId = "5E1A2ACF-25BB-4872-A226-5327BC7330DB";
paths = (
{
closed = 1;
nodes = (
"198 0 LINE SMOOTH",
"311 0 OFFCURVE",
"317 69 OFFCURVE",
"317 131 CURVE SMOOTH",
"317 304 LINE SMOOTH",
"317 365 OFFCURVE",
"311 435 OFFCURVE",
"198 435 CURVE SMOOTH",
"89 435 LINE",
"89 580 LINE",
"319 580 LINE",
"319 591 LINE",
"78 591 LINE",
"78 0 LINE"
);
},
{
closed = 1;
nodes = (
"89 425 LINE",
"198 425 LINE SMOOTH",
"301 425 OFFCURVE",
"306 360 OFFCURVE",
"306 301 CURVE SMOOTH",
"306 134 LINE SMOOTH",
"306 75 OFFCURVE",
"301 10 OFFCURVE",
"198 10 CURVE SMOOTH",
"89 10 LINE"
);
}
);
width = 368;
}
);
note = uni0411;
unicode = 0411;
},
{
color = 6;
glyphname = "Ge-cy";
lastChange = "2021-12-09 03:35:29 +0000";
layers = (
{
layerId = "5E1A2ACF-25BB-4872-A226-5327BC7330DB";
paths = (
{
closed = 1;
nodes = (
"90 0 LINE",
"90 580 LINE",
"319 580 LINE",
"319 591 LINE",
"78 591 LINE",
"78 0 LINE"
);
}
);
width = 317;
}
);
note = uni0413;
unicode = 0413;
},
{
color = 6;
glyphname = "De-cy";
lastChange = "2021-12-09 03:35:29 +0000";
layers = (
{
layerId = "5E1A2ACF-25BB-4872-A226-5327BC7330DB";
paths = (
{
closed = 1;
nodes = (
"20 -99 LINE",
"20 0 LINE",
"402 0 LINE",
"402 -99 LINE",
"413 -99 LINE",
"413 11 LINE",
"340 11 LINE",
"340 591 LINE",
"140 591 LINE",
"105 92 LINE SMOOTH",
"101 40 OFFCURVE",
"87 13 OFFCURVE",
"64 11 CURVE",
"9 11 LINE",
"9 -99 LINE"
);
},
{
closed = 1;
nodes = (
"113 32 OFFCURVE",
"117 80 OFFCURVE",
"117 92 CURVE SMOOTH",
"152 580 LINE",
"328 580 LINE",
"328 11 LINE",
"89 11 LINE"
);
}
);
width = 433;
}
);
note = uni0414;
unicode = 0414;
},
{
color = 6;
glyphname = "Zhe-cy";
lastChange = "2021-12-09 03:35:29 +0000";
layers = (
{
layerId = "5E1A2ACF-25BB-4872-A226-5327BC7330DB";
paths = (
{
closed = 1;
nodes = (
"19 0 LINE",
"200 299 LINE",
"233 299 LINE",
"233 0 LINE",
"245 0 LINE",
"245 299 LINE",
"278 299 LINE",
"459 0 LINE",
"474 0 LINE",
"288 306 LINE",
"469 591 LINE",
"455 591 LINE",
"276 310 LINE",
"245 310 LINE",
"245 591 LINE",
"233 591 LINE",
"233 310 LINE",
"201 310 LINE",
"23 591 LINE",
"9 591 LINE",
"190 306 LINE",
"4 0 LINE"
);
}
);
width = 478;
}
);
note = uni0416;
unicode = 0416;
},
{
color = 6;
glyphname = "Ze-cy";
lastChange = "2021-12-09 03:35:29 +0000";
layers = (
{
layerId = "5E1A2ACF-25BB-4872-A226-5327BC7330DB";
paths = (
{
closed = 1;
nodes = (
"218 -8 OFFCURVE",
"246 3 OFFCURVE",
"269 19 CURVE SMOOTH",
"305 46 OFFCURVE",
"318 88 OFFCURVE",
"318 137 CURVE SMOOTH",
"318 163 LINE SMOOTH",
"318 232 OFFCURVE",
"287 298 OFFCURVE",
"207 309 CURVE",
"271 321 OFFCURVE",
"312 373 OFFCURVE",
"312 442 CURVE SMOOTH",
"312 460 LINE SMOOTH",
"312 543 OFFCURVE",
"266 595 OFFCURVE",
"177 595 CURVE SMOOTH",
"88 595 OFFCURVE",
"42 543 OFFCURVE",
"42 460 CURVE SMOOTH",
"42 429 LINE",
"55 429 LINE",
"55 459 LINE SMOOTH",
"55 534 OFFCURVE",
"93 584 OFFCURVE",
"177 584 CURVE SMOOTH",
"261 584 OFFCURVE",
"299 534 OFFCURVE",
"299 459 CURVE SMOOTH",
"299 440 LINE SMOOTH",
"299 370 OFFCURVE",
"249 315 OFFCURVE",
"177 315 CURVE SMOOTH",
"113 315 LINE",
"113 303 LINE",
"177 303 LINE SMOOTH",
"260 303 OFFCURVE",
"306 247 OFFCURVE",
"306 163 CURVE SMOOTH",
"306 137 LINE SMOOTH",
"306 86 OFFCURVE",
"291 49 OFFCURVE",
"261 27 CURVE SMOOTH",
"240 12 OFFCURVE",
"212 3 OFFCURVE",
"177 2 CURVE SMOOTH",
"142 3 OFFCURVE",
"114 12 OFFCURVE",
"93 27 CURVE SMOOTH",
"63 49 OFFCURVE",
"48 86 OFFCURVE",
"48 137 CURVE SMOOTH",
"48 183 LINE",
"36 183 LINE",
"36 137 LINE SMOOTH",
"36 88 OFFCURVE",
"49 46 OFFCURVE",
"85 19 CURVE SMOOTH",
"108 3 OFFCURVE",
"136 -8 OFFCURVE",
"177 -8 CURVE SMOOTH"
);
}
);
width = 362;
}
);
note = uni0417;
unicode = 0417;
},
{
color = 6;
glyphname = "Ii-cy";
lastChange = "2021-12-10 05:22:10 +0000";
layers = (
{
anchors = (
{
name = bottomright;
position = "{409, 0}";
},
{
name = top;
position = "{215, 591}";
}
);
layerId = "5E1A2ACF-25BB-4872-A226-5327BC7330DB";
paths = (
{
closed = 1;
nodes = (
"94 0 LINE",
"339 564 LINE",
"339 0 LINE",
"351 0 LINE",
"351 591 LINE",
"337 591 LINE",
"89 17 LINE",
"89 591 LINE",
"78 591 LINE",
"78 0 LINE"
);
}
);
width = 429;
}
);
note = uni0418;
unicode = 0418;
},
{
color = 6;
glyphname = "Iishort-cy";
lastChange = "2021-12-09 03:35:29 +0000";
layers = (
{
layerId = "5E1A2ACF-25BB-4872-A226-5327BC7330DB";
paths = (
{
closed = 1;
nodes = (
"94 0 LINE",
"339 564 LINE",
"339 0 LINE",
"351 0 LINE",
"351 591 LINE",
"337 591 LINE",
"89 17 LINE",
"89 591 LINE",
"78 591 LINE",
"78 0 LINE"
);
},
{
closed = 1;
nodes = (
"283 645 OFFCURVE",
"300 689 OFFCURVE",
"306 722 CURVE",
"295 722 LINE",
"288 674 OFFCURVE",
"257 653 OFFCURVE",
"217 653 CURVE SMOOTH",
"177 653 OFFCURVE",
"146 674 OFFCURVE",
"139 722 CURVE",
"128 722 LINE",
"134 689 OFFCURVE",
"153 645 OFFCURVE",
"217 645 CURVE SMOOTH"
);
}
);
width = 429;
}
);
note = uni0419;
unicode = 0419;
},
{
glyphname = "Iigrave-cy";
lastChange = "2021-12-10 05:22:12 +0000";
layers = (
{
associatedMasterId = "5E1A2ACF-25BB-4872-A226-5327BC7330DB";
background = {
components = (
{
name = breve;
transform = "{1, 0, 0, 1, 3, 0}";
}
);
paths = (
{
closed = 1;
nodes = (
"149 0 LINE",
"177 85 OFFCURVE",
"204 170 OFFCURVE",
"232 255 CURVE",
"232 0 LINE",
"368 0 LINE",
"368 495 LINE",
"233 495 LINE",
"161 278 LINE",
"161 495 LINE",
"25 495 LINE",
"25 0 LINE"
);
}
);
};
components = (
{
name = "Ii-cy";
},
{
name = gravecomb.case;
transform = "{1, 0, 0, 1, 17, 0}";
}
);
layerId = "8A3706BD-364F-4FE3-9C2E-7E87DF0DB4CC";
name = Black;
width = 429;
},
{
components = (
{
name = "Ii-cy";
},
{
name = gravecomb.case;
transform = "{1, 0, 0, 1, 162, 0}";
}
);
layerId = "5E1A2ACF-25BB-4872-A226-5327BC7330DB";
width = 429;
}
);
leftKerningGroup = uni0431;
note = uni0439;
unicode = 040D;
},
{
color = 6;
glyphname = "Ka-cy";
lastChange = "2021-12-09 03:35:29 +0000";
layers = (
{
layerId = "5E1A2ACF-25BB-4872-A226-5327BC7330DB";
paths = (
{
closed = 1;
nodes = (
"90 0 LINE",
"90 299 LINE",
"123 299 LINE",
"304 0 LINE",
"319 0 LINE",
"133 306 LINE",
"314 591 LINE",
"300 591 LINE",
"121 310 LINE",
"90 310 LINE",
"90 591 LINE",
"78 591 LINE",
"78 0 LINE"
);
}
);
width = 317;
}
);
note = uni041A;
unicode = 041A;
},
{
color = 6;
glyphname = "El-cy";
lastChange = "2021-12-09 03:35:29 +0000";
layers = (
{
layerId = "5E1A2ACF-25BB-4872-A226-5327BC7330DB";
paths = (
{
closed = 1;
nodes = (
"71 0 OFFCURVE",
"77 77 OFFCURVE",
"77 92 CURVE",
"112 580 LINE",
"288 580 LINE",
"288 1 LINE",
"300 1 LINE",
"300 591 LINE",
"100 591 LINE",
"65 92 LINE SMOOTH",
"61 36 OFFCURVE",
"47 11 OFFCURVE",
"20 11 CURVE",
"20 0 LINE"
);
}
);
width = 349;
}
);
note = uni041B;
unicode = 041B;
},
{
color = 6;
glyphname = "Pe-cy";
lastChange = "2021-12-09 03:35:29 +0000";
layers = (
{
layerId = "5E1A2ACF-25BB-4872-A226-5327BC7330DB";
paths = (
{
closed = 1;
nodes = (
"90 0 LINE",
"90 580 LINE",
"307 580 LINE",
"307 0 LINE",
"319 0 LINE",
"319 591 LINE",
"78 591 LINE",
"78 0 LINE"
);
}
);
width = 397;
}
);
note = uni041F;
unicode = 041F;
},
{
color = 6;
glyphname = "U-cy";
lastChange = "2021-12-09 03:35:29 +0000";
layers = (
{
layerId = "5E1A2ACF-25BB-4872-A226-5327BC7330DB";
paths = (
{
closed = 1;
nodes = (
"103 -3 OFFCURVE",
"130 43 OFFCURVE",
"147 112 CURVE SMOOTH",
"269 591 LINE",
"257 591 LINE",
"139 126 LINE",
"23 591 LINE",
"10 591 LINE",
"133 103 LINE",
"119 30 OFFCURVE",
"74 6 OFFCURVE",
"43 6 CURVE SMOOTH",
"31 6 OFFCURVE",
"20 8 OFFCURVE",
"11 9 CURVE",
"11 0 LINE",
"22 -1 OFFCURVE",
"32 -3 OFFCURVE",
"43 -3 CURVE SMOOTH"
);
}
);
width = 279;
}
);
note = uni0423;
unicode = 0423;
},
{
color = 6;
glyphname = "Ushort-cy";
lastChange = "2021-12-09 03:35:29 +0000";
layers = (
{
layerId = "5E1A2ACF-25BB-4872-A226-5327BC7330DB";
paths = (
{
closed = 1;
nodes = (
"103 -3 OFFCURVE",
"130 43 OFFCURVE",
"147 112 CURVE SMOOTH",
"269 591 LINE",
"257 591 LINE",
"139 126 LINE",
"23 591 LINE",
"10 591 LINE",
"133 103 LINE",
"119 30 OFFCURVE",
"74 6 OFFCURVE",
"43 6 CURVE SMOOTH",
"31 6 OFFCURVE",
"20 8 OFFCURVE",
"11 9 CURVE",
"11 0 LINE",
"22 -1 OFFCURVE",
"32 -3 OFFCURVE",
"43 -3 CURVE SMOOTH"
);
},
{
closed = 1;
nodes = (
"194 632 OFFCURVE",
"211 676 OFFCURVE",
"217 709 CURVE",
"206 709 LINE",
"199 661 OFFCURVE",
"168 640 OFFCURVE",
"128 640 CURVE SMOOTH",
"88 640 OFFCURVE",
"57 661 OFFCURVE",
"50 709 CURVE",
"39 709 LINE",
"45 676 OFFCURVE",
"64 632 OFFCURVE",
"128 632 CURVE SMOOTH"
);
}
);
width = 279;
}
);
note = uni040E;
unicode = 040E;
},
{
color = 6;
glyphname = "Ef-cy";
lastChange = "2021-12-09 03:35:29 +0000";
layers = (
{
layerId = "5E1A2ACF-25BB-4872-A226-5327BC7330DB";
paths = (
{
closed = 1;
nodes = (
"210 0 LINE",
"210 59 LINE",
"221 59 LINE SMOOTH",
"301 59 OFFCURVE",
"358 73 OFFCURVE",
"358 189 CURVE SMOOTH",
"358 403 LINE SMOOTH",
"358 517 OFFCURVE",
"299 533 OFFCURVE",
"222 533 CURVE SMOOTH",
"210 533 LINE",
"210 591 LINE",
"198 591 LINE",
"198 533 LINE",
"185 533 LINE SMOOTH",
"108 533 OFFCURVE",
"49 519 OFFCURVE",
"49 403 CURVE SMOOTH",
"49 189 LINE SMOOTH",
"49 75 OFFCURVE",
"108 59 OFFCURVE",
"184 59 CURVE SMOOTH",
"198 59 LINE",
"198 0 LINE"
);
},
{
closed = 1;
nodes = (
"115 69 OFFCURVE",
"61 83 OFFCURVE",
"61 186 CURVE SMOOTH",
"61 406 LINE SMOOTH",
"61 510 OFFCURVE",
"116 523 OFFCURVE",
"185 523 CURVE SMOOTH",
"198 523 LINE",
"198 69 LINE",
"183 69 LINE SMOOTH"
);
},
{
closed = 1;
nodes = (
"210 523 LINE",
"222 523 LINE SMOOTH",
"289 523 OFFCURVE",
"346 509 OFFCURVE",
"346 406 CURVE SMOOTH",
"346 186 LINE SMOOTH",
"346 82 OFFCURVE",
"291 69 OFFCURVE",
"221 69 CURVE SMOOTH",
"210 69 LINE"
);
}
);
width = 407;
}
);
note = uni0424;
unicode = 0424;
},
{
color = 6;
glyphname = "Che-cy";
lastChange = "2021-12-09 03:35:29 +0000";
layers = (
{
layerId = "5E1A2ACF-25BB-4872-A226-5327BC7330DB";
paths = (
{
closed = 1;
nodes = (
"284 0 LINE",
"296 0 LINE",
"296 591 LINE",
"284 591 LINE",
"284 187 LINE",
"273 176 OFFCURVE",
"247 146 OFFCURVE",
"175 146 CURVE SMOOTH",
"71 146 OFFCURVE",
"68 211 OFFCURVE",
"68 270 CURVE SMOOTH",
"68 591 LINE",
"56 591 LINE",
"56 267 LINE SMOOTH",
"56 205 OFFCURVE",
"62 136 OFFCURVE",
"175 136 CURVE SMOOTH",
"238 136 OFFCURVE",
"275 159 OFFCURVE",
"284 174 CURVE"
);
}
);
width = 374;
}
);
note = uni0427;
unicode = 0427;
},
{
color = 6;
glyphname = "Tse-cy";
lastChange = "2021-12-09 03:35:29 +0000";
layers = (
{
layerId = "5E1A2ACF-25BB-4872-A226-5327BC7330DB";
paths = (
{
closed = 1;
nodes = (
"330 -74 LINE",
"330 11 LINE",
"319 11 LINE",
"319 591 LINE",
"307 591 LINE",
"307 11 LINE",
"90 11 LINE",
"90 591 LINE",
"78 591 LINE",
"78 0 LINE",
"319 0 LINE",
"319 -74 LINE"
);
}
);
width = 398;
}
);
note = uni0426;
unicode = 0426;
},
{
color = 6;
glyphname = "Sha-cy";
lastChange = "2021-12-09 03:35:29 +0000";
layers = (
{
layerId = "5E1A2ACF-25BB-4872-A226-5327BC7330DB";
paths = (
{
closed = 1;
nodes = (
"548 0 LINE",
"548 591 LINE",
"536 591 LINE",
"536 11 LINE",
"319 11 LINE",
"319 591 LINE",
"307 591 LINE",
"307 11 LINE",
"90 11 LINE",
"90 591 LINE",
"78 591 LINE",
"78 0 LINE"
);
}
);
width = 626;
}
);
note = uni0428;
unicode = 0428;
},
{
color = 6;
glyphname = "Shcha-cy";
lastChange = "2021-12-09 03:35:29 +0000";
layers = (
{
layerId = "5E1A2ACF-25BB-4872-A226-5327BC7330DB";
paths = (
{
closed = 1;
nodes = (
"559 -74 LINE",
"559 11 LINE",
"548 11 LINE",
"548 591 LINE",
"536 591 LINE",
"536 11 LINE",
"319 11 LINE",
"319 591 LINE",
"307 591 LINE",
"307 11 LINE",
"90 11 LINE",
"90 591 LINE",
"78 591 LINE",
"78 0 LINE",
"548 0 LINE",
"548 -74 LINE"
);
}
);
width = 627;
}
);
note = uni0429;
unicode = 0429;
},
{
color = 6;
glyphname = "Dzhe-cy";
lastChange = "2021-12-09 03:35:29 +0000";
layers = (
{
layerId = "5E1A2ACF-25BB-4872-A226-5327BC7330DB";
paths = (
{
closed = 1;
nodes = (
"204 -99 LINE",
"204 0 LINE",
"319 0 LINE",
"319 591 LINE",
"307 591 LINE",
"307 11 LINE",
"90 11 LINE",
"90 591 LINE",
"78 591 LINE",
"78 0 LINE",
"193 0 LINE",
"193 -99 LINE"
);
}
);
width = 397;
}
);
note = uni040F;
unicode = 040F;
},
{
color = 6;
glyphname = "Softsign-cy";
lastChange = "2021-12-09 03:35:29 +0000";
layers = (
{
layerId = "5E1A2ACF-25BB-4872-A226-5327BC7330DB";
paths = (
{
closed = 1;
nodes = (
"198 0 LINE SMOOTH",
"311 0 OFFCURVE",
"317 69 OFFCURVE",
"317 131 CURVE SMOOTH",
"317 304 LINE SMOOTH",
"317 365 OFFCURVE",
"311 435 OFFCURVE",
"198 435 CURVE SMOOTH",
"89 435 LINE",
"89 588 LINE",
"78 588 LINE",
"78 0 LINE"
);
},
{
closed = 1;
nodes = (
"89 425 LINE",
"198 425 LINE SMOOTH",
"301 425 OFFCURVE",
"306 360 OFFCURVE",
"306 301 CURVE SMOOTH",
"306 134 LINE SMOOTH",
"306 75 OFFCURVE",
"301 10 OFFCURVE",
"198 10 CURVE SMOOTH",
"89 10 LINE"
);
}
);
width = 366;
}
);
note = uni042C;
unicode = 042C;
},
{
color = 6;
glyphname = "Hardsign-cy";
lastChange = "2021-12-09 03:35:29 +0000";
layers = (
{
layerId = "5E1A2ACF-25BB-4872-A226-5327BC7330DB";
paths = (
{
closed = 1;
nodes = (
"196 0 LINE SMOOTH",
"309 0 OFFCURVE",
"315 69 OFFCURVE",
"315 131 CURVE SMOOTH",
"315 304 LINE SMOOTH",
"315 365 OFFCURVE",
"309 435 OFFCURVE",
"196 435 CURVE SMOOTH",
"87 435 LINE",
"87 591 LINE",
"10 591 LINE",
"10 580 LINE",
"76 580 LINE",
"76 0 LINE"
);
},
{
closed = 1;
nodes = (
"87 425 LINE",
"196 425 LINE SMOOTH",
"299 425 OFFCURVE",
"304 360 OFFCURVE",
"304 301 CURVE SMOOTH",
"304 134 LINE SMOOTH",
"304 75 OFFCURVE",
"299 10 OFFCURVE",
"196 10 CURVE SMOOTH",
"87 10 LINE"
);
}
);
width = 364;
}
);
note = uni042A;
unicode = 042A;
},
{
color = 6;
glyphname = "Yeru-cy";
lastChange = "2021-12-09 03:35:29 +0000";
layers = (
{
layerId = "5E1A2ACF-25BB-4872-A226-5327BC7330DB";
paths = (
{
closed = 1;
nodes = (
"198 0 LINE SMOOTH",
"311 0 OFFCURVE",
"317 69 OFFCURVE",
"317 131 CURVE SMOOTH",
"317 304 LINE SMOOTH",
"317 365 OFFCURVE",
"311 435 OFFCURVE",
"198 435 CURVE SMOOTH",
"89 435 LINE",
"89 588 LINE",
"78 588 LINE",
"78 0 LINE"
);
},
{
closed = 1;
nodes = (
"89 425 LINE",
"198 425 LINE SMOOTH",
"301 425 OFFCURVE",
"306 360 OFFCURVE",
"306 301 CURVE SMOOTH",
"306 134 LINE SMOOTH",
"306 75 OFFCURVE",
"301 10 OFFCURVE",
"198 10 CURVE SMOOTH",
"89 10 LINE"
);
},
{
closed = 1;
nodes = (
"401 0 LINE",
"401 591 LINE",
"389 591 LINE",
"389 0 LINE"
);
}
);
width = 451;
}
);
note = uni042B;
unicode = 042B;
},
{
color = 6;
glyphname = "Lje-cy";
lastChange = "2021-12-09 03:35:29 +0000";
layers = (
{
layerId = "5E1A2ACF-25BB-4872-A226-5327BC7330DB";
paths = (
{
closed = 1;
nodes = (
"71 0 OFFCURVE",
"77 77 OFFCURVE",
"77 92 CURVE",
"112 580 LINE",
"289 580 LINE",
"289 0 LINE",
"409 0 LINE SMOOTH",
"522 0 OFFCURVE",
"528 69 OFFCURVE",
"528 131 CURVE SMOOTH",
"528 304 LINE SMOOTH",
"528 365 OFFCURVE",
"522 435 OFFCURVE",
"409 435 CURVE SMOOTH",
"300 435 LINE",
"300 591 LINE",
"100 591 LINE",
"65 92 LINE SMOOTH",
"61 36 OFFCURVE",
"47 11 OFFCURVE",
"20 11 CURVE",
"20 0 LINE"
);
},
{
closed = 1;
nodes = (
"300 425 LINE",
"409 425 LINE SMOOTH",
"512 425 OFFCURVE",
"517 360 OFFCURVE",
"517 301 CURVE SMOOTH",
"517 134 LINE SMOOTH",
"517 75 OFFCURVE",
"512 10 OFFCURVE",
"409 10 CURVE SMOOTH",
"300 10 LINE"
);
}
);
width = 578;
}
);
note = uni0409;
unicode = 0409;
},
{
color = 6;
glyphname = "Nje-cy";
lastChange = "2021-12-09 03:35:29 +0000";
layers = (
{
layerId = "5E1A2ACF-25BB-4872-A226-5327BC7330DB";
paths = (
{
closed = 1;
nodes = (
"90 0 LINE",
"90 306 LINE",
"253 306 LINE",
"253 0 LINE",
"373 0 LINE SMOOTH",
"486 0 OFFCURVE",
"492 69 OFFCURVE",
"492 131 CURVE SMOOTH",
"492 304 LINE SMOOTH",
"492 365 OFFCURVE",
"486 435 OFFCURVE",
"373 435 CURVE SMOOTH",
"265 435 LINE",
"265 591 LINE",
"253 591 LINE",
"253 317 LINE",
"90 317 LINE",
"90 591 LINE",
"78 591 LINE",
"78 0 LINE"
);
},
{
closed = 1;
nodes = (
"265 425 LINE",
"373 425 LINE SMOOTH",
"476 425 OFFCURVE",
"481 360 OFFCURVE",
"481 301 CURVE SMOOTH",
"481 134 LINE SMOOTH",
"481 75 OFFCURVE",
"476 10 OFFCURVE",
"373 10 CURVE SMOOTH",
"265 10 LINE"
);
}
);
width = 541;
}
);
note = uni040A;
unicode = 040A;
},
{
color = 6;
glyphname = "E-cy";
lastChange = "2021-12-09 03:35:29 +0000";
layers = (
{
layerId = "5E1A2ACF-25BB-4872-A226-5327BC7330DB";
paths = (
{
closed = 1;
nodes = (
"264 -12 OFFCURVE",
"322 2 OFFCURVE",
"322 118 CURVE SMOOTH",
"322 189 LINE",
"310 189 LINE",
"310 116 LINE SMOOTH",
"310 12 OFFCURVE",
"255 -3 OFFCURVE",
"185 -3 CURVE SMOOTH",
"116 -3 OFFCURVE",
"61 12 OFFCURVE",
"61 116 CURVE SMOOTH",
"61 295 LINE",
"233 295 LINE",
"233 306 LINE",
"61 306 LINE",
"61 467 LINE SMOOTH",
"61 572 OFFCURVE",
"110 589 OFFCURVE",
"185 589 CURVE SMOOTH",
"260 589 OFFCURVE",
"310 574 OFFCURVE",
"310 473 CURVE SMOOTH",
"310 381 LINE",
"322 381 LINE",
"322 469 LINE SMOOTH",
"322 583 OFFCURVE",
"263 599 OFFCURVE",
"186 599 CURVE SMOOTH",
"109 599 OFFCURVE",
"49 585 OFFCURVE",
"49 469 CURVE SMOOTH",
"49 118 LINE SMOOTH",
"49 4 OFFCURVE",
"108 -12 OFFCURVE",
"184 -12 CURVE SMOOTH"
);
}
);
width = 371;
}
);
note = uni0404;
unicode = 0404;
},
{
color = 6;
glyphname = "Ereversed-cy";
lastChange = "2021-12-09 03:35:29 +0000";
layers = (
{
layerId = "5E1A2ACF-25BB-4872-A226-5327BC7330DB";
paths = (
{
closed = 1;
nodes = (
"263 -12 OFFCURVE",
"322 4 OFFCURVE",
"322 118 CURVE SMOOTH",
"322 469 LINE SMOOTH",
"322 585 OFFCURVE",
"262 599 OFFCURVE",
"185 599 CURVE SMOOTH",
"108 599 OFFCURVE",
"49 583 OFFCURVE",
"49 469 CURVE SMOOTH",
"49 381 LINE",
"61 381 LINE",
"61 473 LINE SMOOTH",
"61 574 OFFCURVE",
"111 589 OFFCURVE",
"186 589 CURVE SMOOTH",
"261 589 OFFCURVE",
"310 572 OFFCURVE",
"310 467 CURVE SMOOTH",
"310 306 LINE",
"138 306 LINE",
"138 295 LINE",
"310 295 LINE",
"310 116 LINE SMOOTH",
"310 12 OFFCURVE",
"255 -3 OFFCURVE",
"186 -3 CURVE SMOOTH",
"116 -3 OFFCURVE",
"61 12 OFFCURVE",
"61 116 CURVE SMOOTH",
"61 189 LINE",
"49 189 LINE",
"49 118 LINE SMOOTH",
"49 2 OFFCURVE",
"107 -12 OFFCURVE",
"187 -12 CURVE SMOOTH"
);
}
);
width = 371;
}
);
note = uni042D;
unicode = 042D;
},
{
color = 6;
glyphname = "Tshe-cy";
lastChange = "2021-12-09 03:35:29 +0000";
layers = (
{
layerId = "5E1A2ACF-25BB-4872-A226-5327BC7330DB";
paths = (
{
closed = 1;
nodes = (
"145 0 LINE",
"145 347 LINE",
"150 382 OFFCURVE",
"181 423 OFFCURVE",
"254 423 CURVE SMOOTH",
"358 423 OFFCURVE",
"361 358 OFFCURVE",
"361 299 CURVE SMOOTH",
"361 0 LINE",
"373 0 LINE",
"373 302 LINE SMOOTH",
"373 363 OFFCURVE",
"367 433 OFFCURVE",
"254 433 CURVE SMOOTH",
"191 433 OFFCURVE",
"160 406 OFFCURVE",
"145 375 CURVE",
"145 580 LINE",
"259 580 LINE",
"259 591 LINE",
"20 591 LINE",
"20 580 LINE",
"133 580 LINE",
"133 0 LINE"
);
}
);
width = 422;
}
);
note = uni040B;
unicode = 040B;
},
{
color = 6;
glyphname = "Iu-cy";
lastChange = "2021-12-09 03:35:29 +0000";
layers = (
{
layerId = "5E1A2ACF-25BB-4872-A226-5327BC7330DB";
paths = (
{
closed = 1;
nodes = (
"425 -12 OFFCURVE",
"483 2 OFFCURVE",
"483 118 CURVE SMOOTH",
"483 469 LINE SMOOTH",
"483 583 OFFCURVE",
"424 599 OFFCURVE",
"347 599 CURVE SMOOTH",
"270 599 OFFCURVE",
"210 585 OFFCURVE",
"210 469 CURVE SMOOTH",
"210 317 LINE",
"61 317 LINE",
"61 591 LINE",
"49 591 LINE",
"49 0 LINE",
"61 0 LINE",
"61 306 LINE",
"210 306 LINE",
"210 118 LINE SMOOTH",
"210 4 OFFCURVE",
"269 -12 OFFCURVE",
"345 -12 CURVE SMOOTH"
);
},
{
closed = 1;
nodes = (
"277 -2 OFFCURVE",
"222 11 OFFCURVE",
"222 115 CURVE SMOOTH",
"222 472 LINE SMOOTH",
"222 576 OFFCURVE",
"277 589 OFFCURVE",
"346 589 CURVE SMOOTH",
"414 589 OFFCURVE",
"471 576 OFFCURVE",
"471 472 CURVE SMOOTH",
"471 115 LINE SMOOTH",
"471 11 OFFCURVE",
"416 -2 OFFCURVE",
"346 -2 CURVE SMOOTH"
);
}
);
width = 533;
}
);
note = uni042E;
unicode = 042E;
},
{
color = 6;
glyphname = "Ia-cy";
lastChange = "2021-12-09 03:35:29 +0000";
layers = (
{
layerId = "5E1A2ACF-25BB-4872-A226-5327BC7330DB";
paths = (
{
closed = 1;
nodes = (
"53 0 LINE",
"114 205 LINE SMOOTH",
"130 257 OFFCURVE",
"156 292 OFFCURVE",
"197 292 CURVE SMOOTH",
"316 292 LINE",
"316 0 LINE",
"328 0 LINE",
"328 591 LINE",
"166 591 LINE SMOOTH",
"109 591 OFFCURVE",
"60 566 OFFCURVE",
"60 494 CURVE SMOOTH",
"60 411 LINE SMOOTH",
"60 328 OFFCURVE",
"111 296 OFFCURVE",
"174 296 CURVE",
"142 293 OFFCURVE",
"117 256 OFFCURVE",
"108 224 CURVE SMOOTH",
"39 0 LINE"
);
},
{
closed = 1;
nodes = (
"123 303 OFFCURVE",
"72 331 OFFCURVE",
"72 409 CURVE SMOOTH",
"72 496 LINE SMOOTH",
"72 553 OFFCURVE",
"113 580 OFFCURVE",
"158 580 CURVE SMOOTH",
"316 580 LINE",
"316 303 LINE",
"191 303 LINE SMOOTH"
);
}
);
width = 406;
}
);
note = uni042F;
unicode = 042F;
},
{
color = 6;
glyphname = "Dje-cy";
lastChange = "2021-12-09 03:35:29 +0000";
layers = (
{
layerId = "5E1A2ACF-25BB-4872-A226-5327BC7330DB";
paths = (
{
closed = 1;
nodes = (
"137 0 LINE",
"137 347 LINE",
"142 382 OFFCURVE",
"173 423 OFFCURVE",
"246 423 CURVE SMOOTH",
"350 423 OFFCURVE",
"353 358 OFFCURVE",
"353 299 CURVE SMOOTH",
"353 179 LINE SMOOTH",
"353 82 OFFCURVE",
"336 11 OFFCURVE",
"243 11 CURVE SMOOTH",
"231 11 LINE",
"231 0 LINE",
"244 0 LINE SMOOTH",
"316 0 OFFCURVE",
"365 27 OFFCURVE",
"365 180 CURVE SMOOTH",
"365 302 LINE SMOOTH",
"365 363 OFFCURVE",
"359 433 OFFCURVE",
"246 433 CURVE SMOOTH",
"183 433 OFFCURVE",
"152 406 OFFCURVE",
"137 375 CURVE",
"137 580 LINE",
"251 580 LINE",
"251 591 LINE",
"12 591 LINE",
"12 580 LINE",
"125 580 LINE",
"125 0 LINE"
);
}
);
width = 414;
}
);
note = uni0402;
unicode = 0402;
},
{
glyphname = "Yat-cy";
lastChange = "2021-12-09 03:35:29 +0000";
layers = (
{
associatedMasterId = "5E1A2ACF-25BB-4872-A226-5327BC7330DB";
background = {
components = (
{
name = hyphen;
transform = "{1.53882, 0, 0, 0.70397, -30, 313}";
}
);
paths = (
{
closed = 1;
nodes = (
"293 0 LINE SMOOTH",
"369 0 OFFCURVE",
"429 10 OFFCURVE",
"429 161 CURVE SMOOTH",
"429 324 LINE SMOOTH",
"429 423 OFFCURVE",
"367 436 OFFCURVE",
"318 436 CURVE SMOOTH",
"239 436 LINE",
"239 591 LINE",
"83 591 LINE",
"83 0 LINE"
);
},
{
closed = 1;
nodes = (
"239 341 LINE",
"256 341 LINE SMOOTH",
"272 341 OFFCURVE",
"273 330 OFFCURVE",
"273 291 CURVE SMOOTH",
"273 166 LINE SMOOTH",
"273 87 OFFCURVE",
"271 80 OFFCURVE",
"257 80 CURVE SMOOTH",
"239 80 LINE"
);
}
);
};
components = (
{
name = hyphen;
transform = "{1.53882, 0, 0, 0.70397, -30, 313}";
}
);
layerId = "8A3706BD-364F-4FE3-9C2E-7E87DF0DB4CC";
name = Black;
paths = (
{
closed = 1;
nodes = (
"293 0 LINE SMOOTH",
"369 0 OFFCURVE",
"429 10 OFFCURVE",
"429 161 CURVE SMOOTH",
"429 324 LINE SMOOTH",
"429 423 OFFCURVE",
"367 436 OFFCURVE",
"318 436 CURVE SMOOTH",
"239 436 LINE",
"239 591 LINE",
"83 591 LINE",
"83 0 LINE"
);
},
{
closed = 1;
nodes = (
"239 341 LINE",
"256 341 LINE SMOOTH",
"272 341 OFFCURVE",
"273 330 OFFCURVE",
"273 291 CURVE SMOOTH",
"273 166 LINE SMOOTH",
"273 87 OFFCURVE",
"271 80 OFFCURVE",
"257 80 CURVE SMOOTH",
"239 80 LINE"
);
}
);
width = 454;
},
{
components = (
{
alignment = -1;
name = hyphen;
transform = "{1.39957, 0, 0, 0.99129, -55, 278}";
}
);
layerId = "5E1A2ACF-25BB-4872-A226-5327BC7330DB";
paths = (
{
closed = 1;
nodes = (
"219 0 LINE SMOOTH",
"332 0 OFFCURVE",
"338 69 OFFCURVE",
"338 131 CURVE SMOOTH",
"338 304 LINE SMOOTH",
"338 365 OFFCURVE",
"332 435 OFFCURVE",
"219 435 CURVE SMOOTH",
"110 435 LINE",
"110 588 LINE",
"99 588 LINE",
"99 0 LINE"
);
},
{
closed = 1;
nodes = (
"110 425 LINE",
"219 425 LINE SMOOTH",
"322 425 OFFCURVE",
"327 360 OFFCURVE",
"327 301 CURVE SMOOTH",
"327 134 LINE SMOOTH",
"327 75 OFFCURVE",
"322 10 OFFCURVE",
"219 10 CURVE SMOOTH",
"110 10 LINE"
);
}
);
width = 387;
}
);
unicode = 0462;
},
{
color = 4;
glyphname = "Yusbig-cy";
lastChange = "2021-12-09 03:35:29 +0000";
layers = (
{
associatedMasterId = "5E1A2ACF-25BB-4872-A226-5327BC7330DB";
background = {
paths = (
{
closed = 1;
nodes = (
"197 0 LINE",
"233 230 LINE SMOOTH",
"237 253 OFFCURVE",
"240 276 OFFCURVE",
"244 299 CURVE",
"246 299 LINE",
"247 0 LINE",
"414 0 LINE",
"414 299 LINE",
"416 299 LINE",
"420 274 OFFCURVE",
"423 249 OFFCURVE",
"427 224 CURVE SMOOTH",
"464 0 LINE",
"641 0 LINE",
"586 253 LINE SMOOTH",
"576 300 OFFCURVE",
"546 332 OFFCURVE",
"505 335 CURVE SMOOTH",
"456 339 LINE",
"632 484 LINE",
"632 591 LINE",
"22 591 LINE",
"22 484 LINE",
"199 338 LINE",
"157 336 LINE SMOOTH",
"113 334 OFFCURVE",
"85 298 OFFCURVE",
"75 253 CURVE SMOOTH",
"20 0 LINE"
);
},
{
closed = 1;
nodes = (
"204 484 LINE",
"450 484 LINE",
"327 395 LINE"
);
}
);
};
layerId = "8A3706BD-364F-4FE3-9C2E-7E87DF0DB4CC";
name = Black;
paths = (
{
closed = 1;
nodes = (
"197 0 LINE",
"233 230 LINE SMOOTH",
"237 253 OFFCURVE",
"240 276 OFFCURVE",
"244 299 CURVE",
"246 299 LINE",
"247 0 LINE",
"414 0 LINE",
"414 299 LINE",
"416 299 LINE",
"420 274 OFFCURVE",
"423 249 OFFCURVE",
"427 224 CURVE SMOOTH",
"464 0 LINE",
"641 0 LINE",
"586 253 LINE SMOOTH",
"576 300 OFFCURVE",
"546 332 OFFCURVE",
"505 335 CURVE SMOOTH",
"456 339 LINE",
"632 484 LINE",
"632 591 LINE",
"22 591 LINE",
"22 484 LINE",
"199 338 LINE",
"157 336 LINE SMOOTH",
"113 334 OFFCURVE",
"85 298 OFFCURVE",
"75 253 CURVE SMOOTH",
"20 0 LINE"
);
},
{
closed = 1;
nodes = (
"204 484 LINE",
"450 484 LINE",
"327 395 LINE"
);
}
);
width = 661;
},
{
layerId = "5E1A2ACF-25BB-4872-A226-5327BC7330DB";
paths = (
{
closed = 1;
nodes = (
"61 0 LINE",
"123 223 LINE SMOOTH",
"135 265 OFFCURVE",
"157 315 OFFCURVE",
"204 315 CURVE SMOOTH",
"318 315 LINE",
"318 0 LINE",
"330 0 LINE",
"330 315 LINE",
"445 315 LINE SMOOTH",
"505 314 OFFCURVE",
"523 265 OFFCURVE",
"535 223 CURVE SMOOTH",
"597 0 LINE",
"610 0 LINE",
"545 226 LINE SMOOTH",
"531 274 OFFCURVE",
"512 325 OFFCURVE",
"444 325 CURVE SMOOTH",
"339 325 LINE",
"632 576 LINE",
"632 591 LINE",
"25 591 LINE",
"25 576 LINE",
"310 325 LINE",
"210 325 LINE SMOOTH",
"147 325 OFFCURVE",
"126 274 OFFCURVE",
"112 226 CURVE SMOOTH",
"47 0 LINE"
);
},
{
closed = 1;
nodes = (
"37 581 LINE",
"621 581 LINE",
"325 327 LINE"
);
}
);
width = 657;
}
);
unicode = 046A;
},
{
color = 6;
glyphname = "be-cy";
lastChange = "2021-12-09 03:35:29 +0000";
layers = (
{
layerId = "5E1A2ACF-25BB-4872-A226-5327BC7330DB";
paths = (
{
closed = 1;
nodes = (
"284 -7 OFFCURVE",
"288 62 OFFCURVE",
"288 124 CURVE SMOOTH",
"288 316 LINE SMOOTH",
"288 377 OFFCURVE",
"282 447 OFFCURVE",
"169 447 CURVE SMOOTH",
"102 447 OFFCURVE",
"73 424 OFFCURVE",
"60 393 CURVE",
"60 495 LINE SMOOTH",
"63 580 OFFCURVE",
"102 598 OFFCURVE",
"163 598 CURVE SMOOTH",
"189 598 LINE SMOOTH",
"224 598 OFFCURVE",
"248 603 OFFCURVE",
"248 618 CURVE SMOOTH",
"248 627 LINE",
"244 619 OFFCURVE",
"228 608 OFFCURVE",
"197 608 CURVE SMOOTH",
"160 608 LINE SMOOTH",
"97 608 OFFCURVE",
"49 592 OFFCURVE",
"49 495 CURVE SMOOTH",
"49 124 LINE SMOOTH",
"49 62 OFFCURVE",
"57 -7 OFFCURVE",
"169 -7 CURVE SMOOTH"
);
},
{
closed = 1;
nodes = (
"66 3 OFFCURVE",
"60 68 OFFCURVE",
"60 127 CURVE SMOOTH",
"60 331 LINE SMOOTH",
"60 384 OFFCURVE",
"76 437 OFFCURVE",
"169 437 CURVE SMOOTH",
"272 437 OFFCURVE",
"277 372 OFFCURVE",
"277 313 CURVE SMOOTH",
"277 127 LINE SMOOTH",
"277 68 OFFCURVE",
"272 3 OFFCURVE",
"169 3 CURVE SMOOTH"
);
}
);
width = 337;
}
);
leftKerningGroup = uni0431;
note = uni0431;
unicode = 0431;
},
{
color = 6;
glyphname = "ve-cy";
lastChange = "2021-12-09 03:35:29 +0000";
layers = (
{
layerId = "5E1A2ACF-25BB-4872-A226-5327BC7330DB";
paths = (
{
closed = 1;
nodes = (
"185 0 LINE SMOOTH",
"258 0 OFFCURVE",
"306 16 OFFCURVE",
"306 120 CURVE SMOOTH",
"306 161 LINE SMOOTH",
"306 221 OFFCURVE",
"269 264 OFFCURVE",
"213 264 CURVE",
"269 273 OFFCURVE",
"301 300 OFFCURVE",
"301 356 CURVE SMOOTH",
"301 398 LINE SMOOTH",
"301 470 OFFCURVE",
"253 495 OFFCURVE",
"194 495 CURVE SMOOTH",
"49 495 LINE",
"49 0 LINE"
);
},
{
closed = 1;
nodes = (
"61 258 LINE",
"174 258 LINE SMOOTH",
"237 258 OFFCURVE",
"294 241 OFFCURVE",
"294 156 CURVE SMOOTH",
"294 125 LINE SMOOTH",
"294 26 OFFCURVE",
"252 11 OFFCURVE",
"182 11 CURVE SMOOTH",
"61 11 LINE"
);
},
{
closed = 1;
nodes = (
"61 484 LINE",
"194 484 LINE SMOOTH",
"249 484 OFFCURVE",
"289 457 OFFCURVE",
"289 400 CURVE SMOOTH",
"289 357 LINE SMOOTH",
"289 292 OFFCURVE",
"250 269 OFFCURVE",
"173 269 CURVE SMOOTH",
"61 269 LINE"
);
}
);
width = 356;
}
);
leftKerningGroup = uni0431;
note = uni0432;
rightKerningGroup = uni0432;
unicode = 0432;
},
{
color = 6;
glyphname = "ge-cy";
lastChange = "2021-12-09 03:35:29 +0000";
layers = (
{
layerId = "5E1A2ACF-25BB-4872-A226-5327BC7330DB";
paths = (
{
closed = 1;
nodes = (
"61 0 LINE",
"61 484 LINE",
"262 484 LINE",
"262 495 LINE",
"49 495 LINE",
"49 0 LINE"
);
}
);
width = 282;
}
);
leftKerningGroup = uni0431;
note = uni0433;
unicode = 0433;
},
{
color = 6;
glyphname = "de-cy";
lastChange = "2021-12-09 03:35:29 +0000";
layers = (
{
layerId = "5E1A2ACF-25BB-4872-A226-5327BC7330DB";
paths = (
{
closed = 1;
nodes = (
"36 -99 LINE",
"36 0 LINE",
"418 0 LINE",
"418 -99 LINE",
"429 -99 LINE",
"429 11 LINE",
"356 11 LINE",
"356 495 LINE",
"156 495 LINE",
"121 92 LINE SMOOTH",
"117 40 OFFCURVE",
"103 13 OFFCURVE",
"80 11 CURVE",
"25 11 LINE",
"25 -99 LINE"
);
},
{
closed = 1;
nodes = (
"129 32 OFFCURVE",
"133 80 OFFCURVE",
"133 92 CURVE",
"168 484 LINE",
"344 484 LINE",
"344 11 LINE",
"105 11 LINE"
);
}
);
width = 454;
}
);
note = uni0434;
rightKerningGroup = uni0432;
unicode = 0434;
},
{
color = 6;
glyphname = "zhe-cy";
lastChange = "2021-12-09 03:35:29 +0000";
layers = (
{
layerId = "5E1A2ACF-25BB-4872-A226-5327BC7330DB";
paths = (
{
closed = 1;
nodes = (
"38 0 LINE",
"88 95 OFFCURVE",
"138 162 OFFCURVE",
"188 257 CURVE",
"223 257 LINE",
"223 0 LINE",
"234 0 LINE",
"234 257 LINE",
"269 257 LINE",
"319 162 OFFCURVE",
"369 95 OFFCURVE",
"419 0 CURVE",
"432 0 LINE",
"280 261 LINE",
"430 495 LINE",
"415 495 LINE",
"270 267 LINE",
"234 267 LINE",
"234 495 LINE",
"223 495 LINE",
"223 267 LINE",
"187 267 LINE",
"42 495 LINE",
"27 495 LINE",
"177 261 LINE",
"25 0 LINE"
);
}
);
width = 457;
}
);
leftKerningGroup = uni0431;
note = uni0436;
unicode = 0436;
},
{
color = 6;
glyphname = "ze-cy";
lastChange = "2021-12-09 03:35:29 +0000";
layers = (
{
layerId = "5E1A2ACF-25BB-4872-A226-5327BC7330DB";
paths = (
{
closed = 1;
nodes = (
"303 -8 OFFCURVE",
"352 50 OFFCURVE",
"352 139 CURVE SMOOTH",
"352 207 OFFCURVE",
"325 253 OFFCURVE",
"245 264 CURVE",
"308 277 OFFCURVE",
"337 320 OFFCURVE",
"337 375 CURVE SMOOTH",
"337 451 OFFCURVE",
"295 499 OFFCURVE",
"211 499 CURVE SMOOTH",
"127 499 OFFCURVE",
"85 451 OFFCURVE",
"85 375 CURVE SMOOTH",
"85 363 LINE",
"97 363 LINE",
"97 374 LINE SMOOTH",
"97 442 OFFCURVE",
"132 489 OFFCURVE",
"211 489 CURVE SMOOTH",
"290 489 OFFCURVE",
"325 442 OFFCURVE",
"325 374 CURVE SMOOTH",
"325 318 OFFCURVE",
"283 269 OFFCURVE",
"211 269 CURVE SMOOTH",
"168 269 LINE",
"168 257 LINE",
"211 257 LINE SMOOTH",
"294 257 OFFCURVE",
"340 222 OFFCURVE",
"340 138 CURVE SMOOTH",
"340 50 OFFCURVE",
"291 2 OFFCURVE",
"211 2 CURVE SMOOTH",
"176 3 OFFCURVE",
"148 12 OFFCURVE",
"127 27 CURVE SMOOTH",
"97 49 OFFCURVE",
"82 86 OFFCURVE",
"82 137 CURVE SMOOTH",
"82 158 LINE",
"70 158 LINE",
"70 137 LINE SMOOTH",
"70 88 OFFCURVE",
"83 46 OFFCURVE",
"119 19 CURVE SMOOTH",
"142 3 OFFCURVE",
"170 -8 OFFCURVE",
"211 -8 CURVE SMOOTH"
);
}
);
width = 421;
}
);
note = uni0437;
unicode = 0437;
},
{
color = 6;
glyphname = "ii-cy";
lastChange = "2021-12-09 03:35:29 +0000";
layers = (
{
anchors = (
{
name = bottomright;
position = "{328, 0}";
},
{
name = top;
position = "{174, 495}";
}
);
layerId = "5E1A2ACF-25BB-4872-A226-5327BC7330DB";
paths = (
{
closed = 1;
nodes = (
"62 0 LINE",
"269 481 LINE",
"269 0 LINE",
"279 0 LINE",
"279 495 LINE",
"265 495 LINE",
"60 23 LINE",
"60 495 LINE",
"49 495 LINE",
"49 0 LINE"
);
}
);
width = 328;
}
);
leftKerningGroup = uni0431;
note = uni0438;
unicode = 0438;
},
{
color = 6;
glyphname = "iishort-cy";
lastChange = "2021-12-09 03:35:29 +0000";
layers = (
{
layerId = "5E1A2ACF-25BB-4872-A226-5327BC7330DB";
paths = (
{
closed = 1;
nodes = (
"62 0 LINE",
"269 481 LINE",
"269 0 LINE",
"279 0 LINE",
"279 495 LINE",
"265 495 LINE",
"60 23 LINE",
"60 495 LINE",
"49 495 LINE",
"49 0 LINE"
);
},
{
closed = 1;
nodes = (
"227 591 OFFCURVE",
"244 635 OFFCURVE",
"250 668 CURVE",
"239 668 LINE",
"232 620 OFFCURVE",
"201 599 OFFCURVE",
"161 599 CURVE SMOOTH",
"121 599 OFFCURVE",
"90 620 OFFCURVE",
"83 668 CURVE",
"72 668 LINE",
"78 635 OFFCURVE",
"97 591 OFFCURVE",
"161 591 CURVE SMOOTH"
);
}
);
width = 328;
}
);
leftKerningGroup = uni0431;
note = uni0439;
unicode = 0439;
},
{
color = 6;
glyphname = "ka-cy";
lastChange = "2021-12-09 03:35:29 +0000";
layers = (
{
layerId = "5E1A2ACF-25BB-4872-A226-5327BC7330DB";
paths = (
{
closed = 1;
nodes = (
"49 0 LINE",
"60 0 LINE",
"60 204 LINE",
"62 213 OFFCURVE",
"84 261 OFFCURVE",
"108 300 CURVE",
"256 0 LINE",
"268 0 LINE",
"114 311 LINE",
"157 378 OFFCURVE",
"215 447 OFFCURVE",
"276 468 CURVE",
"276 475 LINE",
"224 462 OFFCURVE",
"124 376 OFFCURVE",
"60 224 CURVE",
"60 496 LINE",
"49 496 LINE"
);
}
);
width = 306;
}
);
leftKerningGroup = uni0431;
note = uni043A;
unicode = 043A;
},
{
color = 6;
glyphname = "el-cy";
lastChange = "2021-12-09 03:35:29 +0000";
layers = (
{
layerId = "5E1A2ACF-25BB-4872-A226-5327BC7330DB";
paths = (
{
closed = 1;
nodes = (
"71 0 OFFCURVE",
"77 77 OFFCURVE",
"77 92 CURVE",
"112 484 LINE",
"288 484 LINE",
"288 1 LINE",
"300 1 LINE",
"300 495 LINE",
"100 495 LINE",
"65 92 LINE SMOOTH",
"61 36 OFFCURVE",
"47 11 OFFCURVE",
"20 11 CURVE",
"20 0 LINE"
);
}
);
width = 349;
}
);
leftKerningGroup = uni043B;
note = uni043B;
unicode = 043B;
},
{
color = 6;
glyphname = "em-cy";
lastChange = "2021-12-09 03:35:29 +0000";
layers = (
{
layerId = "5E1A2ACF-25BB-4872-A226-5327BC7330DB";
paths = (
{
closed = 1;
nodes = (
"61 0 LINE",
"61 445 LINE",
"212 0 LINE",
"226 0 LINE",
"376 445 LINE",
"376 0 LINE",
"388 0 LINE",
"388 495 LINE",
"380 495 LINE",
"219 15 LINE",
"58 495 LINE",
"49 495 LINE",
"49 0 LINE"
);
}
);
width = 437;
}
);
leftKerningGroup = uni0431;
note = uni043C;
unicode = 043C;
},
{
color = 6;
glyphname = "en-cy";
lastChange = "2021-12-09 03:35:29 +0000";
layers = (
{
layerId = "5E1A2ACF-25BB-4872-A226-5327BC7330DB";
paths = (
{
closed = 1;
nodes = (
"61 0 LINE",
"61 257 LINE",
"274 257 LINE",
"274 0 LINE",
"286 0 LINE",
"286 495 LINE",
"274 495 LINE",
"274 268 LINE",
"61 268 LINE",
"61 495 LINE",
"49 495 LINE",
"49 0 LINE"
);
}
);
width = 335;
}
);
leftKerningGroup = uni0431;
note = uni043D;
unicode = 043D;
},
{
color = 6;
glyphname = "pe-cy";
lastChange = "2021-12-09 03:35:29 +0000";
layers = (
{
layerId = "5E1A2ACF-25BB-4872-A226-5327BC7330DB";
paths = (
{
closed = 1;
nodes = (
"61 0 LINE",
"61 484 LINE",
"278 484 LINE",
"278 0 LINE",
"290 0 LINE",
"290 495 LINE",
"49 495 LINE",
"49 0 LINE"
);
}
);
width = 339;
}
);
leftKerningGroup = uni0431;
note = uni043F;
unicode = 043F;
},
{
color = 6;
glyphname = "te-cy";
lastChange = "2021-12-09 03:35:29 +0000";
layers = (
{
layerId = "5E1A2ACF-25BB-4872-A226-5327BC7330DB";
paths = (
{
closed = 1;
nodes = (
"145 0 LINE",
"145 484 LINE",
"259 484 LINE",
"259 495 LINE",
"20 495 LINE",
"20 484 LINE",
"133 484 LINE",
"133 0 LINE"
);
}
);
width = 278;
}
);
leftKerningGroup = uni0431;
note = uni0442;
unicode = 0442;
},
{
color = 6;
glyphname = "ushort-cy";
lastChange = "2021-12-09 03:35:29 +0000";
layers = (
{
layerId = "5E1A2ACF-25BB-4872-A226-5327BC7330DB";
paths = (
{
closed = 1;
nodes = (
"115 -115 OFFCURVE",
"142 -69 OFFCURVE",
"159 0 CURVE SMOOTH",
"281 495 LINE",
"269 495 LINE",
"151 14 LINE",
"35 495 LINE",
"22 495 LINE",
"145 -9 LINE",
"131 -82 OFFCURVE",
"86 -106 OFFCURVE",
"55 -106 CURVE SMOOTH",
"32 -106 OFFCURVE",
"9 -101 OFFCURVE",
"6 -100 CURVE",
"6 -109 LINE",
"9 -110 OFFCURVE",
"35 -115 OFFCURVE",
"55 -115 CURVE SMOOTH"
);
},
{
closed = 1;
nodes = (
"231 553 OFFCURVE",
"248 597 OFFCURVE",
"254 630 CURVE",
"243 630 LINE",
"236 582 OFFCURVE",
"205 561 OFFCURVE",
"165 561 CURVE SMOOTH",
"125 561 OFFCURVE",
"94 582 OFFCURVE",
"87 630 CURVE",
"76 630 LINE",
"82 597 OFFCURVE",
"101 553 OFFCURVE",
"165 553 CURVE SMOOTH"
);
}
);
width = 292;
}
);
leftKerningGroup = uni0431;
note = uni045E;
unicode = 045E;
},
{
color = 6;
glyphname = "ef-cy";
lastChange = "2021-12-09 03:35:29 +0000";
layers = (
{
layerId = "5E1A2ACF-25BB-4872-A226-5327BC7330DB";
paths = (
{
closed = 1;
nodes = (
"288 -116 LINE",
"288 48 LINE",
"301 16 OFFCURVE",
"330 -7 OFFCURVE",
"397 -7 CURVE SMOOTH",
"512 -7 OFFCURVE",
"516 62 OFFCURVE",
"516 124 CURVE SMOOTH",
"516 316 LINE SMOOTH",
"516 377 OFFCURVE",
"510 447 OFFCURVE",
"397 447 CURVE SMOOTH",
"330 447 OFFCURVE",
"301 424 OFFCURVE",
"288 393 CURVE",
"288 591 LINE",
"277 591 LINE",
"277 391 LINE",
"262 423 OFFCURVE",
"235 447 OFFCURVE",
"168 447 CURVE SMOOTH",
"53 447 OFFCURVE",
"49 377 OFFCURVE",
"49 316 CURVE SMOOTH",
"49 124 LINE SMOOTH",
"49 62 OFFCURVE",
"55 -7 OFFCURVE",
"168 -7 CURVE SMOOTH",
"235 -7 OFFCURVE",
"264 16 OFFCURVE",
"277 47 CURVE",
"277 -116 LINE"
);
},
{
closed = 1;
nodes = (
"65 3 OFFCURVE",
"60 68 OFFCURVE",
"60 127 CURVE SMOOTH",
"60 313 LINE SMOOTH",
"60 372 OFFCURVE",
"65 437 OFFCURVE",
"168 437 CURVE SMOOTH",
"271 437 OFFCURVE",
"277 372 OFFCURVE",
"277 313 CURVE SMOOTH",
"277 109 LINE SMOOTH",
"277 56 OFFCURVE",
"261 3 OFFCURVE",
"168 3 CURVE SMOOTH"
);
},
{
closed = 1;
nodes = (
"302 3 OFFCURVE",
"288 58 OFFCURVE",
"288 113 CURVE SMOOTH",
"288 331 LINE SMOOTH",
"288 384 OFFCURVE",
"304 437 OFFCURVE",
"397 437 CURVE SMOOTH",
"500 437 OFFCURVE",
"505 372 OFFCURVE",
"505 313 CURVE SMOOTH",
"505 127 LINE SMOOTH",
"505 68 OFFCURVE",
"500 3 OFFCURVE",
"397 3 CURVE SMOOTH"
);
}
);
width = 565;
}
);
note = uni0444;
unicode = 0444;
},
{
color = 6;
glyphname = "che-cy";
lastChange = "2021-12-09 03:35:29 +0000";
layers = (
{
layerId = "5E1A2ACF-25BB-4872-A226-5327BC7330DB";
paths = (
{
closed = 1;
nodes = (
"224 0 LINE",
"236 0 LINE",
"236 495 LINE",
"224 495 LINE",
"224 239 LINE",
"219 204 OFFCURVE",
"193 163 OFFCURVE",
"132 163 CURVE SMOOTH",
"47 163 OFFCURVE",
"42 228 OFFCURVE",
"42 287 CURVE SMOOTH",
"42 495 LINE",
"30 495 LINE",
"30 284 LINE SMOOTH",
"30 222 OFFCURVE",
"37 153 OFFCURVE",
"132 153 CURVE SMOOTH",
"184 153 OFFCURVE",
"212 180 OFFCURVE",
"224 211 CURVE"
);
}
);
width = 285;
}
);
note = uni0447;
unicode = 0447;
},
{
color = 6;
glyphname = "tse-cy";
lastChange = "2021-12-09 03:35:29 +0000";
layers = (
{
layerId = "5E1A2ACF-25BB-4872-A226-5327BC7330DB";
paths = (
{
closed = 1;
nodes = (
"313 -65 LINE",
"313 11 LINE",
"289 11 LINE",
"289 495 LINE",
"277 495 LINE",
"277 11 LINE",
"61 11 LINE",
"61 495 LINE",
"49 495 LINE",
"49 0 LINE",
"302 0 LINE",
"302 -65 LINE"
);
}
);
width = 362;
}
);
leftKerningGroup = uni0431;
note = uni0446;
rightKerningGroup = uni0432;
unicode = 0446;
},
{
color = 6;
glyphname = "sha-cy";
lastChange = "2021-12-09 03:35:29 +0000";
layers = (
{
layerId = "5E1A2ACF-25BB-4872-A226-5327BC7330DB";
paths = (
{
closed = 1;
nodes = (
"453 0 LINE",
"453 495 LINE",
"441 495 LINE",
"441 11 LINE",
"257 11 LINE",
"257 495 LINE",
"245 495 LINE",
"245 11 LINE",
"61 11 LINE",
"61 495 LINE",
"49 495 LINE",
"49 0 LINE"
);
}
);
width = 503;
}
);
leftKerningGroup = uni0431;
note = uni0448;
unicode = 0448;
},
{
color = 6;
glyphname = "shcha-cy";
lastChange = "2021-12-09 03:35:29 +0000";
layers = (
{
layerId = "5E1A2ACF-25BB-4872-A226-5327BC7330DB";
paths = (
{
closed = 1;
nodes = (
"477 -65 LINE",
"477 11 LINE",
"453 11 LINE",
"453 495 LINE",
"441 495 LINE",
"441 11 LINE",
"257 11 LINE",
"257 495 LINE",
"245 495 LINE",
"245 11 LINE",
"61 11 LINE",
"61 495 LINE",
"49 495 LINE",
"49 0 LINE",
"466 0 LINE",
"466 -65 LINE"
);
}
);
width = 526;
}
);
leftKerningGroup = uni0431;
note = uni0449;
rightKerningGroup = uni0432;
unicode = 0449;
},
{
color = 6;
glyphname = "dzhe-cy";
lastChange = "2021-12-09 03:35:29 +0000";
layers = (
{
layerId = "5E1A2ACF-25BB-4872-A226-5327BC7330DB";
paths = (
{
closed = 1;
nodes = (
"176 -113 LINE",
"176 0 LINE",
"289 0 LINE",
"289 495 LINE",
"277 495 LINE",
"277 11 LINE",
"61 11 LINE",
"61 495 LINE",
"49 495 LINE",
"49 0 LINE",
"165 0 LINE",
"165 -113 LINE"
);
}
);
width = 338;
}
);
leftKerningGroup = uni0431;
note = uni045F;
unicode = 045F;
},
{
color = 6;
glyphname = "softsign-cy";
lastChange = "2021-12-09 03:35:29 +0000";
layers = (
{
layerId = "5E1A2ACF-25BB-4872-A226-5327BC7330DB";
paths = (
{
closed = 1;
nodes = (
"169 0 LINE SMOOTH",
"282 0 OFFCURVE",
"288 69 OFFCURVE",
"288 131 CURVE SMOOTH",
"288 208 LINE SMOOTH",
"288 269 OFFCURVE",
"282 339 OFFCURVE",
"169 339 CURVE SMOOTH",
"60 339 LINE",
"60 492 LINE",
"49 492 LINE",
"49 0 LINE"
);
},
{
closed = 1;
nodes = (
"60 329 LINE",
"169 329 LINE SMOOTH",
"272 329 OFFCURVE",
"277 264 OFFCURVE",
"277 205 CURVE SMOOTH",
"277 134 LINE SMOOTH",
"277 75 OFFCURVE",
"272 10 OFFCURVE",
"169 10 CURVE SMOOTH",
"60 10 LINE"
);
}
);
width = 337;
}
);
leftKerningGroup = uni0431;
note = uni044C;
unicode = 044C;
},
{
color = 6;
glyphname = "hardsign-cy";
lastChange = "2021-12-09 03:35:29 +0000";
layers = (
{
layerId = "5E1A2ACF-25BB-4872-A226-5327BC7330DB";
paths = (
{
closed = 1;
nodes = (
"206 0 LINE SMOOTH",
"319 0 OFFCURVE",
"325 69 OFFCURVE",
"325 131 CURVE SMOOTH",
"325 208 LINE SMOOTH",
"325 269 OFFCURVE",
"319 339 OFFCURVE",
"206 339 CURVE SMOOTH",
"97 339 LINE",
"97 495 LINE",
"20 495 LINE",
"20 484 LINE",
"86 484 LINE",
"86 0 LINE"
);
},
{
closed = 1;
nodes = (
"97 329 LINE",
"206 329 LINE SMOOTH",
"309 329 OFFCURVE",
"314 264 OFFCURVE",
"314 205 CURVE SMOOTH",
"314 134 LINE SMOOTH",
"314 75 OFFCURVE",
"309 10 OFFCURVE",
"206 10 CURVE SMOOTH",
"97 10 LINE"
);
}
);
width = 374;
}
);
leftKerningGroup = uni0431;
note = uni044A;
unicode = 044A;
},
{
color = 6;
glyphname = "lje-cy";
lastChange = "2021-12-09 03:35:29 +0000";
layers = (
{
layerId = "5E1A2ACF-25BB-4872-A226-5327BC7330DB";
paths = (
{
closed = 1;
nodes = (
"71 0 OFFCURVE",
"77 77 OFFCURVE",
"77 92 CURVE",
"112 484 LINE",
"268 484 LINE",
"268 0 LINE",
"388 0 LINE SMOOTH",
"501 0 OFFCURVE",
"507 69 OFFCURVE",
"507 131 CURVE SMOOTH",
"507 208 LINE SMOOTH",
"507 269 OFFCURVE",
"501 339 OFFCURVE",
"388 339 CURVE SMOOTH",
"280 339 LINE",
"280 495 LINE",
"100 495 LINE",
"65 92 LINE SMOOTH",
"61 36 OFFCURVE",
"47 11 OFFCURVE",
"20 11 CURVE",
"20 0 LINE"
);
},
{
closed = 1;
nodes = (
"280 329 LINE",
"388 329 LINE SMOOTH",
"491 329 OFFCURVE",
"496 264 OFFCURVE",
"496 205 CURVE SMOOTH",
"496 134 LINE SMOOTH",
"496 75 OFFCURVE",
"491 10 OFFCURVE",
"388 10 CURVE SMOOTH",
"280 10 LINE"
);
}
);
width = 556;
}
);
leftKerningGroup = uni043B;
note = uni0459;
unicode = 0459;
},
{
color = 6;
glyphname = "nje-cy";
lastChange = "2021-12-09 03:35:29 +0000";
layers = (
{
layerId = "5E1A2ACF-25BB-4872-A226-5327BC7330DB";
paths = (
{
closed = 1;
nodes = (
"60 0 LINE",
"60 246 LINE",
"147 246 LINE",
"147 0 LINE",
"267 0 LINE SMOOTH",
"380 0 OFFCURVE",
"386 69 OFFCURVE",
"386 131 CURVE SMOOTH",
"386 208 LINE SMOOTH",
"386 269 OFFCURVE",
"380 339 OFFCURVE",
"267 339 CURVE SMOOTH",
"158 339 LINE",
"158 492 LINE",
"147 492 LINE",
"147 255 LINE",
"60 255 LINE",
"60 495 LINE",
"49 495 LINE",
"49 0 LINE"
);
},
{
closed = 1;
nodes = (
"158 329 LINE",
"267 329 LINE SMOOTH",
"370 329 OFFCURVE",
"375 264 OFFCURVE",
"375 205 CURVE SMOOTH",
"375 134 LINE SMOOTH",
"375 75 OFFCURVE",
"370 10 OFFCURVE",
"267 10 CURVE SMOOTH",
"158 10 LINE"
);
}
);
width = 435;
}
);
leftKerningGroup = uni0431;
note = uni045A;
unicode = 045A;
},
{
color = 6;
glyphname = "e-cy";
lastChange = "2021-12-09 03:35:29 +0000";
layers = (
{
layerId = "5E1A2ACF-25BB-4872-A226-5327BC7330DB";
paths = (
{
closed = 1;
nodes = (
"282 -7 OFFCURVE",
"288 62 OFFCURVE",
"288 124 CURVE SMOOTH",
"288 167 LINE",
"277 167 LINE",
"277 127 LINE SMOOTH",
"277 68 OFFCURVE",
"272 3 OFFCURVE",
"169 3 CURVE SMOOTH",
"65 3 OFFCURVE",
"60 68 OFFCURVE",
"60 127 CURVE SMOOTH",
"60 246 LINE",
"221 246 LINE",
"221 255 LINE",
"60 255 LINE",
"60 369 LINE SMOOTH",
"60 428 OFFCURVE",
"65 493 OFFCURVE",
"169 493 CURVE SMOOTH",
"272 493 OFFCURVE",
"277 428 OFFCURVE",
"277 369 CURVE SMOOTH",
"277 328 LINE",
"288 328 LINE",
"288 372 LINE SMOOTH",
"288 433 OFFCURVE",
"282 503 OFFCURVE",
"169 503 CURVE SMOOTH",
"54 503 OFFCURVE",
"49 433 OFFCURVE",
"49 372 CURVE SMOOTH",
"49 124 LINE SMOOTH",
"49 62 OFFCURVE",
"54 -7 OFFCURVE",
"169 -7 CURVE SMOOTH"
);
}
);
width = 337;
}
);
leftKerningGroup = uni0431;
note = uni0454;
unicode = 0454;
},
{
color = 6;
glyphname = "ereversed-cy";
lastChange = "2021-12-09 03:35:29 +0000";
layers = (
{
layerId = "5E1A2ACF-25BB-4872-A226-5327BC7330DB";
paths = (
{
closed = 1;
nodes = (
"283 -7 OFFCURVE",
"288 62 OFFCURVE",
"288 124 CURVE SMOOTH",
"288 372 LINE SMOOTH",
"288 433 OFFCURVE",
"283 503 OFFCURVE",
"168 503 CURVE SMOOTH",
"55 503 OFFCURVE",
"49 433 OFFCURVE",
"49 372 CURVE SMOOTH",
"49 328 LINE",
"60 328 LINE",
"60 369 LINE SMOOTH",
"60 428 OFFCURVE",
"65 493 OFFCURVE",
"168 493 CURVE SMOOTH",
"272 493 OFFCURVE",
"277 428 OFFCURVE",
"277 369 CURVE SMOOTH",
"277 255 LINE",
"134 255 LINE",
"134 246 LINE",
"277 246 LINE",
"277 127 LINE SMOOTH",
"277 68 OFFCURVE",
"272 3 OFFCURVE",
"168 3 CURVE SMOOTH",
"65 3 OFFCURVE",
"60 68 OFFCURVE",
"60 127 CURVE SMOOTH",
"60 167 LINE",
"49 167 LINE",
"49 124 LINE SMOOTH",
"49 62 OFFCURVE",
"55 -7 OFFCURVE",
"168 -7 CURVE SMOOTH"
);
}
);
width = 337;
}
);
note = uni044D;
unicode = 044D;
},
{
color = 6;
glyphname = "tshe-cy";
lastChange = "2021-12-09 03:35:29 +0000";
layers = (
{
layerId = "5E1A2ACF-25BB-4872-A226-5327BC7330DB";
paths = (
{
closed = 1;
nodes = (
"106 0 LINE",
"106 359 LINE",
"111 394 OFFCURVE",
"142 435 OFFCURVE",
"215 435 CURVE SMOOTH",
"319 435 OFFCURVE",
"322 370 OFFCURVE",
"322 311 CURVE SMOOTH",
"322 0 LINE",
"334 0 LINE",
"334 314 LINE SMOOTH",
"334 375 OFFCURVE",
"328 445 OFFCURVE",
"215 445 CURVE SMOOTH",
"152 445 OFFCURVE",
"121 418 OFFCURVE",
"106 387 CURVE",
"106 537 LINE",
"222 537 LINE",
"222 548 LINE",
"106 548 LINE",
"106 630 LINE",
"94 630 LINE",
"94 548 LINE",
"49 548 LINE",
"49 537 LINE",
"94 537 LINE",
"94 0 LINE"
);
}
);
width = 384;
}
);
leftKerningGroup = uni0431;
note = uni045B;
unicode = 045B;
},
{
color = 6;
glyphname = "iu-cy";
lastChange = "2021-12-09 03:35:29 +0000";
layers = (
{
layerId = "5E1A2ACF-25BB-4872-A226-5327BC7330DB";
paths = (
{
closed = 1;
nodes = (
"471 -7 OFFCURVE",
"477 62 OFFCURVE",
"477 124 CURVE SMOOTH",
"477 372 LINE SMOOTH",
"477 433 OFFCURVE",
"471 503 OFFCURVE",
"358 503 CURVE SMOOTH",
"243 503 OFFCURVE",
"238 433 OFFCURVE",
"238 372 CURVE SMOOTH",
"238 255 LINE",
"60 255 LINE",
"60 495 LINE",
"49 495 LINE",
"49 0 LINE",
"60 0 LINE",
"60 246 LINE",
"238 246 LINE",
"238 124 LINE SMOOTH",
"238 62 OFFCURVE",
"243 -7 OFFCURVE",
"358 -7 CURVE SMOOTH"
);
},
{
closed = 1;
nodes = (
"254 3 OFFCURVE",
"249 68 OFFCURVE",
"249 127 CURVE SMOOTH",
"249 369 LINE SMOOTH",
"249 428 OFFCURVE",
"254 493 OFFCURVE",
"358 493 CURVE SMOOTH",
"461 493 OFFCURVE",
"466 428 OFFCURVE",
"466 369 CURVE SMOOTH",
"466 127 LINE SMOOTH",
"466 68 OFFCURVE",
"461 3 OFFCURVE",
"358 3 CURVE SMOOTH"
);
}
);
width = 526;
}
);
leftKerningGroup = uni0431;
note = uni044E;
unicode = 044E;
},
{
color = 6;
glyphname = "ia-cy";
lastChange = "2021-12-09 03:35:29 +0000";
layers = (
{
layerId = "5E1A2ACF-25BB-4872-A226-5327BC7330DB";
paths = (
{
closed = 1;
nodes = (
"63 0 LINE",
"124 156 LINE SMOOTH",
"144 207 OFFCURVE",
"166 243 OFFCURVE",
"207 243 CURVE SMOOTH",
"294 243 LINE",
"294 0 LINE",
"306 0 LINE",
"306 495 LINE",
"176 495 LINE SMOOTH",
"119 495 OFFCURVE",
"70 470 OFFCURVE",
"70 398 CURVE SMOOTH",
"70 362 LINE SMOOTH",
"70 279 OFFCURVE",
"121 247 OFFCURVE",
"184 247 CURVE",
"153 244 OFFCURVE",
"128 206 OFFCURVE",
"118 175 CURVE",
"49 0 LINE"
);
},
{
closed = 1;
nodes = (
"133 254 OFFCURVE",
"82 282 OFFCURVE",
"82 360 CURVE SMOOTH",
"82 400 LINE SMOOTH",
"82 457 OFFCURVE",
"123 484 OFFCURVE",
"168 484 CURVE SMOOTH",
"294 484 LINE",
"294 254 LINE",
"201 254 LINE SMOOTH"
);
}
);
width = 356;
}
);
leftKerningGroup = uni043B;
note = uni044F;
unicode = 044F;
},
{
color = 6;
glyphname = "dje-cy";
lastChange = "2021-12-09 03:35:29 +0000";
layers = (
{
layerId = "5E1A2ACF-25BB-4872-A226-5327BC7330DB";
paths = (
{
closed = 1;
nodes = (
"270 -94 OFFCURVE",
"322 -86 OFFCURVE",
"322 61 CURVE SMOOTH",
"322 302 LINE SMOOTH",
"322 363 OFFCURVE",
"316 433 OFFCURVE",
"203 433 CURVE SMOOTH",
"140 433 OFFCURVE",
"109 406 OFFCURVE",
"94 375 CURVE",
"94 537 LINE",
"197 537 LINE",
"197 548 LINE",
"94 548 LINE",
"94 630 LINE",
"82 630 LINE",
"82 548 LINE",
"24 548 LINE",
"24 537 LINE",
"82 537 LINE",
"82 0 LINE",
"94 0 LINE",
"94 347 LINE",
"99 382 OFFCURVE",
"130 423 OFFCURVE",
"203 423 CURVE SMOOTH",
"307 423 OFFCURVE",
"310 358 OFFCURVE",
"310 299 CURVE SMOOTH",
"310 66 LINE SMOOTH",
"310 -26 OFFCURVE",
"298 -84 OFFCURVE",
"221 -84 CURVE SMOOTH",
"198 -84 OFFCURVE",
"182 -78 OFFCURVE",
"173 -73 CURVE",
"168 -82 LINE",
"179 -89 OFFCURVE",
"197 -94 OFFCURVE",
"220 -94 CURVE SMOOTH"
);
}
);
width = 376;
}
);
leftKerningGroup = uni0431;
note = uni0452;
unicode = 0452;
},
{
glyphname = "yat-cy";
lastChange = "2021-12-09 03:35:29 +0000";
layers = (
{
associatedMasterId = "5E1A2ACF-25BB-4872-A226-5327BC7330DB";
background = {
components = (
{
name = hyphen;
transform = "{1.49953, 0, 0, 0.66803, -40, 220}";
}
);
paths = (
{
closed = 1;
nodes = (
"272 0 LINE SMOOTH",
"348 0 OFFCURVE",
"408 10 OFFCURVE",
"408 161 CURVE SMOOTH",
"408 228 LINE SMOOTH",
"408 327 OFFCURVE",
"346 340 OFFCURVE",
"297 340 CURVE SMOOTH",
"218 340 LINE",
"218 495 LINE",
"62 495 LINE",
"62 0 LINE"
);
},
{
closed = 1;
nodes = (
"218 245 LINE",
"235 245 LINE SMOOTH",
"251 245 OFFCURVE",
"252 238 OFFCURVE",
"252 206 CURVE SMOOTH",
"252 110 LINE SMOOTH",
"252 87 OFFCURVE",
"250 79 OFFCURVE",
"235 79 CURVE SMOOTH",
"218 79 LINE"
);
}
);
};
components = (
{
name = hyphen;
transform = "{1.49953, 0, 0, 0.66803, -40, 220}";
}
);
layerId = "8A3706BD-364F-4FE3-9C2E-7E87DF0DB4CC";
name = Black;
paths = (
{
closed = 1;
nodes = (
"272 0 LINE SMOOTH",
"348 0 OFFCURVE",
"408 10 OFFCURVE",
"408 161 CURVE SMOOTH",
"408 228 LINE SMOOTH",
"408 327 OFFCURVE",
"346 340 OFFCURVE",
"297 340 CURVE SMOOTH",
"218 340 LINE",
"218 495 LINE",
"62 495 LINE",
"62 0 LINE"
);
},
{
closed = 1;
nodes = (
"218 245 LINE",
"235 245 LINE SMOOTH",
"251 245 OFFCURVE",
"252 238 OFFCURVE",
"252 206 CURVE SMOOTH",
"252 110 LINE SMOOTH",
"252 87 OFFCURVE",
"250 79 OFFCURVE",
"235 79 CURVE SMOOTH",
"218 79 LINE"
);
}
);
width = 433;
},
{
components = (
{
name = "softsign-cy";
},
{
alignment = -1;
name = hyphen;
transform = "{1.01469, 0, 0, 0.99024, -39, 159}";
}
);
layerId = "5E1A2ACF-25BB-4872-A226-5327BC7330DB";
width = 337;
}
);
unicode = 0463;
},
{
glyphname = "yusbig-cy";
lastChange = "2021-12-09 03:35:29 +0000";
layers = (
{
associatedMasterId = "5E1A2ACF-25BB-4872-A226-5327BC7330DB";
background = {
paths = (
{
closed = 1;
nodes = (
"168 0 LINE",
"200 193 LINE SMOOTH",
"202 201 OFFCURVE",
"203 210 OFFCURVE",
"204 219 CURVE SMOOTH",
"209 250 LINE",
"210 0 LINE",
"350 0 LINE",
"350 251 LINE",
"358 209 LINE",
"358 202 OFFCURVE",
"360 194 OFFCURVE",
"361 188 CURVE SMOOTH",
"392 0 LINE",
"540 0 LINE",
"494 212 LINE",
"478 255 OFFCURVE",
"453 279 OFFCURVE",
"430 281 CURVE SMOOTH",
"385 284 LINE",
"533 405 LINE",
"533 495 LINE",
"22 495 LINE",
"22 405 LINE",
"170 283 LINE",
"130 281 LINE SMOOTH",
"107 279 OFFCURVE",
"82 255 OFFCURVE",
"66 212 CURVE",
"20 0 LINE"
);
},
{
closed = 1;
nodes = (
"174 405 LINE",
"380 405 LINE",
"277 331 LINE"
);
}
);
};
layerId = "8A3706BD-364F-4FE3-9C2E-7E87DF0DB4CC";
name = Black;
paths = (
{
closed = 1;
nodes = (
"168 0 LINE",
"200 193 LINE SMOOTH",
"202 201 OFFCURVE",
"203 210 OFFCURVE",
"204 219 CURVE SMOOTH",
"209 250 LINE",
"210 0 LINE",
"350 0 LINE",
"350 251 LINE",
"358 209 LINE",
"358 202 OFFCURVE",
"360 194 OFFCURVE",
"361 188 CURVE SMOOTH",
"392 0 LINE",
"540 0 LINE",
"494 212 LINE",
"478 255 OFFCURVE",
"453 279 OFFCURVE",
"430 281 CURVE SMOOTH",
"385 284 LINE",
"533 405 LINE",
"533 495 LINE",
"22 495 LINE",
"22 405 LINE",
"170 283 LINE",
"130 281 LINE SMOOTH",
"107 279 OFFCURVE",
"82 255 OFFCURVE",
"66 212 CURVE",
"20 0 LINE"
);
},
{
closed = 1;
nodes = (
"174 405 LINE",
"380 405 LINE",
"277 331 LINE"
);
}
);
width = 661;
},
{
layerId = "5E1A2ACF-25BB-4872-A226-5327BC7330DB";
paths = (
{
closed = 1;
nodes = (
"55 0 LINE",
"108 187 LINE SMOOTH",
"118 221 OFFCURVE",
"129 262 OFFCURVE",
"185 262 CURVE SMOOTH",
"273 262 LINE",
"273 0 LINE",
"285 0 LINE",
"285 262 LINE",
"365 262 LINE SMOOTH",
"420 262 OFFCURVE",
"441 226 OFFCURVE",
"452 187 CURVE SMOOTH",
"503 0 LINE",
"515 0 LINE",
"461 189 LINE SMOOTH",
"449 230 OFFCURVE",
"436 272 OFFCURVE",
"357 272 CURVE SMOOTH",
"292 272 LINE",
"533 483 LINE",
"533 495 LINE",
"25 495 LINE",
"25 483 LINE",
"267 272 LINE",
"187 272 LINE SMOOTH",
"127 272 OFFCURVE",
"109 230 OFFCURVE",
"98 189 CURVE SMOOTH",
"43 0 LINE"
);
},
{
closed = 1;
nodes = (
"43 484 LINE",
"516 484 LINE",
"280 275 LINE"
);
}
);
width = 657;
}
);
unicode = 046B;
},
{
color = 6;
glyphname = Omega;
lastChange = "2021-12-09 03:35:29 +0000";
layers = (
{
layerId = "5E1A2ACF-25BB-4872-A226-5327BC7330DB";
paths = (
{
closed = 1;
nodes = (
"257 0 LINE",
"257 6 LINE",
"111 109 OFFCURVE",
"104 226 OFFCURVE",
"104 322 CURVE SMOOTH",
"104 458 OFFCURVE",
"169 554 OFFCURVE",
"299 554 CURVE SMOOTH",
"430 554 OFFCURVE",
"493 459 OFFCURVE",
"493 347 CURVE SMOOTH",
"493 227 OFFCURVE",
"488 113 OFFCURVE",
"339 6 CURVE",
"339 0 LINE",
"548 0 LINE",
"548 11 LINE",
"367 11 LINE",
"508 128 OFFCURVE",
"508 234 OFFCURVE",
"508 337 CURVE SMOOTH",
"508 465 OFFCURVE",
"437 564 OFFCURVE",
"299 564 CURVE SMOOTH",
"160 564 OFFCURVE",
"89 466 OFFCURVE",
"89 331 CURVE SMOOTH",
"89 231 OFFCURVE",
"89 129 OFFCURVE",
"231 11 CURVE",
"50 11 LINE",
"50 0 LINE"
);
}
);
width = 597;
}
);
note = uni03A9;
unicode = 03A9;
},
{
color = 6;
glyphname = pi;
lastChange = "2021-12-09 03:35:29 +0000";
layers = (
{
layerId = "5E1A2ACF-25BB-4872-A226-5327BC7330DB";
paths = (
{
closed = 1;
nodes = (
"131 0 LINE",
"166 168 OFFCURVE",
"197 349 OFFCURVE",
"197 483 CURVE",
"405 483 LINE",
"405 0 LINE",
"417 0 LINE",
"417 483 LINE",
"502 483 LINE",
"502 495 LINE",
"214 495 LINE SMOOTH",
"124 495 OFFCURVE",
"87 486 OFFCURVE",
"49 470 CURVE",
"49 459 LINE",
"90 475 OFFCURVE",
"128 481 OFFCURVE",
"185 484 CURVE",
"185 326 OFFCURVE",
"143 112 OFFCURVE",
"119 0 CURVE"
);
}
);
width = 594;
}
);
note = pi;
unicode = 03C0;
},
{
color = 6;
glyphname = zero;
lastChange = "2021-12-09 03:35:29 +0000";
layers = (
{
layerId = "5E1A2ACF-25BB-4872-A226-5327BC7330DB";
paths = (
{
closed = 1;
nodes = (
"277 -12 OFFCURVE",
"340 41 OFFCURVE",
"340 158 CURVE SMOOTH",
"340 428 LINE SMOOTH",
"340 544 OFFCURVE",
"277 599 OFFCURVE",
"200 599 CURVE SMOOTH",
"124 599 OFFCURVE",
"58 546 OFFCURVE",
"58 428 CURVE SMOOTH",
"58 158 LINE SMOOTH",
"58 41 OFFCURVE",
"122 -12 OFFCURVE",
"198 -12 CURVE SMOOTH"
);
},
{
closed = 1;
nodes = (
"127 -2 OFFCURVE",
"72 57 OFFCURVE",
"72 161 CURVE SMOOTH",
"72 426 LINE SMOOTH",
"72 530 OFFCURVE",
"127 589 OFFCURVE",
"199 589 CURVE SMOOTH",
"271 589 OFFCURVE",
"326 530 OFFCURVE",
"326 426 CURVE SMOOTH",
"326 161 LINE SMOOTH",
"326 57 OFFCURVE",
"272 -2 OFFCURVE",
"199 -2 CURVE SMOOTH"
);
}
);
width = 398;
}
);
leftKerningGroup = zero;
note = zero;
rightKerningGroup = zero;
unicode = 0030;
},
{
color = 6;
glyphname = one;
lastChange = "2021-12-09 03:35:29 +0000";
layers = (
{
layerId = "5E1A2ACF-25BB-4872-A226-5327BC7330DB";
paths = (
{
closed = 1;
nodes = (
"122 0 LINE",
"122 591 LINE",
"111 591 LINE",
"111 546 LINE SMOOTH",
"111 515 OFFCURVE",
"95 498 OFFCURVE",
"66 498 CURVE SMOOTH",
"25 498 LINE",
"25 488 LINE",
"110 488 LINE",
"110 0 LINE"
);
}
);
width = 200;
}
);
leftKerningGroup = one;
note = one;
rightKerningGroup = one;
unicode = 0031;
},
{
color = 6;
glyphname = two;
lastChange = "2021-12-09 03:35:29 +0000";
layers = (
{
layerId = "5E1A2ACF-25BB-4872-A226-5327BC7330DB";
paths = (
{
closed = 1;
nodes = (
"326 0 LINE",
"326 11 LINE",
"68 11 LINE",
"68 105 LINE SMOOTH",
"68 196 OFFCURVE",
"126 218 OFFCURVE",
"182 250 CURVE SMOOTH",
"274 301 OFFCURVE",
"321 358 OFFCURVE",
"321 450 CURVE SMOOTH",
"321 545 OFFCURVE",
"277 595 OFFCURVE",
"184 595 CURVE SMOOTH",
"100 595 OFFCURVE",
"50 551 OFFCURVE",
"50 458 CURVE SMOOTH",
"50 409 LINE",
"63 409 LINE",
"63 462 LINE SMOOTH",
"63 543 OFFCURVE",
"111 583 OFFCURVE",
"184 583 CURVE SMOOTH",
"267 583 OFFCURVE",
"307 538 OFFCURVE",
"307 454 CURVE SMOOTH",
"307 440 LINE SMOOTH",
"307 355 OFFCURVE",
"246 299 OFFCURVE",
"178 261 CURVE SMOOTH",
"104 222 OFFCURVE",
"54 195 OFFCURVE",
"54 105 CURVE SMOOTH",
"54 0 LINE"
);
}
);
width = 361;
}
);
leftKerningGroup = two;
note = two;
rightKerningGroup = two;
unicode = 0032;
},
{
color = 6;
glyphname = three;
lastChange = "2021-12-09 03:35:29 +0000";
layers = (
{
layerId = "5E1A2ACF-25BB-4872-A226-5327BC7330DB";
paths = (
{
closed = 1;
nodes = (
"230 -8 OFFCURVE",
"258 3 OFFCURVE",
"281 19 CURVE SMOOTH",
"317 46 OFFCURVE",
"330 88 OFFCURVE",
"330 137 CURVE SMOOTH",
"330 163 LINE SMOOTH",
"330 232 OFFCURVE",
"299 298 OFFCURVE",
"219 309 CURVE",
"283 321 OFFCURVE",
"324 373 OFFCURVE",
"324 442 CURVE SMOOTH",
"324 460 LINE SMOOTH",
"324 543 OFFCURVE",
"278 595 OFFCURVE",
"189 595 CURVE SMOOTH",
"100 595 OFFCURVE",
"54 543 OFFCURVE",
"54 460 CURVE SMOOTH",
"54 429 LINE",
"67 429 LINE",
"67 459 LINE SMOOTH",
"67 534 OFFCURVE",
"105 584 OFFCURVE",
"189 584 CURVE SMOOTH",
"273 584 OFFCURVE",
"311 534 OFFCURVE",
"311 459 CURVE SMOOTH",
"311 440 LINE SMOOTH",
"311 370 OFFCURVE",
"261 315 OFFCURVE",
"189 315 CURVE SMOOTH",
"125 315 LINE",
"125 303 LINE",
"189 303 LINE SMOOTH",
"272 303 OFFCURVE",
"318 247 OFFCURVE",
"318 163 CURVE SMOOTH",
"318 137 LINE SMOOTH",
"318 86 OFFCURVE",
"303 49 OFFCURVE",
"273 27 CURVE SMOOTH",
"252 12 OFFCURVE",
"224 3 OFFCURVE",
"189 2 CURVE SMOOTH",
"154 3 OFFCURVE",
"126 12 OFFCURVE",
"105 27 CURVE SMOOTH",
"75 49 OFFCURVE",
"60 86 OFFCURVE",
"60 137 CURVE SMOOTH",
"60 183 LINE",
"48 183 LINE",
"48 137 LINE SMOOTH",
"48 88 OFFCURVE",
"61 46 OFFCURVE",
"97 19 CURVE SMOOTH",
"120 3 OFFCURVE",
"148 -8 OFFCURVE",
"189 -8 CURVE SMOOTH"
);
}
);
width = 383;
}
);
leftKerningGroup = three;
note = three;
rightKerningGroup = three;
unicode = 0033;
},
{
color = 6;
glyphname = four;
lastChange = "2021-12-09 03:35:29 +0000";
layers = (
{
background = {
paths = (
{
closed = 1;
nodes = (
"258 0 LINE",
"258 124 LINE",
"310 124 LINE",
"310 135 LINE",
"258 135 LINE",
"258 591 LINE",
"250 591 LINE",
"20 134 LINE",
"20 124 LINE",
"246 124 LINE",
"246 0 LINE"
);
},
{
closed = 1;
nodes = (
"246 559 LINE",
"246 135 LINE",
"33 135 LINE"
);
}
);
};
layerId = "5E1A2ACF-25BB-4872-A226-5327BC7330DB";
paths = (
{
closed = 1;
nodes = (
"258 0 LINE",
"258 124 LINE",
"310 124 LINE",
"310 134 LINE",
"258 134 LINE",
"258 591 LINE",
"250 591 LINE",
"20 134 LINE",
"20 124 LINE",
"246 124 LINE",
"246 0 LINE"
);
},
{
closed = 1;
nodes = (
"246 559 LINE",
"246 134 LINE",
"32 134 LINE"
);
}
);
width = 332;
}
);
leftKerningGroup = four;
note = four;
rightKerningGroup = parenright;
unicode = 0034;
},
{
color = 6;
glyphname = five;
lastChange = "2021-12-09 03:35:29 +0000";
layers = (
{
layerId = "5E1A2ACF-25BB-4872-A226-5327BC7330DB";
paths = (
{
closed = 1;
nodes = (
"262 -8 OFFCURVE",
"338 19 OFFCURVE",
"338 163 CURVE SMOOTH",
"338 241 LINE SMOOTH",
"338 360 OFFCURVE",
"280 392 OFFCURVE",
"198 392 CURVE SMOOTH",
"142 392 OFFCURVE",
"96 369 OFFCURVE",
"72 328 CURVE",
"72 580 LINE",
"318 580 LINE",
"318 591 LINE",
"61 591 LINE",
"61 296 LINE",
"71 296 LINE",
"74 332 OFFCURVE",
"121 383 OFFCURVE",
"198 383 CURVE SMOOTH",
"303 383 OFFCURVE",
"327 317 OFFCURVE",
"327 242 CURVE SMOOTH",
"327 160 LINE SMOOTH",
"327 56 OFFCURVE",
"275 4 OFFCURVE",
"195 4 CURVE SMOOTH",
"71 4 OFFCURVE",
"64 94 OFFCURVE",
"64 154 CURVE SMOOTH",
"64 168 LINE",
"53 168 LINE",
"53 151 LINE SMOOTH",
"53 0 OFFCURVE",
"139 -8 OFFCURVE",
"194 -8 CURVE SMOOTH"
);
}
);
width = 391;
}
);
leftKerningGroup = five;
note = five;
rightKerningGroup = five;
unicode = 0035;
},
{
color = 6;
glyphname = six;
lastChange = "2021-12-09 03:35:29 +0000";
layers = (
{
layerId = "5E1A2ACF-25BB-4872-A226-5327BC7330DB";
paths = (
{
closed = 1;
nodes = (
"252 -9 OFFCURVE",
"346 13 OFFCURVE",
"346 158 CURVE SMOOTH",
"346 205 LINE SMOOTH",
"346 322 OFFCURVE",
"289 355 OFFCURVE",
"212 355 CURVE SMOOTH",
"144 355 OFFCURVE",
"102 326 OFFCURVE",
"70 282 CURVE",
"70 459 LINE SMOOTH",
"70 530 OFFCURVE",
"119 587 OFFCURVE",
"199 587 CURVE SMOOTH",
"274 587 OFFCURVE",
"318 545 OFFCURVE",
"318 465 CURVE SMOOTH",
"318 454 LINE",
"330 454 LINE",
"330 461 LINE SMOOTH",
"330 554 OFFCURVE",
"282 598 OFFCURVE",
"199 598 CURVE SMOOTH",
"114 598 OFFCURVE",
"58 543 OFFCURVE",
"58 455 CURVE SMOOTH",
"58 149 LINE SMOOTH",
"58 13 OFFCURVE",
"148 -9 OFFCURVE",
"208 -9 CURVE SMOOTH"
);
},
{
closed = 1;
nodes = (
"119 1 OFFCURVE",
"69 54 OFFCURVE",
"69 152 CURVE SMOOTH",
"69 256 LINE",
"77 292 OFFCURVE",
"131 346 OFFCURVE",
"212 346 CURVE SMOOTH",
"313 346 OFFCURVE",
"335 277 OFFCURVE",
"335 197 CURVE SMOOTH",
"335 158 LINE SMOOTH",
"335 54 OFFCURVE",
"282 1 OFFCURVE",
"208 1 CURVE SMOOTH"
);
}
);
width = 401;
}
);
leftKerningGroup = six;
note = six;
rightKerningGroup = six;
unicode = 0036;
},
{
color = 6;
glyphname = seven;
lastChange = "2021-12-09 03:35:29 +0000";
layers = (
{
layerId = "5E1A2ACF-25BB-4872-A226-5327BC7330DB";
paths = (
{
closed = 1;
nodes = (
"74 0 LINE",
"243 581 LINE",
"243 591 LINE",
"15 591 LINE",
"15 580 LINE",
"230 580 LINE",
"62 0 LINE"
);
}
);
width = 273;
}
);
leftKerningGroup = seven;
note = seven;
rightKerningGroup = seven;
unicode = 0037;
},
{
color = 6;
glyphname = eight;
lastChange = "2021-12-09 03:35:29 +0000";
layers = (
{
layerId = "5E1A2ACF-25BB-4872-A226-5327BC7330DB";
paths = (
{
closed = 1;
nodes = (
"235 -8 OFFCURVE",
"263 3 OFFCURVE",
"286 19 CURVE SMOOTH",
"322 46 OFFCURVE",
"335 88 OFFCURVE",
"335 137 CURVE SMOOTH",
"335 163 LINE SMOOTH",
"335 232 OFFCURVE",
"304 298 OFFCURVE",
"224 309 CURVE",
"288 321 OFFCURVE",
"329 373 OFFCURVE",
"329 442 CURVE SMOOTH",
"329 460 LINE SMOOTH",
"329 543 OFFCURVE",
"283 595 OFFCURVE",
"194 595 CURVE SMOOTH",
"105 595 OFFCURVE",
"59 543 OFFCURVE",
"59 460 CURVE SMOOTH",
"59 442 LINE SMOOTH",
"59 373 OFFCURVE",
"100 321 OFFCURVE",
"164 309 CURVE",
"84 298 OFFCURVE",
"53 232 OFFCURVE",
"53 163 CURVE SMOOTH",
"53 137 LINE SMOOTH",
"53 88 OFFCURVE",
"66 46 OFFCURVE",
"102 19 CURVE SMOOTH",
"125 3 OFFCURVE",
"153 -8 OFFCURVE",
"194 -8 CURVE SMOOTH"
);
},
{
closed = 1;
nodes = (
"159 3 OFFCURVE",
"131 12 OFFCURVE",
"110 27 CURVE SMOOTH",
"80 49 OFFCURVE",
"65 86 OFFCURVE",
"65 137 CURVE SMOOTH",
"65 163 LINE SMOOTH",
"65 247 OFFCURVE",
"111 303 OFFCURVE",
"194 303 CURVE SMOOTH",
"277 303 OFFCURVE",
"323 247 OFFCURVE",
"323 163 CURVE SMOOTH",
"323 137 LINE SMOOTH",
"323 86 OFFCURVE",
"308 49 OFFCURVE",
"278 27 CURVE SMOOTH",
"257 12 OFFCURVE",
"229 3 OFFCURVE",
"194 2 CURVE SMOOTH"
);
},
{
closed = 1;
nodes = (
"122 315 OFFCURVE",
"72 370 OFFCURVE",
"72 440 CURVE SMOOTH",
"72 459 LINE SMOOTH",
"72 534 OFFCURVE",
"110 584 OFFCURVE",
"194 584 CURVE SMOOTH",
"278 584 OFFCURVE",
"316 534 OFFCURVE",
"316 459 CURVE SMOOTH",
"316 440 LINE SMOOTH",
"316 370 OFFCURVE",
"266 315 OFFCURVE",
"194 315 CURVE SMOOTH"
);
}
);
width = 388;
}
);
leftKerningGroup = eight;
note = eight;
rightKerningGroup = eight;
unicode = 0038;
},
{
color = 6;
glyphname = nine;
lastChange = "2021-12-09 03:35:29 +0000";
layers = (
{
guideLines = (
{
position = "{-46, -8}";
}
);
layerId = "5E1A2ACF-25BB-4872-A226-5327BC7330DB";
paths = (
{
closed = 1;
nodes = (
"147 594 OFFCURVE",
"53 572 OFFCURVE",
"53 427 CURVE SMOOTH",
"53 380 LINE SMOOTH",
"53 263 OFFCURVE",
"110 230 OFFCURVE",
"187 230 CURVE SMOOTH",
"255 230 OFFCURVE",
"297 259 OFFCURVE",
"329 303 CURVE",
"329 131 LINE SMOOTH",
"329 60 OFFCURVE",
"280 3 OFFCURVE",
"200 3 CURVE SMOOTH",
"125 3 OFFCURVE",
"81 45 OFFCURVE",
"81 125 CURVE SMOOTH",
"81 136 LINE",
"69 136 LINE",
"69 129 LINE SMOOTH",
"69 36 OFFCURVE",
"117 -8 OFFCURVE",
"200 -8 CURVE SMOOTH",
"285 -8 OFFCURVE",
"341 47 OFFCURVE",
"341 135 CURVE SMOOTH",
"341 436 LINE SMOOTH",
"341 572 OFFCURVE",
"251 594 OFFCURVE",
"191 594 CURVE SMOOTH"
);
},
{
closed = 1;
nodes = (
"280 584 OFFCURVE",
"330 531 OFFCURVE",
"330 433 CURVE SMOOTH",
"330 329 LINE",
"322 293 OFFCURVE",
"268 239 OFFCURVE",
"187 239 CURVE SMOOTH",
"86 239 OFFCURVE",
"64 308 OFFCURVE",
"64 388 CURVE SMOOTH",
"64 427 LINE SMOOTH",
"64 531 OFFCURVE",
"117 584 OFFCURVE",
"191 584 CURVE SMOOTH"
);
}
);
width = 399;
}
);
leftKerningGroup = nine;
note = nine;
rightKerningGroup = nine;
unicode = 0039;
},
{
color = 6;
glyphname = fraction;
lastChange = "2021-12-09 03:35:29 +0000";
layers = (
{
layerId = "5E1A2ACF-25BB-4872-A226-5327BC7330DB";
paths = (
{
closed = 1;
nodes = (
"-82 0 LINE",
"239 585 LINE",
"224 585 LINE",
"-95 0 LINE"
);
}
);
width = 139;
}
);
note = fraction;
unicode = 2044;
},
{
color = 6;
glyphname = period;
lastChange = "2021-12-09 03:35:29 +0000";
layers = (
{
layerId = "5E1A2ACF-25BB-4872-A226-5327BC7330DB";
paths = (
{
closed = 1;
nodes = (
"77 -3 OFFCURVE",
"82 2 OFFCURVE",
"82 13 CURVE SMOOTH",
"82 24 OFFCURVE",
"77 29 OFFCURVE",
"66 29 CURVE SMOOTH",
"55 29 OFFCURVE",
"50 24 OFFCURVE",
"50 13 CURVE SMOOTH",
"50 2 OFFCURVE",
"55 -3 OFFCURVE",
"66 -3 CURVE SMOOTH"
);
}
);
width = 132;
}
);
leftKerningGroup = period;
note = period;
rightKerningGroup = period;
unicode = 002E;
},
{
color = 6;
glyphname = comma;
lastChange = "2021-12-09 03:35:29 +0000";
layers = (
{
layerId = "5E1A2ACF-25BB-4872-A226-5327BC7330DB";
paths = (
{
closed = 1;
nodes = (
"60 -87 LINE",
"68 -78 OFFCURVE",
"83 -53 OFFCURVE",
"90 -36 CURVE SMOOTH",
"94 -25 OFFCURVE",
"98 -10 OFFCURVE",
"98 9 CURVE SMOOTH",
"98 20 OFFCURVE",
"92 30 OFFCURVE",
"79 30 CURVE SMOOTH",
"68 30 OFFCURVE",
"62 21 OFFCURVE",
"62 13 CURVE SMOOTH",
"62 8 OFFCURVE",
"64 2 OFFCURVE",
"68 -3 CURVE SMOOTH",
"73 -8 OFFCURVE",
"78 -16 OFFCURVE",
"78 -26 CURVE SMOOTH",
"78 -29 OFFCURVE",
"77 -33 OFFCURVE",
"76 -37 CURVE SMOOTH",
"71 -56 OFFCURVE",
"54 -82 OFFCURVE",
"50 -87 CURVE"
);
}
);
width = 148;
}
);
note = comma;
unicode = 002C;
},
{
color = 6;
glyphname = colon;
lastChange = "2021-12-09 03:35:29 +0000";
layers = (
{
layerId = "5E1A2ACF-25BB-4872-A226-5327BC7330DB";
paths = (
{
closed = 1;
nodes = (
"77 317 OFFCURVE",
"82 322 OFFCURVE",
"82 333 CURVE SMOOTH",
"82 344 OFFCURVE",
"77 349 OFFCURVE",
"66 349 CURVE SMOOTH",
"55 349 OFFCURVE",
"50 344 OFFCURVE",
"50 333 CURVE SMOOTH",
"50 322 OFFCURVE",
"55 317 OFFCURVE",
"66 317 CURVE SMOOTH"
);
},
{
closed = 1;
nodes = (
"77 -3 OFFCURVE",
"82 2 OFFCURVE",
"82 13 CURVE SMOOTH",
"82 24 OFFCURVE",
"77 29 OFFCURVE",
"66 29 CURVE SMOOTH",
"55 29 OFFCURVE",
"50 24 OFFCURVE",
"50 13 CURVE SMOOTH",
"50 2 OFFCURVE",
"55 -3 OFFCURVE",
"66 -3 CURVE SMOOTH"
);
}
);
width = 132;
}
);
note = colon;
unicode = 003A;
},
{
color = 6;
glyphname = semicolon;
lastChange = "2021-12-09 03:35:29 +0000";
layers = (
{
layerId = "5E1A2ACF-25BB-4872-A226-5327BC7330DB";
paths = (
{
closed = 1;
nodes = (
"60 -87 LINE",
"68 -78 OFFCURVE",
"83 -53 OFFCURVE",
"90 -36 CURVE SMOOTH",
"94 -25 OFFCURVE",
"98 -10 OFFCURVE",
"98 9 CURVE SMOOTH",
"98 20 OFFCURVE",
"92 30 OFFCURVE",
"79 30 CURVE SMOOTH",
"68 30 OFFCURVE",
"62 21 OFFCURVE",
"62 13 CURVE SMOOTH",
"62 8 OFFCURVE",
"64 2 OFFCURVE",
"68 -3 CURVE SMOOTH",
"73 -8 OFFCURVE",
"78 -16 OFFCURVE",
"78 -26 CURVE SMOOTH",
"78 -29 OFFCURVE",
"77 -33 OFFCURVE",
"76 -37 CURVE SMOOTH",
"71 -56 OFFCURVE",
"54 -82 OFFCURVE",
"50 -87 CURVE"
);
},
{
closed = 1;
nodes = (
"89 317 OFFCURVE",
"94 322 OFFCURVE",
"94 333 CURVE SMOOTH",
"94 344 OFFCURVE",
"89 349 OFFCURVE",
"78 349 CURVE SMOOTH",
"67 349 OFFCURVE",
"62 344 OFFCURVE",
"62 333 CURVE SMOOTH",
"62 322 OFFCURVE",
"67 317 OFFCURVE",
"78 317 CURVE SMOOTH"
);
}
);
width = 148;
}
);
leftMetricsKey = comma;
note = semicolon;
unicode = 003B;
},
{
color = 6;
glyphname = exclam;
lastChange = "2021-12-09 03:35:29 +0000";
layers = (
{
layerId = "5E1A2ACF-25BB-4872-A226-5327BC7330DB";
paths = (
{
closed = 1;
nodes = (
"69 195 LINE",
"71 357 LINE",
"71 630 LINE",
"60 630 LINE",
"60 357 LINE",
"62 195 LINE"
);
},
{
closed = 1;
nodes = (
"77 -3 OFFCURVE",
"82 2 OFFCURVE",
"82 13 CURVE SMOOTH",
"82 24 OFFCURVE",
"77 29 OFFCURVE",
"66 29 CURVE SMOOTH",
"55 29 OFFCURVE",
"50 24 OFFCURVE",
"50 13 CURVE SMOOTH",
"50 2 OFFCURVE",
"55 -3 OFFCURVE",
"66 -3 CURVE SMOOTH"
);
}
);
width = 131;
}
);
note = exclam;
unicode = 0021;
},
{
color = 6;
glyphname = exclamdown;
lastChange = "2021-12-09 03:35:29 +0000";
layers = (
{
layerId = "5E1A2ACF-25BB-4872-A226-5327BC7330DB";
paths = (
{
closed = 1;
nodes = (
"72 -151 LINE",
"72 122 LINE",
"70 284 LINE",
"63 284 LINE",
"61 122 LINE",
"61 -151 LINE"
);
},
{
closed = 1;
nodes = (
"77 415 OFFCURVE",
"82 420 OFFCURVE",
"82 431 CURVE SMOOTH",
"82 442 OFFCURVE",
"77 447 OFFCURVE",
"66 447 CURVE SMOOTH",
"55 447 OFFCURVE",
"50 442 OFFCURVE",
"50 431 CURVE SMOOTH",
"50 420 OFFCURVE",
"55 415 OFFCURVE",
"66 415 CURVE SMOOTH"
);
}
);
width = 131;
}
);
note = exclamdown;
unicode = 00A1;
},
{
color = 6;
glyphname = question;
lastChange = "2021-12-09 03:35:29 +0000";
layers = (
{
layerId = "5E1A2ACF-25BB-4872-A226-5327BC7330DB";
paths = (
{
closed = 1;
nodes = (
"136 144 LINE",
"136 250 LINE",
"183 250 LINE SMOOTH",
"229 250 OFFCURVE",
"305 285 OFFCURVE",
"305 378 CURVE SMOOTH",
"305 449 LINE SMOOTH",
"305 550 OFFCURVE",
"264 595 OFFCURVE",
"171 595 CURVE SMOOTH",
"90 595 OFFCURVE",
"49 549 OFFCURVE",
"49 458 CURVE SMOOTH",
"49 429 LINE",
"60 429 LINE",
"60 462 LINE SMOOTH",
"60 544 OFFCURVE",
"98 585 OFFCURVE",
"173 585 CURVE SMOOTH",
"254 585 OFFCURVE",
"294 540 OFFCURVE",
"294 451 CURVE SMOOTH",
"294 380 LINE SMOOTH",
"294 294 OFFCURVE",
"226 260 OFFCURVE",
"179 260 CURVE SMOOTH",
"125 260 LINE",
"125 144 LINE"
);
},
{
closed = 1;
nodes = (
"142 -3 OFFCURVE",
"147 2 OFFCURVE",
"147 13 CURVE SMOOTH",
"147 24 OFFCURVE",
"142 29 OFFCURVE",
"131 29 CURVE SMOOTH",
"120 29 OFFCURVE",
"115 24 OFFCURVE",
"115 13 CURVE SMOOTH",
"115 2 OFFCURVE",
"120 -3 OFFCURVE",
"131 -3 CURVE SMOOTH"
);
}
);
width = 355;
}
);
note = question;
unicode = 003F;
},
{
color = 6;
glyphname = questiondown;
lastChange = "2021-12-09 03:35:29 +0000";
layers = (
{
layerId = "5E1A2ACF-25BB-4872-A226-5327BC7330DB";
paths = (
{
closed = 1;
nodes = (
"265 -151 OFFCURVE",
"306 -105 OFFCURVE",
"306 -14 CURVE SMOOTH",
"306 15 LINE",
"295 15 LINE",
"295 -18 LINE SMOOTH",
"295 -100 OFFCURVE",
"257 -141 OFFCURVE",
"182 -141 CURVE SMOOTH",
"101 -141 OFFCURVE",
"61 -96 OFFCURVE",
"61 -7 CURVE SMOOTH",
"61 64 LINE SMOOTH",
"61 150 OFFCURVE",
"129 184 OFFCURVE",
"176 184 CURVE SMOOTH",
"230 184 LINE",
"230 300 LINE",
"219 300 LINE",
"219 194 LINE",
"172 194 LINE SMOOTH",
"126 194 OFFCURVE",
"50 159 OFFCURVE",
"50 66 CURVE SMOOTH",
"50 -5 LINE SMOOTH",
"50 -106 OFFCURVE",
"91 -151 OFFCURVE",
"184 -151 CURVE SMOOTH"
);
},
{
closed = 1;
nodes = (
"235 415 OFFCURVE",
"240 420 OFFCURVE",
"240 431 CURVE SMOOTH",
"240 442 OFFCURVE",
"235 447 OFFCURVE",
"224 447 CURVE SMOOTH",
"213 447 OFFCURVE",
"208 442 OFFCURVE",
"208 431 CURVE SMOOTH",
"208 420 OFFCURVE",
"213 415 OFFCURVE",
"224 415 CURVE SMOOTH"
);
}
);
width = 355;
}
);
note = questiondown;
unicode = 00BF;
},
{
color = 6;
glyphname = periodcentered;
lastChange = "2021-12-09 03:35:29 +0000";
layers = (
{
layerId = "5E1A2ACF-25BB-4872-A226-5327BC7330DB";
paths = (
{
closed = 1;
nodes = (
"77 248 OFFCURVE",
"82 253 OFFCURVE",
"82 264 CURVE SMOOTH",
"82 275 OFFCURVE",
"77 280 OFFCURVE",
"66 280 CURVE SMOOTH",
"55 280 OFFCURVE",
"50 275 OFFCURVE",
"50 264 CURVE SMOOTH",
"50 253 OFFCURVE",
"55 248 OFFCURVE",
"66 248 CURVE SMOOTH"
);
}
);
width = 132;
}
);
note = periodcentered;
unicode = 00B7;
},
{
color = 6;
glyphname = bullet;
lastChange = "2021-12-09 03:35:29 +0000";
layers = (
{
layerId = "5E1A2ACF-25BB-4872-A226-5327BC7330DB";
paths = (
{
closed = 1;
nodes = (
"166 223 OFFCURVE",
"193 250 OFFCURVE",
"193 285 CURVE SMOOTH",
"193 320 OFFCURVE",
"165 347 OFFCURVE",
"132 347 CURVE SMOOTH",
"96 347 OFFCURVE",
"69 320 OFFCURVE",
"69 285 CURVE SMOOTH",
"70 249 OFFCURVE",
"97 223 OFFCURVE",
"130 223 CURVE SMOOTH"
);
}
);
width = 262;
}
);
note = bullet;
unicode = 2022;
},
{
color = 6;
glyphname = asterisk;
lastChange = "2021-12-09 03:35:29 +0000";
layers = (
{
layerId = "5E1A2ACF-25BB-4872-A226-5327BC7330DB";
paths = (
{
closed = 1;
nodes = (
"245 299 LINE",
"358 137 LINE",
"370 145 LINE",
"254 302 LINE",
"439 361 LINE",
"439 365 OFFCURVE",
"436 369 OFFCURVE",
"435 374 CURVE",
"250 310 LINE",
"253 503 LINE",
"238 503 LINE",
"240 310 LINE",
"54 374 LINE",
"50 361 LINE",
"236 302 LINE",
"120 144 LINE",
"123 143 OFFCURVE",
"127 140 OFFCURVE",
"132 136 CURVE"
);
}
);
width = 490;
}
);
note = asterisk;
unicode = 002A;
},
{
color = 6;
glyphname = numbersign;
lastChange = "2021-12-09 03:35:29 +0000";
layers = (
{
layerId = "5E1A2ACF-25BB-4872-A226-5327BC7330DB";
paths = (
{
closed = 1;
nodes = (
"143 0 LINE",
"164 64 OFFCURVE",
"186 136 OFFCURVE",
"206 200 CURVE",
"395 200 LINE",
"332 0 LINE",
"345 0 LINE",
"408 200 LINE",
"553 200 LINE",
"557 214 LINE",
"412 214 LINE",
"471 402 LINE",
"616 402 LINE",
"617 407 OFFCURVE",
"618 411 OFFCURVE",
"621 416 CURVE",
"476 416 LINE",
"525 573 LINE",
"512 573 LINE",
"464 416 LINE",
"274 416 LINE",
"323 573 LINE",
"311 573 LINE",
"262 416 LINE",
"117 416 LINE",
"112 402 LINE",
"257 402 LINE",
"198 214 LINE",
"53 214 LINE",
"49 200 LINE",
"194 200 LINE",
"130 0 LINE"
);
},
{
closed = 1;
nodes = (
"210 214 LINE",
"269 402 LINE",
"459 402 LINE",
"400 214 LINE"
);
}
);
width = 670;
}
);
note = numbersign;
unicode = 0023;
},
{
color = 6;
glyphname = slash;
lastChange = "2021-12-09 03:35:29 +0000";
layers = (
{
layerId = "5E1A2ACF-25BB-4872-A226-5327BC7330DB";
paths = (
{
closed = 1;
nodes = (
"64 -46 LINE",
"181 183 OFFCURVE",
"290 402 OFFCURVE",
"407 631 CURVE",
"394 631 LINE",
"50 -46 LINE"
);
}
);
width = 449;
}
);
note = slash;
unicode = 002F;
},
{
color = 6;
glyphname = backslash;
lastChange = "2021-12-09 03:35:29 +0000";
layers = (
{
layerId = "5E1A2ACF-25BB-4872-A226-5327BC7330DB";
paths = (
{
closed = 1;
nodes = (
"408 -46 LINE",
"65 631 LINE",
"50 631 LINE",
"394 -46 LINE"
);
}
);
width = 461;
}
);
note = backslash;
unicode = 005C;
},
{
color = 6;
glyphname = parenleft;
lastChange = "2021-12-09 03:35:29 +0000";
layers = (
{
layerId = "5E1A2ACF-25BB-4872-A226-5327BC7330DB";
paths = (
{
closed = 1;
nodes = (
"262 -116 LINE",
"134 -92 OFFCURVE",
"65 75 OFFCURVE",
"65 252 CURVE SMOOTH",
"65 444 OFFCURVE",
"160 625 OFFCURVE",
"273 663 CURVE",
"273 667 LINE",
"142 643 OFFCURVE",
"49 441 OFFCURVE",
"49 249 CURVE SMOOTH",
"49 65 OFFCURVE",
"124 -113 OFFCURVE",
"262 -124 CURVE"
);
}
);
width = 333;
}
);
note = parenleft;
unicode = 0028;
},
{
color = 6;
glyphname = parenright;
lastChange = "2021-12-09 03:35:29 +0000";
layers = (
{
layerId = "5E1A2ACF-25BB-4872-A226-5327BC7330DB";
paths = (
{
closed = 1;
nodes = (
"180 -98 OFFCURVE",
"273 102 OFFCURVE",
"273 296 CURVE SMOOTH",
"273 480 OFFCURVE",
"198 658 OFFCURVE",
"60 669 CURVE",
"60 662 LINE",
"188 638 OFFCURVE",
"257 472 OFFCURVE",
"257 293 CURVE SMOOTH",
"257 100 OFFCURVE",
"162 -83 OFFCURVE",
"49 -118 CURVE",
"49 -122 LINE"
);
}
);
width = 322;
}
);
note = parenright;
rightKerningGroup = parenright;
unicode = 0029;
},
{
color = 6;
glyphname = braceleft;
lastChange = "2021-12-09 03:35:29 +0000";
layers = (
{
layerId = "5E1A2ACF-25BB-4872-A226-5327BC7330DB";
paths = (
{
closed = 1;
nodes = (
"205 -125 LINE",
"153 -118 OFFCURVE",
"117 -91 OFFCURVE",
"117 -16 CURVE SMOOTH",
"117 23 OFFCURVE",
"132 57 OFFCURVE",
"147 90 CURVE SMOOTH",
"162 121 OFFCURVE",
"172 152 OFFCURVE",
"172 184 CURVE SMOOTH",
"172 215 OFFCURVE",
"149 248 OFFCURVE",
"94 268 CURVE",
"147 287 OFFCURVE",
"172 319 OFFCURVE",
"172 350 CURVE SMOOTH",
"172 382 OFFCURVE",
"162 414 OFFCURVE",
"147 446 CURVE SMOOTH",
"132 479 OFFCURVE",
"117 512 OFFCURVE",
"117 551 CURVE SMOOTH",
"117 623 OFFCURVE",
"153 644 OFFCURVE",
"205 651 CURVE",
"205 665 LINE",
"152 657 OFFCURVE",
"102 628 OFFCURVE",
"102 551 CURVE SMOOTH",
"102 514 OFFCURVE",
"116 483 OFFCURVE",
"131 451 CURVE SMOOTH",
"134 444 LINE SMOOTH",
"147 413 OFFCURVE",
"160 385 OFFCURVE",
"160 350 CURVE SMOOTH",
"160 298 OFFCURVE",
"102 273 OFFCURVE",
"51 270 CURVE",
"51 266 LINE",
"102 261 OFFCURVE",
"160 230 OFFCURVE",
"160 184 CURVE SMOOTH",
"160 149 OFFCURVE",
"148 119 OFFCURVE",
"135 90 CURVE SMOOTH",
"130 79 LINE SMOOTH",
"115 47 OFFCURVE",
"102 16 OFFCURVE",
"102 -16 CURVE SMOOTH",
"102 -95 OFFCURVE",
"152 -126 OFFCURVE",
"205 -137 CURVE"
);
}
);
width = 284;
}
);
note = braceleft;
unicode = 007B;
},
{
color = 6;
glyphname = braceright;
lastChange = "2021-12-09 03:35:29 +0000";
layers = (
{
layerId = "5E1A2ACF-25BB-4872-A226-5327BC7330DB";
paths = (
{
closed = 1;
nodes = (
"132 -126 OFFCURVE",
"182 -95 OFFCURVE",
"182 -16 CURVE SMOOTH",
"182 16 OFFCURVE",
"169 47 OFFCURVE",
"154 79 CURVE SMOOTH",
"149 90 LINE SMOOTH",
"136 119 OFFCURVE",
"124 149 OFFCURVE",
"124 184 CURVE SMOOTH",
"124 230 OFFCURVE",
"181 261 OFFCURVE",
"233 266 CURVE",
"233 270 LINE",
"182 273 OFFCURVE",
"124 298 OFFCURVE",
"124 350 CURVE SMOOTH",
"124 385 OFFCURVE",
"137 413 OFFCURVE",
"150 444 CURVE SMOOTH",
"153 451 LINE SMOOTH",
"168 483 OFFCURVE",
"182 514 OFFCURVE",
"182 551 CURVE SMOOTH",
"182 628 OFFCURVE",
"132 657 OFFCURVE",
"79 665 CURVE",
"79 651 LINE",
"131 644 OFFCURVE",
"167 623 OFFCURVE",
"167 551 CURVE SMOOTH",
"167 512 OFFCURVE",
"152 479 OFFCURVE",
"137 446 CURVE SMOOTH",
"122 414 OFFCURVE",
"113 382 OFFCURVE",
"113 350 CURVE SMOOTH",
"113 319 OFFCURVE",
"137 287 OFFCURVE",
"190 268 CURVE",
"135 248 OFFCURVE",
"113 215 OFFCURVE",
"113 184 CURVE SMOOTH",
"113 152 OFFCURVE",
"122 121 OFFCURVE",
"137 90 CURVE SMOOTH",
"152 57 OFFCURVE",
"167 23 OFFCURVE",
"167 -16 CURVE SMOOTH",
"167 -91 OFFCURVE",
"131 -118 OFFCURVE",
"79 -125 CURVE",
"79 -137 LINE"
);
}
);
width = 284;
}
);
note = braceright;
unicode = 007D;
},
{
color = 6;
glyphname = bracketleft;
lastChange = "2021-12-09 03:35:29 +0000";
layers = (
{
layerId = "5E1A2ACF-25BB-4872-A226-5327BC7330DB";
paths = (
{
closed = 1;
nodes = (
"217 -57 LINE",
"217 -46 LINE",
"62 -46 LINE",
"62 619 LINE",
"217 619 LINE",
"217 630 LINE",
"50 630 LINE",
"50 -57 LINE"
);
}
);
width = 267;
}
);
note = bracketleft;
unicode = 005B;
},
{
color = 6;
glyphname = bracketright;
lastChange = "2021-12-09 03:35:29 +0000";
layers = (
{
layerId = "5E1A2ACF-25BB-4872-A226-5327BC7330DB";
paths = (
{
closed = 1;
nodes = (
"217 -57 LINE",
"217 630 LINE",
"50 630 LINE",
"50 619 LINE",
"205 619 LINE",
"205 -46 LINE",
"50 -46 LINE",
"50 -57 LINE"
);
}
);
width = 267;
}
);
note = bracketright;
unicode = 005D;
},
{
color = 6;
glyphname = hyphen;
lastChange = "2021-12-09 03:35:29 +0000";
layers = (
{
layerId = "5E1A2ACF-25BB-4872-A226-5327BC7330DB";
paths = (
{
closed = 1;
nodes = (
"228 247 LINE",
"228 257 LINE",
"49 257 LINE",
"49 247 LINE"
);
}
);
width = 277;
}
);
leftKerningGroup = hyphen;
note = hyphen;
unicode = 002D;
},
{
color = 6;
glyphname = endash;
lastChange = "2021-12-09 03:35:29 +0000";
layers = (
{
layerId = "5E1A2ACF-25BB-4872-A226-5327BC7330DB";
paths = (
{
closed = 1;
nodes = (
"294 247 LINE",
"294 257 LINE",
"20 257 LINE",
"20 247 LINE"
);
}
);
width = 314;
}
);
leftKerningGroup = hyphen;
note = endash;
unicode = 2013;
},
{
color = 6;
glyphname = emdash;
lastChange = "2021-12-09 03:35:29 +0000";
layers = (
{
layerId = "5E1A2ACF-25BB-4872-A226-5327BC7330DB";
paths = (
{
closed = 1;
nodes = (
"385 247 LINE",
"385 257 LINE",
"20 257 LINE",
"20 247 LINE"
);
}
);
width = 405;
}
);
leftKerningGroup = hyphen;
note = emdash;
unicode = 2014;
},
{
color = 6;
glyphname = underscore;
lastChange = "2021-12-09 03:35:29 +0000";
layers = (
{
layerId = "5E1A2ACF-25BB-4872-A226-5327BC7330DB";
paths = (
{
closed = 1;
nodes = (
"692 -102 LINE",
"692 -92 LINE",
"49 -92 LINE",
"49 -102 LINE"
);
}
);
width = 742;
}
);
note = underscore;
unicode = 005F;
},
{
color = 6;
glyphname = quotedblleft;
lastChange = "2021-12-10 04:54:08 +0000";
layers = (
{
background = {
paths = (
{
closed = 1;
nodes = (
"143 415 LINE",
"159 415 LINE",
"206 615 LINE",
"198 615 LINE"
);
},
{
closed = 1;
nodes = (
"39 415 LINE",
"55 415 LINE",
"102 615 LINE",
"94 615 LINE"
);
}
);
};
components = (
{
name = quoteleft;
},
{
name = quoteleft;
}
);
layerId = "5E1A2ACF-25BB-4872-A226-5327BC7330DB";
width = 142;
}
);
leftKerningGroup = quoteleft;
leftMetricsKey = quoteleft;
note = quotedblleft;
rightKerningGroup = quoteleft;
rightMetricsKey = quoteleft;
unicode = 201C;
},
{
color = 6;
glyphname = quotedblright;
lastChange = "2021-12-10 04:54:08 +0000";
layers = (
{
background = {
paths = (
{
closed = 1;
nodes = (
"93 615 LINE",
"77 615 LINE",
"30 415 LINE",
"38 415 LINE"
);
},
{
closed = 1;
nodes = (
"196 615 LINE",
"180 615 LINE",
"133 415 LINE",
"141 415 LINE"
);
}
);
};
components = (
{
name = quoteright;
},
{
name = quoteright;
}
);
layerId = "5E1A2ACF-25BB-4872-A226-5327BC7330DB";
width = 161;
}
);
leftKerningGroup = quoteright;
leftMetricsKey = quoteright;
note = quotedblright;
rightKerningGroup = quoteright;
rightMetricsKey = quoteright;
unicode = 201D;
},
{
color = 6;
glyphname = quoteright;
lastChange = "2021-12-09 03:35:29 +0000";
layers = (
{
layerId = "5E1A2ACF-25BB-4872-A226-5327BC7330DB";
paths = (
{
closed = 1;
nodes = (
"112 610 LINE",
"96 610 LINE",
"49 410 LINE",
"57 410 LINE"
);
}
);
width = 161;
}
);
leftKerningGroup = quoteright;
note = quoteright;
rightKerningGroup = quoteright;
unicode = 2019;
},
{
color = 6;
glyphname = guillemetleft;
lastChange = "2021-12-10 04:54:08 +0000";
layers = (
{
background = {
paths = (
{
closed = 1;
nodes = (
"381 115 LINE",
"266 284 LINE",
"393 468 LINE",
"379 468 LINE",
"250 284 LINE",
"367 115 LINE"
);
},
{
closed = 1;
nodes = (
"201 115 LINE",
"86 284 LINE",
"213 468 LINE",
"199 468 LINE",
"70 284 LINE",
"187 115 LINE"
);
}
);
};
components = (
{
name = guilsinglleft;
},
{
name = guilsinglleft;
}
);
layerId = "5E1A2ACF-25BB-4872-A226-5327BC7330DB";
width = 241;
}
);
leftKerningGroup = guilsinglleft;
leftMetricsKey = guilsinglleft;
note = guillemotleft;
rightKerningGroup = guilsinglleft;
rightMetricsKey = guilsinglleft;
unicode = 00AB;
},
{
color = 6;
glyphname = guilsinglleft;
lastChange = "2021-12-09 03:35:29 +0000";
layers = (
{
background = {
paths = (
{
closed = 1;
nodes = (
"180 115 LINE",
"65 284 LINE",
"192 468 LINE",
"178 468 LINE",
"49 284 LINE",
"166 115 LINE"
);
}
);
};
layerId = "5E1A2ACF-25BB-4872-A226-5327BC7330DB";
paths = (
{
closed = 1;
nodes = (
"180 75 LINE",
"65 244 LINE",
"192 428 LINE",
"178 428 LINE",
"49 244 LINE",
"166 75 LINE"
);
}
);
width = 241;
}
);
note = guilsinglleft;
unicode = 2039;
},
{
color = 6;
glyphname = guilsinglright;
lastChange = "2021-12-09 03:35:29 +0000";
layers = (
{
layerId = "5E1A2ACF-25BB-4872-A226-5327BC7330DB";
paths = (
{
closed = 1;
nodes = (
"75 75 LINE",
"192 244 LINE",
"63 428 LINE",
"49 428 LINE",
"176 244 LINE",
"61 75 LINE"
);
}
);
width = 241;
}
);
note = guilsinglright;
unicode = 203A;
},
{
color = 6;
glyphname = quotedbl;
lastChange = "2021-12-09 03:35:33 +0000";
layers = (
{
background = {
paths = (
{
closed = 1;
nodes = (
"175 431 LINE",
"190 631 LINE",
"156 631 LINE",
"168 431 LINE"
);
},
{
closed = 1;
nodes = (
"71 431 LINE",
"84 631 LINE",
"50 631 LINE",
"63 431 LINE"
);
}
);
};
components = (
{
name = quotesingle;
},
{
name = quotesingle;
transform = "{1, 0, 0, 1, 90, 0}";
}
);
layerId = "5E1A2ACF-25BB-4872-A226-5327BC7330DB";
width = 206;
}
);
leftKerningGroup = quotesingle;
leftMetricsKey = quotesingle;
note = quotedbl;
rightKerningGroup = quotesingle;
rightMetricsKey = quotesingle;
unicode = 0022;
},
{
color = 6;
glyphname = quotesingle;
lastChange = "2021-12-09 01:56:03 +0000";
layers = (
{
background = {
paths = (
{
closed = 1;
nodes = (
"60 441 LINE",
"70 631 LINE",
"46 631 LINE",
"52 441 LINE"
);
}
);
};
layerId = "5E1A2ACF-25BB-4872-A226-5327BC7330DB";
paths = (
{
closed = 1;
nodes = (
"60 431 LINE",
"66 631 LINE",
"50 631 LINE",
"52 431 LINE"
);
}
);
width = 116;
}
);
note = quotesingle;
unicode = 0027;
},
{
glyphname = "leftanglebracket-math";
lastChange = "2021-12-09 03:35:29 +0000";
layers = (
{
layerId = "5E1A2ACF-25BB-4872-A226-5327BC7330DB";
paths = (
{
closed = 1;
nodes = (
"198 -142 LINE",
"66 233 LINE",
"208 628 LINE",
"194 628 LINE",
"50 233 LINE",
"184 -142 LINE"
);
}
);
width = 258;
},
{
associatedMasterId = "5E1A2ACF-25BB-4872-A226-5327BC7330DB";
layerId = "8A3706BD-364F-4FE3-9C2E-7E87DF0DB4CC";
name = Black;
paths = (
{
closed = 1;
nodes = (
"303 -153 LINE",
"167 236 LINE",
"303 632 LINE",
"166 632 LINE",
"30 236 LINE",
"167 -153 LINE"
);
}
);
width = 333;
}
);
unicode = 27E8;
},
{
glyphname = "rightanglebracket-math";
lastChange = "2021-12-09 03:35:29 +0000";
layers = (
{
layerId = "5E1A2ACF-25BB-4872-A226-5327BC7330DB";
paths = (
{
closed = 1;
nodes = (
"74 -142 LINE",
"208 233 LINE",
"64 628 LINE",
"50 628 LINE",
"192 233 LINE",
"60 -142 LINE"
);
}
);
width = 258;
},
{
associatedMasterId = "5E1A2ACF-25BB-4872-A226-5327BC7330DB";
layerId = "8A3706BD-364F-4FE3-9C2E-7E87DF0DB4CC";
name = Black;
paths = (
{
closed = 1;
nodes = (
"303 236 LINE",
"167 632 LINE",
"30 632 LINE",
"166 236 LINE",
"30 -153 LINE",
"166 -153 LINE"
);
}
);
width = 333;
}
);
unicode = 27E9;
},
{
glyphname = cedi;
lastChange = "2021-12-09 03:35:29 +0000";
layers = (
{
components = (
{
name = C;
}
);
layerId = "5E1A2ACF-25BB-4872-A226-5327BC7330DB";
paths = (
{
closed = 1;
nodes = (
"148 -81 LINE",
"242 659 LINE",
"231 659 LINE",
"137 -81 LINE"
);
}
);
width = 399;
}
);
unicode = 20B5;
},
{
color = 6;
glyphname = cent;
lastChange = "2021-12-09 03:35:29 +0000";
layers = (
{
layerId = "5E1A2ACF-25BB-4872-A226-5327BC7330DB";
paths = (
{
closed = 1;
nodes = (
"165 -63 LINE",
"176 -63 LINE",
"176 53 LINE",
"283 56 OFFCURVE",
"288 123 OFFCURVE",
"288 184 CURVE SMOOTH",
"288 227 LINE",
"277 227 LINE",
"277 187 LINE SMOOTH",
"277 128 OFFCURVE",
"272 63 OFFCURVE",
"169 63 CURVE SMOOTH",
"65 63 OFFCURVE",
"60 128 OFFCURVE",
"60 187 CURVE SMOOTH",
"60 429 LINE SMOOTH",
"60 488 OFFCURVE",
"65 553 OFFCURVE",
"169 553 CURVE SMOOTH",
"272 553 OFFCURVE",
"277 488 OFFCURVE",
"277 429 CURVE SMOOTH",
"277 388 LINE",
"288 388 LINE",
"288 432 LINE SMOOTH",
"288 492 OFFCURVE",
"283 560 OFFCURVE",
"176 563 CURVE",
"176 643 LINE",
"165 643 LINE",
"165 563 LINE",
"55 560 OFFCURVE",
"49 493 OFFCURVE",
"49 432 CURVE SMOOTH",
"49 184 LINE SMOOTH",
"49 123 OFFCURVE",
"55 53 OFFCURVE",
"165 53 CURVE"
);
}
);
width = 338;
}
);
note = cent;
unicode = 00A2;
},
{
glyphname = colonsign;
lastChange = "2021-12-09 03:35:29 +0000";
layers = (
{
components = (
{
name = C;
}
);
layerId = "5E1A2ACF-25BB-4872-A226-5327BC7330DB";
paths = (
{
closed = 1;
nodes = (
"189 -81 LINE",
"283 659 LINE",
"272 659 LINE",
"178 -81 LINE"
);
},
{
closed = 1;
nodes = (
"109 -81 LINE",
"203 659 LINE",
"192 659 LINE",
"98 -81 LINE"
);
}
);
width = 399;
}
);
unicode = 20A1;
},
{
color = 6;
glyphname = currency;
lastChange = "2021-12-09 03:35:29 +0000";
layers = (
{
layerId = "5E1A2ACF-25BB-4872-A226-5327BC7330DB";
paths = (
{
closed = 1;
nodes = (
"115 218 LINE",
"136 199 OFFCURVE",
"161 190 OFFCURVE",
"190 190 CURVE SMOOTH",
"219 190 OFFCURVE",
"244 199 OFFCURVE",
"264 218 CURVE",
"324 159 LINE",
"331 166 LINE",
"271 225 LINE",
"290 246 OFFCURVE",
"300 271 OFFCURVE",
"300 300 CURVE SMOOTH",
"300 328 OFFCURVE",
"290 355 OFFCURVE",
"271 374 CURVE",
"331 434 LINE",
"324 441 LINE",
"264 381 LINE",
"245 400 OFFCURVE",
"218 410 OFFCURVE",
"190 410 CURVE SMOOTH",
"161 410 OFFCURVE",
"136 400 OFFCURVE",
"115 381 CURVE",
"56 441 LINE",
"49 434 LINE",
"108 374 LINE",
"89 354 OFFCURVE",
"80 329 OFFCURVE",
"80 300 CURVE SMOOTH",
"80 271 OFFCURVE",
"89 246 OFFCURVE",
"108 225 CURVE",
"49 166 LINE",
"56 159 LINE"
);
},
{
closed = 1;
nodes = (
"134 200 OFFCURVE",
"90 244 OFFCURVE",
"90 300 CURVE SMOOTH",
"90 356 OFFCURVE",
"134 400 OFFCURVE",
"190 400 CURVE SMOOTH",
"246 400 OFFCURVE",
"290 356 OFFCURVE",
"290 300 CURVE SMOOTH",
"290 244 OFFCURVE",
"246 200 OFFCURVE",
"190 200 CURVE SMOOTH"
);
}
);
width = 380;
}
);
note = currency;
unicode = 00A4;
},
{
color = 6;
glyphname = dollar;
lastChange = "2021-12-09 03:35:29 +0000";
layers = (
{
components = (
{
alignment = -1;
name = s;
transform = "{1, 0, 0, 1, -3, 60}";
}
);
layerId = "5E1A2ACF-25BB-4872-A226-5327BC7330DB";
paths = (
{
closed = 1;
nodes = (
"115 -81 LINE",
"209 659 LINE",
"198 659 LINE",
"104 -81 LINE"
);
}
);
width = 326;
}
);
note = dollar;
unicode = 0024;
},
{
color = 6;
glyphname = dong;
lastChange = "2021-12-09 03:35:29 +0000";
layers = (
{
layerId = "5E1A2ACF-25BB-4872-A226-5327BC7330DB";
paths = (
{
closed = 1;
nodes = (
"169 85 OFFCURVE",
"189 90 OFFCURVE",
"203 100 CURVE SMOOTH",
"215 108 OFFCURVE",
"224 120 OFFCURVE",
"230 137 CURVE",
"231 90 LINE",
"238 90 LINE",
"238 550 LINE",
"272 550 LINE",
"272 558 LINE",
"238 558 LINE",
"238 589 LINE",
"230 589 LINE",
"230 558 LINE",
"144 558 LINE",
"144 550 LINE",
"230 550 LINE",
"230 459 LINE",
"222 467 OFFCURVE",
"198 489 OFFCURVE",
"143 489 CURVE SMOOTH",
"54 489 OFFCURVE",
"49 433 OFFCURVE",
"49 385 CURVE SMOOTH",
"49 188 LINE SMOOTH",
"49 139 OFFCURVE",
"54 85 OFFCURVE",
"143 85 CURVE SMOOTH"
);
},
{
closed = 1;
nodes = (
"248 0 LINE",
"248 10 LINE",
"49 10 LINE",
"49 0 LINE"
);
},
{
closed = 1;
nodes = (
"61 93 OFFCURVE",
"58 144 OFFCURVE",
"58 191 CURVE SMOOTH",
"58 383 LINE SMOOTH",
"58 428 OFFCURVE",
"61 481 OFFCURVE",
"143 481 CURVE SMOOTH",
"208 480 OFFCURVE",
"230 449 OFFCURVE",
"230 448 CURVE SMOOTH",
"230 191 LINE SMOOTH",
"230 167 OFFCURVE",
"228 126 OFFCURVE",
"196 105 CURVE SMOOTH",
"183 97 OFFCURVE",
"165 93 OFFCURVE",
"143 93 CURVE SMOOTH"
);
}
);
width = 283;
}
);
note = dong;
unicode = 20AB;
},
{
color = 6;
glyphname = euro;
lastChange = "2021-12-09 03:35:29 +0000";
layers = (
{
layerId = "5E1A2ACF-25BB-4872-A226-5327BC7330DB";
paths = (
{
closed = 1;
nodes = (
"342 -12 OFFCURVE",
"400 2 OFFCURVE",
"400 118 CURVE SMOOTH",
"400 172 LINE",
"388 172 LINE",
"388 116 LINE SMOOTH",
"388 12 OFFCURVE",
"333 -3 OFFCURVE",
"263 -3 CURVE SMOOTH",
"194 -3 OFFCURVE",
"139 12 OFFCURVE",
"139 116 CURVE SMOOTH",
"139 242 LINE",
"235 242 LINE",
"241 252 LINE",
"139 252 LINE",
"139 335 LINE",
"278 335 LINE",
"283 345 LINE",
"139 345 LINE",
"139 467 LINE SMOOTH",
"139 572 OFFCURVE",
"188 589 OFFCURVE",
"263 589 CURVE SMOOTH",
"338 589 OFFCURVE",
"388 574 OFFCURVE",
"388 473 CURVE SMOOTH",
"388 442 LINE",
"400 442 LINE",
"400 469 LINE SMOOTH",
"400 583 OFFCURVE",
"341 599 OFFCURVE",
"264 599 CURVE SMOOTH",
"187 599 OFFCURVE",
"127 585 OFFCURVE",
"127 469 CURVE SMOOTH",
"127 345 LINE",
"54 345 LINE",
"49 335 LINE",
"127 335 LINE",
"127 252 LINE",
"55 252 LINE",
"49 242 LINE",
"127 242 LINE",
"127 118 LINE SMOOTH",
"127 4 OFFCURVE",
"186 -12 OFFCURVE",
"262 -12 CURVE SMOOTH"
);
}
);
width = 449;
}
);
note = Euro;
unicode = 20AC;
},
{
color = 6;
glyphname = florin;
lastChange = "2021-12-09 03:35:29 +0000";
layers = (
{
layerId = "5E1A2ACF-25BB-4872-A226-5327BC7330DB";
paths = (
{
closed = 1;
nodes = (
"9 -149 OFFCURVE",
"31 -116 OFFCURVE",
"39 -60 CURVE SMOOTH",
"104 415 LINE",
"212 415 LINE",
"212 425 LINE",
"105 425 LINE",
"123 552 LINE SMOOTH",
"128 587 OFFCURVE",
"145 627 OFFCURVE",
"192 627 CURVE SMOOTH",
"209 627 OFFCURVE",
"223 626 OFFCURVE",
"234 625 CURVE SMOOTH",
"251 623 LINE",
"253 632 LINE",
"240 635 OFFCURVE",
"219 636 OFFCURVE",
"194 636 CURVE SMOOTH",
"142 636 OFFCURVE",
"120 603 OFFCURVE",
"112 547 CURVE SMOOTH",
"95 425 LINE",
"52 425 LINE",
"52 415 LINE",
"94 415 LINE",
"28 -65 LINE SMOOTH",
"23 -100 OFFCURVE",
"6 -140 OFFCURVE",
"-41 -140 CURVE SMOOTH",
"-58 -140 OFFCURVE",
"-71 -139 OFFCURVE",
"-82 -138 CURVE SMOOTH",
"-99 -136 LINE",
"-101 -145 LINE",
"-88 -148 OFFCURVE",
"-67 -149 OFFCURVE",
"-43 -149 CURVE SMOOTH"
);
}
);
width = 267;
}
);
note = florin;
rightKerningGroup = r;
unicode = 0192;
},
{
color = 6;
glyphname = franc;
lastChange = "2021-12-09 03:35:29 +0000";
layers = (
{
layerId = "5E1A2ACF-25BB-4872-A226-5327BC7330DB";
paths = (
{
closed = 1;
nodes = (
"106 0 LINE",
"106 168 LINE",
"209 168 LINE",
"209 178 LINE",
"106 178 LINE",
"106 306 LINE",
"284 306 LINE",
"284 317 LINE",
"106 317 LINE",
"106 580 LINE",
"335 580 LINE",
"335 591 LINE",
"94 591 LINE",
"94 178 LINE",
"49 178 LINE",
"49 168 LINE",
"94 168 LINE",
"94 0 LINE"
);
}
);
width = 375;
}
);
note = franc;
unicode = 20A3;
},
{
glyphname = guarani;
lastChange = "2021-12-09 03:35:29 +0000";
layers = (
{
components = (
{
name = G;
}
);
layerId = "5E1A2ACF-25BB-4872-A226-5327BC7330DB";
paths = (
{
closed = 1;
nodes = (
"138 -81 LINE",
"232 659 LINE",
"221 659 LINE",
"127 -81 LINE"
);
}
);
width = 403;
}
);
unicode = 20B2;
},
{
color = 6;
glyphname = lira;
lastChange = "2021-12-09 03:35:29 +0000";
layers = (
{
layerId = "5E1A2ACF-25BB-4872-A226-5327BC7330DB";
paths = (
{
closed = 1;
nodes = (
"332 -1 OFFCURVE",
"349 35 OFFCURVE",
"349 91 CURVE SMOOTH",
"349 136 LINE",
"338 136 LINE",
"338 81 LINE SMOOTH",
"338 32 OFFCURVE",
"314 7 OFFCURVE",
"267 7 CURVE SMOOTH",
"244 7 OFFCURVE",
"222 11 OFFCURVE",
"203 14 CURVE SMOOTH",
"172 18 OFFCURVE",
"148 22 OFFCURVE",
"121 22 CURVE SMOOTH",
"106 22 OFFCURVE",
"91 21 OFFCURVE",
"68 18 CURVE",
"107 65 OFFCURVE",
"133 120 OFFCURVE",
"145 182 CURVE",
"236 182 LINE",
"236 192 LINE",
"147 192 LINE",
"150 212 OFFCURVE",
"152 232 OFFCURVE",
"152 253 CURVE SMOOTH",
"152 262 OFFCURVE",
"152 270 OFFCURVE",
"151 279 CURVE",
"236 279 LINE",
"236 289 LINE",
"149 289 LINE",
"133 353 OFFCURVE",
"98 410 OFFCURVE",
"93 477 CURVE SMOOTH",
"88 555 OFFCURVE",
"152 586 OFFCURVE",
"213 586 CURVE SMOOTH",
"274 586 OFFCURVE",
"339 553 OFFCURVE",
"339 477 CURVE SMOOTH",
"339 450 LINE",
"350 450 LINE",
"350 482 LINE SMOOTH",
"350 553 OFFCURVE",
"301 595 OFFCURVE",
"218 595 CURVE SMOOTH",
"125 595 OFFCURVE",
"82 556 OFFCURVE",
"82 481 CURVE SMOOTH",
"82 411 OFFCURVE",
"125 353 OFFCURVE",
"138 289 CURVE",
"59 289 LINE",
"59 279 LINE",
"139 279 LINE",
"140 270 OFFCURVE",
"140 260 OFFCURVE",
"140 251 CURVE SMOOTH",
"140 231 OFFCURVE",
"138 211 OFFCURVE",
"135 192 CURVE",
"59 192 LINE",
"59 182 LINE",
"133 182 LINE",
"120 118 OFFCURVE",
"89 57 OFFCURVE",
"48 8 CURVE",
"48 3 LINE",
"67 10 OFFCURVE",
"91 13 OFFCURVE",
"118 13 CURVE SMOOTH",
"149 13 OFFCURVE",
"178 9 OFFCURVE",
"206 5 CURVE SMOOTH",
"225 2 OFFCURVE",
"247 -1 OFFCURVE",
"267 -1 CURVE SMOOTH"
);
}
);
width = 400;
}
);
note = lira;
unicode = 20A4;
},
{
glyphname = liraTurkish;
lastChange = "2021-12-09 03:35:29 +0000";
layers = (
{
anchors = (
{
name = bottom;
position = "{227, 0}";
},
{
name = ogonek;
position = "{111, 0}";
},
{
name = top;
position = "{227, 495}";
},
{
name = topleft;
position = "{121, 495}";
}
);
layerId = "5E1A2ACF-25BB-4872-A226-5327BC7330DB";
paths = (
{
closed = 1;
nodes = (
"210 0 LINE SMOOTH",
"322 0 OFFCURVE",
"329 50 OFFCURVE",
"329 123 CURVE SMOOTH",
"329 405 LINE",
"316 405 LINE",
"316 122 LINE SMOOTH",
"316 53 OFFCURVE",
"309 11 OFFCURVE",
"208 11 CURVE SMOOTH",
"152 11 LINE SMOOTH",
"98 12 OFFCURVE",
"98 18 OFFCURVE",
"98 57 CURVE SMOOTH",
"98 591 LINE",
"86 591 LINE",
"86 55 LINE SMOOTH",
"86 3 OFFCURVE",
"92 0 OFFCURVE",
"141 0 CURVE SMOOTH"
);
},
{
closed = 1;
nodes = (
"0 204 LINE",
"200 263 LINE",
"200 273 LINE",
"0 214 LINE"
);
},
{
closed = 1;
nodes = (
"0 312 LINE",
"200 371 LINE",
"200 381 LINE",
"0 322 LINE"
);
}
);
width = 379;
}
);
unicode = 20BA;
},
{
glyphname = manat;
lastChange = "2021-12-09 03:35:29 +0000";
layers = (
{
anchors = (
{
name = bottom;
position = "{209, 0}";
},
{
name = bottomright;
position = "{329, 0}";
},
{
name = ogonek;
position = "{236, 591}";
},
{
name = top;
position = "{209, 591}";
}
);
layerId = "5E1A2ACF-25BB-4872-A226-5327BC7330DB";
paths = (
{
closed = 1;
nodes = (
"85 0 LINE",
"119 485 LINE SMOOTH",
"125 575 OFFCURVE",
"164 592 OFFCURVE",
"209 592 CURVE SMOOTH",
"254 592 OFFCURVE",
"293 575 OFFCURVE",
"299 485 CURVE SMOOTH",
"333 0 LINE",
"346 0 LINE",
"313 479 LINE SMOOTH",
"306 586 OFFCURVE",
"264 603 OFFCURVE",
"209 603 CURVE SMOOTH",
"154 603 OFFCURVE",
"112 586 OFFCURVE",
"105 479 CURVE SMOOTH",
"72 0 LINE"
);
},
{
closed = 1;
nodes = (
"204 0 LINE",
"217 0 LINE",
"217 631 LINE",
"204 631 LINE"
);
}
);
width = 418;
}
);
unicode = 20BC;
},
{
glyphname = naira;
lastChange = "2021-12-09 03:35:29 +0000";
layers = (
{
components = (
{
alignment = -1;
name = N;
transform = "{1, 0, 0, 1, 10, 0}";
},
{
name = emdash;
transform = "{1, 0, 0, 1, 0, -10}";
},
{
name = emdash;
transform = "{1, 0, 0, 1, 0, 110}";
}
);
layerId = "5E1A2ACF-25BB-4872-A226-5327BC7330DB";
width = 405;
},
{
anchors = (
{
name = bottom;
position = "{225, 0}";
},
{
name = top;
position = "{228, 591}";
}
);
associatedMasterId = "5E1A2ACF-25BB-4872-A226-5327BC7330DB";
background = {
paths = (
{
closed = 1;
nodes = (
"448 296 LINE",
"448 399 LINE",
"310 399 LINE",
"310 296 LINE"
);
},
{
closed = 1;
nodes = (
"448 149 LINE",
"448 252 LINE",
"310 252 LINE",
"310 149 LINE"
);
}
);
};
layerId = "8A3706BD-364F-4FE3-9C2E-7E87DF0DB4CC";
name = Black;
paths = (
{
closed = 1;
nodes = (
"189 0 LINE",
"189 245 LINE",
"262 0 LINE",
"399 0 LINE",
"399 591 LINE",
"260 591 LINE",
"260 316 LINE",
"188 591 LINE",
"50 591 LINE",
"50 0 LINE"
);
},
{
closed = 1;
nodes = (
"448 296 LINE",
"448 399 LINE",
"10 399 LINE",
"10 296 LINE"
);
},
{
closed = 1;
nodes = (
"448 149 LINE",
"448 252 LINE",
"10 252 LINE",
"10 149 LINE"
);
}
);
width = 458;
}
);
unicode = 20A6;
},
{
glyphname = peso;
lastChange = "2021-12-09 03:35:29 +0000";
layers = (
{
background = {
paths = (
{
closed = 1;
nodes = (
"11 375 LINE",
"353 375 LINE",
"353 385 LINE",
"11 385 LINE"
);
},
{
closed = 1;
nodes = (
"11 465 LINE",
"353 465 LINE",
"353 475 LINE",
"11 475 LINE"
);
}
);
};
components = (
{
alignment = -1;
name = P;
transform = "{1, 0, 0, 1, -9, 0}";
},
{
name = longbar;
transform = "{0.6994, 0, 0, 1, -4, 207}";
},
{
name = longbar;
transform = "{0.6994, 0, 0, 1, -4, 119}";
}
);
layerId = "5E1A2ACF-25BB-4872-A226-5327BC7330DB";
width = 363;
}
);
unicode = 20B1;
},
{
glyphname = rupeeIndian;
lastChange = "2021-12-09 03:35:29 +0000";
layers = (
{
anchors = (
{
name = bottom;
position = "{248, 0}";
},
{
name = top;
position = "{235, 591}";
}
);
components = (
{
name = emdash;
transform = "{0.95138, 0, 0, 1, 59, 187}";
},
{
name = emdash;
transform = "{0.95138, 0, 0, 1, 59, 334}";
}
);
layerId = "5E1A2ACF-25BB-4872-A226-5327BC7330DB";
paths = (
{
closed = 1;
nodes = (
"369 0 LINE",
"300 224 LINE SMOOTH",
"290 256 OFFCURVE",
"267 293 OFFCURVE",
"234 296 CURVE",
"297 296 OFFCURVE",
"348 328 OFFCURVE",
"348 411 CURVE SMOOTH",
"348 494 LINE SMOOTH",
"348 566 OFFCURVE",
"299 591 OFFCURVE",
"242 591 CURVE SMOOTH",
"80 591 LINE",
"80 580 LINE",
"250 580 LINE SMOOTH",
"295 580 OFFCURVE",
"336 553 OFFCURVE",
"336 496 CURVE SMOOTH",
"336 409 LINE SMOOTH",
"336 331 OFFCURVE",
"285 303 OFFCURVE",
"217 303 CURVE SMOOTH",
"108 303 LINE",
"108 292 LINE",
"211 292 LINE SMOOTH",
"252 292 OFFCURVE",
"278 257 OFFCURVE",
"294 205 CURVE SMOOTH",
"355 0 LINE"
);
}
);
width = 440;
},
{
anchors = (
{
name = bottom;
position = "{242, 0}";
},
{
name = top;
position = "{242, 591}";
}
);
associatedMasterId = "5E1A2ACF-25BB-4872-A226-5327BC7330DB";
layerId = "8A3706BD-364F-4FE3-9C2E-7E87DF0DB4CC";
name = Black;
paths = (
{
closed = 1;
nodes = (
"473 385 LINE",
"473 471 LINE",
"55 471 LINE",
"55 385 LINE"
);
},
{
closed = 1;
nodes = (
"132 237 LINE",
"216 237 OFFCURVE",
"236 205 OFFCURVE",
"245 154 CURVE SMOOTH",
"272 0 LINE",
"449 0 LINE",
"397 204 LINE SMOOTH",
"385 252 OFFCURVE",
"373 269 OFFCURVE",
"326 278 CURVE",
"326 280 LINE",
"397 288 OFFCURVE",
"420 342 OFFCURVE",
"420 400 CURVE SMOOTH",
"420 490 LINE SMOOTH",
"420 549 OFFCURVE",
"383 591 OFFCURVE",
"295 591 CURVE SMOOTH",
"55 591 LINE",
"55 507 LINE",
"221 507 LINE",
"221 507 LINE",
"240 507 LINE SMOOTH",
"257 507 OFFCURVE",
"264 497 OFFCURVE",
"264 461 CURVE SMOOTH",
"264 396 LINE SMOOTH",
"264 360 OFFCURVE",
"254 347 OFFCURVE",
"237 347 CURVE",
"55 348 LINE",
"55 237 LINE"
);
},
{
closed = 1;
nodes = (
"473 506.227 LINE",
"473 591.655 LINE",
"55 591.655 LINE",
"55 506.227 LINE"
);
}
);
width = 478;
}
);
unicode = 20B9;
},
{
color = 6;
glyphname = sterling;
lastChange = "2021-12-09 03:35:29 +0000";
layers = (
{
layerId = "5E1A2ACF-25BB-4872-A226-5327BC7330DB";
paths = (
{
closed = 1;
nodes = (
"333 -1 OFFCURVE",
"350 35 OFFCURVE",
"350 91 CURVE SMOOTH",
"350 136 LINE",
"339 136 LINE",
"339 81 LINE SMOOTH",
"339 32 OFFCURVE",
"315 7 OFFCURVE",
"268 7 CURVE SMOOTH",
"245 7 OFFCURVE",
"223 11 OFFCURVE",
"204 14 CURVE SMOOTH",
"173 18 OFFCURVE",
"149 22 OFFCURVE",
"122 22 CURVE SMOOTH",
"107 22 OFFCURVE",
"89 21 OFFCURVE",
"66 18 CURVE",
"121 84 OFFCURVE",
"153 163 OFFCURVE",
"153 253 CURVE SMOOTH",
"153 261 OFFCURVE",
"153 270 OFFCURVE",
"152 279 CURVE",
"237 279 LINE",
"237 289 LINE",
"150 289 LINE",
"145 312 OFFCURVE",
"138 334 OFFCURVE",
"123 365 CURVE",
"111 398 OFFCURVE",
"94 441 OFFCURVE",
"94 485 CURVE SMOOTH",
"94 557 OFFCURVE",
"155 586 OFFCURVE",
"214 586 CURVE SMOOTH",
"275 586 OFFCURVE",
"340 553 OFFCURVE",
"340 477 CURVE SMOOTH",
"340 450 LINE",
"351 450 LINE",
"351 482 LINE SMOOTH",
"351 553 OFFCURVE",
"302 595 OFFCURVE",
"219 595 CURVE SMOOTH",
"126 595 OFFCURVE",
"83 556 OFFCURVE",
"83 481 CURVE SMOOTH",
"83 440 OFFCURVE",
"98 401 OFFCURVE",
"113 364 CURVE SMOOTH",
"122 341 OFFCURVE",
"132 320 OFFCURVE",
"139 289 CURVE",
"60 289 LINE",
"60 279 LINE",
"140 279 LINE",
"141 268 OFFCURVE",
"142 258 OFFCURVE",
"142 243 CURVE SMOOTH",
"142 152 OFFCURVE",
"92 59 OFFCURVE",
"49 8 CURVE",
"49 3 LINE",
"68 10 OFFCURVE",
"92 13 OFFCURVE",
"119 13 CURVE SMOOTH",
"150 13 OFFCURVE",
"179 9 OFFCURVE",
"207 5 CURVE SMOOTH",
"226 2 OFFCURVE",
"248 -1 OFFCURVE",
"268 -1 CURVE SMOOTH"
);
}
);
width = 401;
}
);
note = sterling;
unicode = 00A3;
},
{
color = 6;
glyphname = yen;
lastChange = "2021-12-09 03:35:29 +0000";
layers = (
{
layerId = "5E1A2ACF-25BB-4872-A226-5327BC7330DB";
paths = (
{
closed = 1;
nodes = (
"172 0 LINE",
"172 141 LINE",
"267 141 LINE",
"267 151 LINE",
"172 151 LINE",
"172 250 LINE",
"267 250 LINE",
"267 260 LINE",
"175 260 LINE",
"297 591 LINE",
"282 591 LINE",
"167 269 LINE",
"64 591 LINE",
"49 591 LINE",
"157 260 LINE",
"68 260 LINE",
"68 250 LINE",
"160 250 LINE",
"160 151 LINE",
"68 151 LINE",
"68 141 LINE",
"160 141 LINE",
"160 0 LINE"
);
}
);
width = 346;
}
);
note = yen;
unicode = 00A5;
},
{
glyphname = commercialMinusSign;
lastChange = "2021-12-09 03:35:29 +0000";
layers = (
{
layerId = "5E1A2ACF-25BB-4872-A226-5327BC7330DB";
paths = (
{
closed = 1;
nodes = (
"22 0 LINE",
"343 585 LINE",
"328 585 LINE",
"9 0 LINE"
);
},
{
closed = 1;
nodes = (
"42 332 OFFCURVE",
"58 347 OFFCURVE",
"58 368 CURVE SMOOTH",
"58 388 OFFCURVE",
"41 404 OFFCURVE",
"22 404 CURVE SMOOTH",
"1 404 OFFCURVE",
"-15 388 OFFCURVE",
"-15 368 CURVE SMOOTH",
"-14 347 OFFCURVE",
"2 332 OFFCURVE",
"21 332 CURVE SMOOTH"
);
},
{
closed = 1;
nodes = (
"343 128 OFFCURVE",
"359 143 OFFCURVE",
"359 164 CURVE SMOOTH",
"359 184 OFFCURVE",
"342 200 OFFCURVE",
"323 200 CURVE SMOOTH",
"302 200 OFFCURVE",
"286 184 OFFCURVE",
"286 164 CURVE SMOOTH",
"287 143 OFFCURVE",
"303 128 OFFCURVE",
"322 128 CURVE SMOOTH"
);
}
);
width = 374;
},
{
associatedMasterId = "5E1A2ACF-25BB-4872-A226-5327BC7330DB";
components = (
{
alignment = -1;
name = fraction;
transform = "{1, 0, 0, 1, 115, 0}";
},
{
name = bulletoperator;
transform = "{1, 0, 0, 1, 275, -119}";
},
{
name = bulletoperator;
transform = "{1, 0, 0, 1, -26, 85}";
}
);
layerId = "8A3706BD-364F-4FE3-9C2E-7E87DF0DB4CC";
name = Black;
width = 507;
}
);
unicode = 2052;
},
{
color = 6;
glyphname = plus;
lastChange = "2021-12-09 03:35:29 +0000";
layers = (
{
layerId = "5E1A2ACF-25BB-4872-A226-5327BC7330DB";
paths = (
{
closed = 1;
nodes = (
"187 160 LINE",
"187 287 LINE",
"314 287 LINE",
"314 297 LINE",
"187 297 LINE",
"187 424 LINE",
"177 424 LINE",
"177 297 LINE",
"50 297 LINE",
"50 287 LINE",
"177 287 LINE",
"177 160 LINE"
);
}
);
width = 364;
}
);
note = plus;
unicode = 002B;
},
{
color = 6;
glyphname = minus;
lastChange = "2021-12-09 03:35:29 +0000";
layers = (
{
layerId = "5E1A2ACF-25BB-4872-A226-5327BC7330DB";
paths = (
{
closed = 1;
nodes = (
"345 247 LINE",
"345 257 LINE",
"51 257 LINE",
"51 247 LINE"
);
}
);
width = 398;
}
);
note = minus;
unicode = 2212;
},
{
color = 6;
glyphname = multiply;
lastChange = "2021-12-09 03:35:29 +0000";
layers = (
{
layerId = "5E1A2ACF-25BB-4872-A226-5327BC7330DB";
paths = (
{
closed = 1;
nodes = (
"146 262 LINE",
"236 172 LINE",
"243 179 LINE",
"153 269 LINE",
"243 359 LINE",
"236 366 LINE",
"146 276 LINE",
"56 366 LINE",
"49 359 LINE",
"139 269 LINE",
"49 179 LINE",
"56 172 LINE"
);
}
);
width = 292;
}
);
note = multiply;
unicode = 00D7;
},
{
color = 6;
glyphname = divide;
lastChange = "2021-12-09 03:35:29 +0000";
layers = (
{
layerId = "5E1A2ACF-25BB-4872-A226-5327BC7330DB";
paths = (
{
closed = 1;
nodes = (
"302 287 LINE",
"302 297 LINE",
"50 297 LINE",
"50 287 LINE"
);
},
{
closed = 1;
nodes = (
"187 107 OFFCURVE",
"192 112 OFFCURVE",
"192 123 CURVE SMOOTH",
"192 134 OFFCURVE",
"187 139 OFFCURVE",
"176 139 CURVE SMOOTH",
"165 139 OFFCURVE",
"160 134 OFFCURVE",
"160 123 CURVE SMOOTH",
"160 112 OFFCURVE",
"165 107 OFFCURVE",
"176 107 CURVE SMOOTH"
);
},
{
closed = 1;
nodes = (
"187 427 OFFCURVE",
"192 432 OFFCURVE",
"192 443 CURVE SMOOTH",
"192 454 OFFCURVE",
"187 459 OFFCURVE",
"176 459 CURVE SMOOTH",
"165 459 OFFCURVE",
"160 454 OFFCURVE",
"160 443 CURVE SMOOTH",
"160 432 OFFCURVE",
"165 427 OFFCURVE",
"176 427 CURVE SMOOTH"
);
}
);
width = 352;
}
);
note = divide;
unicode = 00F7;
},
{
color = 6;
glyphname = equal;
lastChange = "2021-12-09 03:35:29 +0000";
layers = (
{
layerId = "5E1A2ACF-25BB-4872-A226-5327BC7330DB";
paths = (
{
closed = 1;
nodes = (
"325 393 LINE",
"325 403 LINE",
"50 403 LINE",
"50 393 LINE"
);
},
{
closed = 1;
nodes = (
"325 180 LINE",
"325 190 LINE",
"50 190 LINE",
"50 180 LINE"
);
}
);
width = 375;
}
);
note = equal;
unicode = 003D;
},
{
color = 6;
glyphname = notequal;
lastChange = "2021-12-09 03:35:29 +0000";
layers = (
{
layerId = "5E1A2ACF-25BB-4872-A226-5327BC7330DB";
paths = (
{
closed = 1;
nodes = (
"68 0 LINE",
"160 180 LINE",
"328 180 LINE",
"328 190 LINE",
"165 190 LINE",
"269 393 LINE",
"328 393 LINE",
"328 403 LINE",
"274 403 LINE",
"334 520 LINE",
"316 520 LINE",
"256 403 LINE",
"53 403 LINE",
"53 393 LINE",
"251 393 LINE",
"147 190 LINE",
"53 190 LINE",
"53 180 LINE",
"142 180 LINE",
"51 0 LINE"
);
}
);
width = 384;
}
);
note = notequal;
unicode = 2260;
},
{
color = 6;
glyphname = greater;
lastChange = "2021-12-09 03:35:29 +0000";
layers = (
{
layerId = "5E1A2ACF-25BB-4872-A226-5327BC7330DB";
paths = (
{
closed = 1;
nodes = (
"132 212 OFFCURVE",
"213 268 OFFCURVE",
"286 316 CURVE",
"286 337 LINE",
"59 491 LINE",
"59 476 LINE",
"279 326 LINE",
"59 180 LINE",
"59 163 LINE"
);
}
);
width = 346;
}
);
note = greater;
unicode = 003E;
},
{
color = 6;
glyphname = less;
lastChange = "2021-12-09 03:35:29 +0000";
layers = (
{
layerId = "5E1A2ACF-25BB-4872-A226-5327BC7330DB";
paths = (
{
closed = 1;
nodes = (
"286 180 LINE",
"66 326 LINE",
"286 476 LINE",
"286 491 LINE",
"59 337 LINE",
"59 316 LINE",
"132 268 OFFCURVE",
"213 212 OFFCURVE",
"286 163 CURVE"
);
}
);
width = 346;
}
);
note = less;
unicode = 003C;
},
{
color = 6;
glyphname = greaterequal;
lastChange = "2021-12-09 03:35:29 +0000";
layers = (
{
layerId = "5E1A2ACF-25BB-4872-A226-5327BC7330DB";
paths = (
{
closed = 1;
nodes = (
"131 212 OFFCURVE",
"212 268 OFFCURVE",
"285 316 CURVE",
"285 337 LINE",
"58 491 LINE",
"58 476 LINE",
"278 326 LINE",
"58 180 LINE",
"58 163 LINE"
);
},
{
closed = 1;
nodes = (
"285 0 LINE",
"285 10 LINE",
"58 10 LINE",
"58 0 LINE"
);
}
);
width = 345;
}
);
note = greaterequal;
unicode = 2265;
},
{
color = 6;
glyphname = lessequal;
lastChange = "2021-12-09 03:35:29 +0000";
layers = (
{
layerId = "5E1A2ACF-25BB-4872-A226-5327BC7330DB";
paths = (
{
closed = 1;
nodes = (
"277 180 LINE",
"57 326 LINE",
"277 476 LINE",
"277 491 LINE",
"50 337 LINE",
"50 316 LINE",
"123 268 OFFCURVE",
"204 212 OFFCURVE",
"277 163 CURVE"
);
},
{
closed = 1;
nodes = (
"277 0 LINE",
"277 10 LINE",
"50 10 LINE",
"50 0 LINE"
);
}
);
width = 326;
}
);
note = lessequal;
unicode = 2264;
},
{
color = 6;
glyphname = plusminus;
lastChange = "2021-12-09 03:35:29 +0000";
layers = (
{
layerId = "5E1A2ACF-25BB-4872-A226-5327BC7330DB";
paths = (
{
closed = 1;
nodes = (
"186 192 LINE",
"186 319 LINE",
"313 319 LINE",
"313 329 LINE",
"186 329 LINE",
"186 456 LINE",
"176 456 LINE",
"176 329 LINE",
"49 329 LINE",
"49 319 LINE",
"176 319 LINE",
"176 192 LINE"
);
},
{
closed = 1;
nodes = (
"313 0 LINE",
"313 10 LINE",
"49 10 LINE",
"49 0 LINE"
);
}
);
width = 362;
}
);
note = plusminus;
unicode = 00B1;
},
{
color = 6;
glyphname = approxequal;
lastChange = "2021-12-09 03:35:29 +0000";
layers = (
{
layerId = "5E1A2ACF-25BB-4872-A226-5327BC7330DB";
paths = (
{
closed = 1;
nodes = (
"62 335 LINE",
"65 356 OFFCURVE",
"84 379 OFFCURVE",
"125 379 CURVE SMOOTH",
"164 379 OFFCURVE",
"199 367 OFFCURVE",
"231 356 CURVE SMOOTH",
"260 347 OFFCURVE",
"290 338 OFFCURVE",
"318 338 CURVE SMOOTH",
"356 338 OFFCURVE",
"394 347 OFFCURVE",
"402 392 CURVE",
"387 392 LINE",
"386 371 OFFCURVE",
"363 350 OFFCURVE",
"326 350 CURVE SMOOTH",
"283 350 OFFCURVE",
"253 363 OFFCURVE",
"218 372 CURVE SMOOTH",
"189 380 OFFCURVE",
"161 389 OFFCURVE",
"133 389 CURVE SMOOTH",
"95 389 OFFCURVE",
"57 380 OFFCURVE",
"49 335 CURVE"
);
},
{
closed = 1;
nodes = (
"62 133 LINE",
"65 154 OFFCURVE",
"84 177 OFFCURVE",
"125 177 CURVE SMOOTH",
"164 177 OFFCURVE",
"199 165 OFFCURVE",
"231 154 CURVE SMOOTH",
"260 145 OFFCURVE",
"290 136 OFFCURVE",
"318 136 CURVE SMOOTH",
"356 136 OFFCURVE",
"394 145 OFFCURVE",
"402 190 CURVE",
"387 190 LINE",
"386 169 OFFCURVE",
"363 148 OFFCURVE",
"326 148 CURVE SMOOTH",
"283 148 OFFCURVE",
"253 161 OFFCURVE",
"218 170 CURVE SMOOTH",
"189 178 OFFCURVE",
"161 187 OFFCURVE",
"133 187 CURVE SMOOTH",
"95 187 OFFCURVE",
"57 178 OFFCURVE",
"49 133 CURVE"
);
}
);
width = 452;
}
);
note = approxequal;
unicode = 2248;
},
{
color = 6;
glyphname = asciitilde;
lastChange = "2021-12-09 03:35:29 +0000";
layers = (
{
layerId = "5E1A2ACF-25BB-4872-A226-5327BC7330DB";
paths = (
{
closed = 1;
nodes = (
"62 548 LINE",
"65 569 OFFCURVE",
"84 592 OFFCURVE",
"125 592 CURVE SMOOTH",
"164 592 OFFCURVE",
"199 580 OFFCURVE",
"231 569 CURVE SMOOTH",
"260 560 OFFCURVE",
"290 551 OFFCURVE",
"318 551 CURVE SMOOTH",
"356 551 OFFCURVE",
"394 560 OFFCURVE",
"402 605 CURVE",
"387 605 LINE",
"386 584 OFFCURVE",
"363 563 OFFCURVE",
"326 563 CURVE SMOOTH",
"283 563 OFFCURVE",
"253 576 OFFCURVE",
"218 585 CURVE SMOOTH",
"189 593 OFFCURVE",
"161 602 OFFCURVE",
"133 602 CURVE SMOOTH",
"95 602 OFFCURVE",
"57 593 OFFCURVE",
"49 548 CURVE"
);
}
);
width = 452;
}
);
note = asciitilde;
unicode = 007E;
},
{
color = 6;
glyphname = logicalnot;
lastChange = "2021-12-09 03:35:29 +0000";
layers = (
{
layerId = "5E1A2ACF-25BB-4872-A226-5327BC7330DB";
paths = (
{
closed = 1;
nodes = (
"505 215 LINE",
"505 400 LINE",
"50 400 LINE",
"50 391 LINE",
"494 391 LINE",
"494 215 LINE"
);
}
);
width = 554;
}
);
note = logicalnot;
unicode = 00AC;
},
{
color = 6;
glyphname = asciicircum;
lastChange = "2021-12-09 03:35:29 +0000";
layers = (
{
layerId = "5E1A2ACF-25BB-4872-A226-5327BC7330DB";
paths = (
{
closed = 1;
nodes = (
"68 467 LINE",
"185 616 LINE",
"305 467 LINE",
"322 467 LINE",
"194 631 LINE",
"178 631 LINE",
"134 575 OFFCURVE",
"96 524 OFFCURVE",
"49 467 CURVE"
);
}
);
width = 371;
}
);
note = asciicircum;
unicode = 005E;
},
{
color = 6;
glyphname = infinity;
lastChange = "2021-12-09 03:35:29 +0000";
layers = (
{
layerId = "5E1A2ACF-25BB-4872-A226-5327BC7330DB";
paths = (
{
closed = 1;
nodes = (
"233 103 OFFCURVE",
"275 149 OFFCURVE",
"358 234 CURVE",
"441 148 OFFCURVE",
"485 103 OFFCURVE",
"556 103 CURVE SMOOTH",
"637 103 OFFCURVE",
"670 160 OFFCURVE",
"670 239 CURVE SMOOTH",
"670 318 OFFCURVE",
"637 375 OFFCURVE",
"556 375 CURVE SMOOTH",
"486 375 OFFCURVE",
"440 324 OFFCURVE",
"397 281 CURVE SMOOTH",
"358 241 LINE",
"278 327 OFFCURVE",
"231 375 OFFCURVE",
"162 375 CURVE SMOOTH",
"81 375 OFFCURVE",
"48 318 OFFCURVE",
"48 239 CURVE SMOOTH",
"48 160 OFFCURVE",
"81 103 OFFCURVE",
"162 103 CURVE SMOOTH"
);
},
{
closed = 1;
nodes = (
"92 116 OFFCURVE",
"59 172 OFFCURVE",
"59 239 CURVE SMOOTH",
"59 307 OFFCURVE",
"92 363 OFFCURVE",
"162 363 CURVE SMOOTH",
"218 363 OFFCURVE",
"261 330 OFFCURVE",
"292 295 CURVE SMOOTH",
"347 236 LINE",
"287 178 LINE SMOOTH",
"256 149 OFFCURVE",
"215 116 OFFCURVE",
"162 116 CURVE SMOOTH"
);
},
{
closed = 1;
nodes = (
"497 116 OFFCURVE",
"461 147 OFFCURVE",
"428 180 CURVE SMOOTH",
"370 239 LINE",
"426 295 LINE SMOOTH",
"459 328 OFFCURVE",
"500 363 OFFCURVE",
"556 363 CURVE SMOOTH",
"625 363 OFFCURVE",
"658 307 OFFCURVE",
"658 239 CURVE SMOOTH",
"658 172 OFFCURVE",
"625 116 OFFCURVE",
"556 116 CURVE SMOOTH"
);
}
);
width = 718;
}
);
note = infinity;
unicode = 221E;
},
{
color = 6;
glyphname = integral;
lastChange = "2021-12-09 03:35:29 +0000";
layers = (
{
layerId = "5E1A2ACF-25BB-4872-A226-5327BC7330DB";
paths = (
{
closed = 1;
nodes = (
"29 -286 OFFCURVE",
"47 -253 OFFCURVE",
"47 -197 CURVE SMOOTH",
"47 552 LINE SMOOTH",
"47 587 OFFCURVE",
"58 627 OFFCURVE",
"105 627 CURVE SMOOTH",
"122 627 OFFCURVE",
"137 626 OFFCURVE",
"148 625 CURVE SMOOTH",
"165 623 LINE",
"165 632 LINE",
"152 635 OFFCURVE",
"131 636 OFFCURVE",
"106 636 CURVE SMOOTH",
"54 636 OFFCURVE",
"36 603 OFFCURVE",
"36 547 CURVE SMOOTH",
"36 -202 LINE SMOOTH",
"36 -237 OFFCURVE",
"25 -277 OFFCURVE",
"-22 -277 CURVE SMOOTH",
"-39 -277 OFFCURVE",
"-54 -276 OFFCURVE",
"-65 -275 CURVE SMOOTH",
"-82 -273 LINE",
"-82 -282 LINE",
"-69 -285 OFFCURVE",
"-48 -286 OFFCURVE",
"-23 -286 CURVE SMOOTH"
);
}
);
width = 195;
}
);
note = integral;
unicode = 222B;
},
{
color = 6;
glyphname = increment;
lastChange = "2021-11-24 17:22:35 +0000";
layers = (
{
layerId = "5E1A2ACF-25BB-4872-A226-5327BC7330DB";
paths = (
{
closed = 1;
nodes = (
"449 0 LINE",
"261 585 LINE",
"242 585 LINE",
"50 0 LINE"
);
},
{
closed = 1;
nodes = (
"251 575 LINE",
"428 10 LINE",
"67 10 LINE"
);
}
);
width = 504;
}
);
note = Delta;
unicode = 2206;
},
{
color = 6;
glyphname = product;
lastChange = "2021-12-09 03:35:29 +0000";
layers = (
{
layerId = "5E1A2ACF-25BB-4872-A226-5327BC7330DB";
paths = (
{
closed = 1;
nodes = (
"201 -70 LINE",
"201 538 LINE",
"457 538 LINE",
"457 -70 LINE",
"469 -70 LINE",
"469 538 LINE",
"620 538 LINE",
"620 550 LINE",
"29 550 LINE",
"29 538 LINE",
"188 538 LINE",
"188 -70 LINE"
);
}
);
width = 649;
}
);
note = product;
unicode = 220F;
},
{
color = 6;
glyphname = summation;
lastChange = "2021-12-09 03:35:29 +0000";
layers = (
{
layerId = "5E1A2ACF-25BB-4872-A226-5327BC7330DB";
paths = (
{
closed = 1;
nodes = (
"286 -85 LINE",
"286 -75 LINE",
"69 -75 LINE",
"252 254 LINE",
"197 361 OFFCURVE",
"134 470 OFFCURVE",
"75 575 CURVE",
"286 575 LINE",
"286 585 LINE",
"59 585 LINE",
"59 577 LINE",
"238 255 LINE",
"49 -82 LINE",
"49 -85 LINE"
);
}
);
width = 336;
}
);
note = summation;
unicode = 2211;
},
{
color = 6;
glyphname = radical;
lastChange = "2021-12-09 03:35:29 +0000";
layers = (
{
layerId = "5E1A2ACF-25BB-4872-A226-5327BC7330DB";
paths = (
{
closed = 1;
nodes = (
"284 -76 LINE",
"519 612 LINE",
"501 612 LINE",
"278 -62 LINE",
"175 345 LINE",
"49 284 LINE",
"49 278 LINE",
"162 327 LINE",
"273 -76 LINE"
);
}
);
width = 592;
}
);
note = radical;
unicode = 221A;
},
{
color = 6;
glyphname = micro;
lastChange = "2021-12-09 03:35:29 +0000";
layers = (
{
layerId = "5E1A2ACF-25BB-4872-A226-5327BC7330DB";
paths = (
{
closed = 1;
nodes = (
"58 -129 LINE",
"61 49 LINE",
"80 10 OFFCURVE",
"121 -7 OFFCURVE",
"169 -7 CURVE SMOOTH",
"288 -7 OFFCURVE",
"289 39 OFFCURVE",
"289 132 CURVE SMOOTH",
"289 495 LINE",
"277 495 LINE",
"277 120 LINE SMOOTH",
"277 28 OFFCURVE",
"260 2 OFFCURVE",
"169 2 CURVE SMOOTH",
"97 2 OFFCURVE",
"67 48 OFFCURVE",
"61 70 CURVE",
"61 495 LINE",
"49 495 LINE",
"49 -129 LINE"
);
}
);
width = 338;
}
);
note = mu;
rightKerningGroup = lslash;
unicode = 00B5;
},
{
color = 6;
glyphname = partialdiff;
lastChange = "2021-12-09 03:35:29 +0000";
layers = (
{
layerId = "5E1A2ACF-25BB-4872-A226-5327BC7330DB";
paths = (
{
closed = 1;
nodes = (
"266 -7 OFFCURVE",
"288 43 OFFCURVE",
"288 123 CURVE SMOOTH",
"288 449 LINE SMOOTH",
"288 516 OFFCURVE",
"285 567 OFFCURVE",
"274 599 CURVE SMOOTH",
"255 658 OFFCURVE",
"207 665 OFFCURVE",
"167 662 CURVE SMOOTH",
"142 662 OFFCURVE",
"102 649 OFFCURVE",
"92 646 CURVE",
"92 636 LINE",
"110 641 OFFCURVE",
"149 651 OFFCURVE",
"170 651 CURVE SMOOTH",
"267 651 OFFCURVE",
"271 594 OFFCURVE",
"276 463 CURVE",
"256 486 OFFCURVE",
"223 503 OFFCURVE",
"168 503 CURVE SMOOTH",
"55 503 OFFCURVE",
"49 433 OFFCURVE",
"49 372 CURVE SMOOTH",
"49 124 LINE SMOOTH",
"49 62 OFFCURVE",
"55 -7 OFFCURVE",
"168 -7 CURVE SMOOTH"
);
},
{
closed = 1;
nodes = (
"65 3 OFFCURVE",
"60 68 OFFCURVE",
"60 127 CURVE SMOOTH",
"60 369 LINE SMOOTH",
"60 428 OFFCURVE",
"65 493 OFFCURVE",
"168 493 CURVE SMOOTH",
"245 493 OFFCURVE",
"268 454 OFFCURVE",
"277 445 CURVE",
"277 127 LINE SMOOTH",
"277 71 OFFCURVE",
"272 3 OFFCURVE",
"168 3 CURVE SMOOTH"
);
}
);
width = 337;
}
);
note = partialdiff;
unicode = 2202;
},
{
color = 6;
glyphname = percent;
lastChange = "2021-12-09 03:35:29 +0000";
layers = (
{
layerId = "5E1A2ACF-25BB-4872-A226-5327BC7330DB";
paths = (
{
closed = 1;
nodes = (
"125 0 LINE",
"242 229 OFFCURVE",
"326 363 OFFCURVE",
"443 591 CURVE",
"427 591 LINE",
"108 0 LINE"
);
},
{
closed = 1;
nodes = (
"472 -5 OFFCURVE",
"491 12 OFFCURVE",
"491 73 CURVE SMOOTH",
"491 233 LINE SMOOTH",
"491 289 OFFCURVE",
"472 306 OFFCURVE",
"409 306 CURVE SMOOTH",
"346 306 OFFCURVE",
"328 289 OFFCURVE",
"328 233 CURVE SMOOTH",
"328 73 LINE SMOOTH",
"328 12 OFFCURVE",
"346 -5 OFFCURVE",
"409 -5 CURVE SMOOTH"
);
},
{
closed = 1;
nodes = (
"353 6 OFFCURVE",
"341 24 OFFCURVE",
"341 73 CURVE SMOOTH",
"341 233 LINE SMOOTH",
"341 277 OFFCURVE",
"354 296 OFFCURVE",
"409 296 CURVE SMOOTH",
"465 296 OFFCURVE",
"477 277 OFFCURVE",
"477 233 CURVE SMOOTH",
"477 73 LINE SMOOTH",
"477 24 OFFCURVE",
"464 6 OFFCURVE",
"409 6 CURVE SMOOTH"
);
},
{
closed = 1;
nodes = (
"203 280 OFFCURVE",
"222 297 OFFCURVE",
"222 358 CURVE SMOOTH",
"222 518 LINE SMOOTH",
"222 574 OFFCURVE",
"203 591 OFFCURVE",
"140 591 CURVE SMOOTH",
"77 591 OFFCURVE",
"59 574 OFFCURVE",
"59 518 CURVE SMOOTH",
"59 358 LINE SMOOTH",
"59 297 OFFCURVE",
"77 280 OFFCURVE",
"140 280 CURVE SMOOTH"
);
},
{
closed = 1;
nodes = (
"84 291 OFFCURVE",
"72 309 OFFCURVE",
"72 358 CURVE SMOOTH",
"72 518 LINE SMOOTH",
"72 562 OFFCURVE",
"85 581 OFFCURVE",
"140 581 CURVE SMOOTH",
"196 581 OFFCURVE",
"208 562 OFFCURVE",
"208 518 CURVE SMOOTH",
"208 358 LINE SMOOTH",
"208 309 OFFCURVE",
"195 291 OFFCURVE",
"140 291 CURVE SMOOTH"
);
}
);
width = 550;
}
);
note = percent;
unicode = 0025;
},
{
color = 6;
glyphname = perthousand;
lastChange = "2021-12-09 03:35:29 +0000";
layers = (
{
layerId = "5E1A2ACF-25BB-4872-A226-5327BC7330DB";
paths = (
{
closed = 1;
nodes = (
"125 0 LINE",
"242 229 OFFCURVE",
"326 363 OFFCURVE",
"443 591 CURVE",
"427 591 LINE",
"108 0 LINE"
);
},
{
closed = 1;
nodes = (
"472 -5 OFFCURVE",
"491 12 OFFCURVE",
"491 73 CURVE SMOOTH",
"491 233 LINE SMOOTH",
"491 289 OFFCURVE",
"472 306 OFFCURVE",
"409 306 CURVE SMOOTH",
"346 306 OFFCURVE",
"328 289 OFFCURVE",
"328 233 CURVE SMOOTH",
"328 73 LINE SMOOTH",
"328 12 OFFCURVE",
"346 -5 OFFCURVE",
"409 -5 CURVE SMOOTH"
);
},
{
closed = 1;
nodes = (
"353 6 OFFCURVE",
"341 24 OFFCURVE",
"341 73 CURVE SMOOTH",
"341 233 LINE SMOOTH",
"341 277 OFFCURVE",
"354 296 OFFCURVE",
"409 296 CURVE SMOOTH",
"465 296 OFFCURVE",
"477 277 OFFCURVE",
"477 233 CURVE SMOOTH",
"477 73 LINE SMOOTH",
"477 24 OFFCURVE",
"464 6 OFFCURVE",
"409 6 CURVE SMOOTH"
);
},
{
closed = 1;
nodes = (
"203 280 OFFCURVE",
"222 297 OFFCURVE",
"222 358 CURVE SMOOTH",
"222 518 LINE SMOOTH",
"222 574 OFFCURVE",
"203 591 OFFCURVE",
"140 591 CURVE SMOOTH",
"77 591 OFFCURVE",
"59 574 OFFCURVE",
"59 518 CURVE SMOOTH",
"59 358 LINE SMOOTH",
"59 297 OFFCURVE",
"77 280 OFFCURVE",
"140 280 CURVE SMOOTH"
);
},
{
closed = 1;
nodes = (
"84 291 OFFCURVE",
"72 309 OFFCURVE",
"72 358 CURVE SMOOTH",
"72 518 LINE SMOOTH",
"72 562 OFFCURVE",
"85 581 OFFCURVE",
"140 581 CURVE SMOOTH",
"196 581 OFFCURVE",
"208 562 OFFCURVE",
"208 518 CURVE SMOOTH",
"208 358 LINE SMOOTH",
"208 309 OFFCURVE",
"195 291 OFFCURVE",
"140 291 CURVE SMOOTH"
);
},
{
closed = 1;
nodes = (
"686 -5 OFFCURVE",
"705 12 OFFCURVE",
"705 73 CURVE SMOOTH",
"705 233 LINE SMOOTH",
"705 289 OFFCURVE",
"686 306 OFFCURVE",
"623 306 CURVE SMOOTH",
"560 306 OFFCURVE",
"542 289 OFFCURVE",
"542 233 CURVE SMOOTH",
"542 73 LINE SMOOTH",
"542 12 OFFCURVE",
"560 -5 OFFCURVE",
"623 -5 CURVE SMOOTH"
);
},
{
closed = 1;
nodes = (
"567 6 OFFCURVE",
"555 24 OFFCURVE",
"555 73 CURVE SMOOTH",
"555 233 LINE SMOOTH",
"555 277 OFFCURVE",
"568 296 OFFCURVE",
"623 296 CURVE SMOOTH",
"679 296 OFFCURVE",
"691 277 OFFCURVE",
"691 233 CURVE SMOOTH",
"691 73 LINE SMOOTH",
"691 24 OFFCURVE",
"678 6 OFFCURVE",
"623 6 CURVE SMOOTH"
);
}
);
width = 754;
}
);
note = perthousand;
unicode = 2030;
},
{
glyphname = upArrow;
lastChange = "2021-12-09 03:35:29 +0000";
layers = (
{
associatedMasterId = "5E1A2ACF-25BB-4872-A226-5327BC7330DB";
background = {
paths = (
{
closed = 1;
nodes = (
"332 -6 LINE",
"337 463 LINE",
"439 347 LINE",
"514 422 LINE",
"272 733 LINE",
"31 423 LINE",
"106 348 LINE",
"211 460 LINE",
"208 -6 LINE"
);
}
);
};
layerId = "8A3706BD-364F-4FE3-9C2E-7E87DF0DB4CC";
name = Black;
paths = (
{
closed = 1;
nodes = (
"332 -6 LINE",
"337 463 LINE",
"439 347 LINE",
"514 422 LINE",
"272 733 LINE",
"31 423 LINE",
"106 348 LINE",
"211 460 LINE",
"208 -6 LINE"
);
}
);
width = 578;
},
{
layerId = "5E1A2ACF-25BB-4872-A226-5327BC7330DB";
paths = (
{
closed = 1;
nodes = (
"257 0 LINE",
"257 680 LINE",
"443 491 LINE",
"452 499 LINE",
"251 704 LINE",
"49 498 LINE",
"57 491 LINE",
"245 680 LINE",
"245 0 LINE"
);
}
);
width = 502;
}
);
unicode = 2191;
},
{
glyphname = northEastArrow;
lastChange = "2021-12-09 03:35:29 +0000";
layers = (
{
associatedMasterId = "5E1A2ACF-25BB-4872-A226-5327BC7330DB";
background = {
paths = (
{
closed = 1;
nodes = (
"410 378 LINE",
"400 224 LINE",
"506 224 LINE",
"555 615 LINE",
"165 566 LINE",
"165 460 LINE",
"319 465 LINE",
"-13 138 LINE",
"75 50 LINE"
);
}
);
};
layerId = "8A3706BD-364F-4FE3-9C2E-7E87DF0DB4CC";
name = Black;
paths = (
{
closed = 1;
nodes = (
"410 378 LINE",
"400 224 LINE",
"506 224 LINE",
"555 615 LINE",
"165 566 LINE",
"165 460 LINE",
"319 465 LINE",
"-13 138 LINE",
"75 50 LINE"
);
}
);
width = 561;
},
{
layerId = "5E1A2ACF-25BB-4872-A226-5327BC7330DB";
paths = (
{
closed = 1;
nodes = (
"537 570 LINE",
"535 305 LINE",
"547 304 LINE",
"550 592 LINE",
"261 589 LINE",
"262 578 LINE",
"529 579 LINE",
"48 98 LINE",
"56 90 LINE"
);
}
);
width = 600;
}
);
unicode = 2197;
},
{
glyphname = rightArrow;
lastChange = "2021-12-09 03:35:29 +0000";
layers = (
{
associatedMasterId = "5E1A2ACF-25BB-4872-A226-5327BC7330DB";
background = {
paths = (
{
closed = 1;
nodes = (
"769 350 LINE",
"459 591 LINE",
"384 516 LINE",
"496 411 LINE",
"30 414 LINE",
"30 290 LINE",
"499 285 LINE",
"383 183 LINE",
"458 108 LINE"
);
}
);
};
layerId = "8A3706BD-364F-4FE3-9C2E-7E87DF0DB4CC";
name = Black;
paths = (
{
closed = 1;
nodes = (
"769 350 LINE",
"459 591 LINE",
"384 516 LINE",
"496 411 LINE",
"30 414 LINE",
"30 290 LINE",
"499 285 LINE",
"383 183 LINE",
"458 108 LINE"
);
}
);
width = 799;
},
{
layerId = "5E1A2ACF-25BB-4872-A226-5327BC7330DB";
paths = (
{
closed = 1;
nodes = (
"753 291 LINE",
"547 493 LINE",
"540 485 LINE",
"729 297 LINE",
"49 297 LINE",
"49 285 LINE",
"729 285 LINE",
"540 99 LINE",
"548 90 LINE"
);
}
);
width = 803;
}
);
unicode = 2192;
},
{
glyphname = southEastArrow;
lastChange = "2021-12-09 03:35:29 +0000";
layers = (
{
associatedMasterId = "5E1A2ACF-25BB-4872-A226-5327BC7330DB";
background = {
paths = (
{
closed = 1;
nodes = (
"546 389 LINE",
"440 389 LINE",
"445 236 LINE",
"118 567 LINE",
"30 480 LINE",
"358 145 LINE",
"204 154 LINE",
"204 48 LINE",
"595 0 LINE"
);
}
);
};
layerId = "8A3706BD-364F-4FE3-9C2E-7E87DF0DB4CC";
name = Black;
paths = (
{
closed = 1;
nodes = (
"546 389 LINE",
"440 389 LINE",
"445 236 LINE",
"118 567 LINE",
"30 480 LINE",
"358 145 LINE",
"204 154 LINE",
"204 48 LINE",
"595 0 LINE"
);
}
);
width = 625;
},
{
layerId = "5E1A2ACF-25BB-4872-A226-5327BC7330DB";
paths = (
{
closed = 1;
nodes = (
"558 283 LINE",
"547 283 LINE",
"548 16 LINE",
"67 497 LINE",
"59 488 LINE",
"540 8 LINE",
"274 10 LINE",
"274 -2 LINE",
"561 -5 LINE"
);
}
);
width = 612;
}
);
unicode = 2198;
},
{
glyphname = downArrow;
lastChange = "2021-12-09 03:35:29 +0000";
layers = (
{
associatedMasterId = "5E1A2ACF-25BB-4872-A226-5327BC7330DB";
background = {
paths = (
{
closed = 1;
nodes = (
"513 309 LINE",
"438 384 LINE",
"334 272 LINE",
"336 737 LINE",
"213 738 LINE",
"208 269 LINE",
"105 385 LINE",
"30 310 LINE",
"273 -1 LINE"
);
}
);
};
layerId = "8A3706BD-364F-4FE3-9C2E-7E87DF0DB4CC";
name = Black;
paths = (
{
closed = 1;
nodes = (
"513 309 LINE",
"438 384 LINE",
"334 272 LINE",
"336 737 LINE",
"213 738 LINE",
"208 269 LINE",
"105 385 LINE",
"30 310 LINE",
"273 -1 LINE"
);
}
);
width = 543;
},
{
layerId = "5E1A2ACF-25BB-4872-A226-5327BC7330DB";
paths = (
{
closed = 1;
nodes = (
"452 205 LINE",
"443 213 LINE",
"257 24 LINE",
"257 704 LINE",
"245 704 LINE",
"245 24 LINE",
"57 213 LINE",
"49 206 LINE",
"251 0 LINE"
);
}
);
width = 501;
}
);
unicode = 2193;
},
{
glyphname = southWestArrow;
lastChange = "2021-12-09 03:35:29 +0000";
layers = (
{
associatedMasterId = "5E1A2ACF-25BB-4872-A226-5327BC7330DB";
background = {
paths = (
{
closed = 1;
nodes = (
"419 50 LINE",
"419 156 LINE",
"266 150 LINE",
"597 477 LINE",
"510 565 LINE",
"175 237 LINE",
"184 392 LINE",
"78 392 LINE",
"30 0 LINE"
);
}
);
};
layerId = "8A3706BD-364F-4FE3-9C2E-7E87DF0DB4CC";
name = Black;
paths = (
{
closed = 1;
nodes = (
"419 50 LINE",
"419 156 LINE",
"266 150 LINE",
"597 477 LINE",
"510 565 LINE",
"175 237 LINE",
"184 392 LINE",
"78 392 LINE",
"30 0 LINE"
);
}
);
width = 627;
},
{
layerId = "5E1A2ACF-25BB-4872-A226-5327BC7330DB";
paths = (
{
closed = 1;
nodes = (
"336 6 LINE",
"335 18 LINE",
"70 15 LINE",
"551 496 LINE",
"543 505 LINE",
"62 24 LINE",
"62 291 LINE",
"52 291 LINE",
"49 3 LINE"
);
}
);
width = 601;
}
);
unicode = 2199;
},
{
glyphname = leftArrow;
lastChange = "2021-12-09 03:35:29 +0000";
layers = (
{
associatedMasterId = "5E1A2ACF-25BB-4872-A226-5327BC7330DB";
background = {
paths = (
{
closed = 1;
nodes = (
"415 75 LINE",
"303 179 LINE",
"768 177 LINE",
"769 300 LINE",
"300 305 LINE",
"416 408 LINE",
"341 483 LINE",
"30 240 LINE",
"340 0 LINE"
);
}
);
};
layerId = "8A3706BD-364F-4FE3-9C2E-7E87DF0DB4CC";
name = Black;
paths = (
{
closed = 1;
nodes = (
"415 75 LINE",
"303 179 LINE",
"768 177 LINE",
"769 300 LINE",
"300 305 LINE",
"416 408 LINE",
"341 483 LINE",
"30 240 LINE",
"340 0 LINE"
);
}
);
width = 799;
},
{
layerId = "5E1A2ACF-25BB-4872-A226-5327BC7330DB";
paths = (
{
closed = 1;
nodes = (
"262 99 LINE",
"73 285 LINE",
"753 285 LINE",
"753 297 LINE",
"73 297 LINE",
"262 485 LINE",
"255 493 LINE",
"49 291 LINE",
"254 90 LINE"
);
}
);
width = 805;
}
);
unicode = 2190;
},
{
glyphname = northWestArrow;
lastChange = "2021-12-09 03:35:29 +0000";
layers = (
{
associatedMasterId = "5E1A2ACF-25BB-4872-A226-5327BC7330DB";
background = {
paths = (
{
closed = 1;
nodes = (
"605 111 LINE",
"277 446 LINE",
"432 437 LINE",
"432 543 LINE",
"40 591 LINE",
"90 202 LINE",
"196 202 LINE",
"190 355 LINE",
"517 24 LINE"
);
}
);
};
layerId = "8A3706BD-364F-4FE3-9C2E-7E87DF0DB4CC";
name = Black;
paths = (
{
closed = 1;
nodes = (
"605 111 LINE",
"277 446 LINE",
"432 437 LINE",
"432 543 LINE",
"40 591 LINE",
"90 202 LINE",
"196 202 LINE",
"190 355 LINE",
"517 24 LINE"
);
}
);
width = 600;
},
{
layerId = "5E1A2ACF-25BB-4872-A226-5327BC7330DB";
paths = (
{
closed = 1;
nodes = (
"552 97 LINE",
"71 578 LINE",
"338 578 LINE",
"338 588 LINE",
"50 591 LINE",
"53 304 LINE",
"65 305 LINE",
"62 570 LINE",
"543 89 LINE"
);
}
);
width = 601;
}
);
unicode = 2196;
},
{
glyphname = leftRightArrow;
lastChange = "2021-12-09 03:35:29 +0000";
layers = (
{
associatedMasterId = "5E1A2ACF-25BB-4872-A226-5327BC7330DB";
background = {
paths = (
{
closed = 1;
nodes = (
"415 144 LINE",
"304 246 LINE",
"734 246 LINE",
"623 144 LINE",
"698 69 LINE",
"1009 309 LINE",
"698 552 LINE",
"623 477 LINE",
"739 374 LINE",
"299 374 LINE",
"415 477 LINE",
"340 552 LINE",
"29 309 LINE",
"340 69 LINE"
);
}
);
};
layerId = "8A3706BD-364F-4FE3-9C2E-7E87DF0DB4CC";
name = Black;
paths = (
{
closed = 1;
nodes = (
"415 144 LINE",
"304 246 LINE",
"734 246 LINE",
"623 144 LINE",
"698 69 LINE",
"1009 309 LINE",
"698 552 LINE",
"623 477 LINE",
"739 374 LINE",
"299 374 LINE",
"415 477 LINE",
"340 552 LINE",
"29 309 LINE",
"340 69 LINE"
);
}
);
width = 1040;
},
{
layerId = "5E1A2ACF-25BB-4872-A226-5327BC7330DB";
paths = (
{
closed = 1;
nodes = (
"262 62 LINE",
"73 248 LINE",
"869 248 LINE",
"680 62 LINE",
"688 53 LINE",
"893 254 LINE",
"687 456 LINE",
"680 448 LINE",
"869 260 LINE",
"73 260 LINE",
"262 448 LINE",
"255 456 LINE",
"49 254 LINE",
"254 53 LINE"
);
}
);
width = 943;
}
);
unicode = 2194;
},
{
glyphname = upDownArrow;
lastChange = "2021-12-09 03:35:29 +0000";
layers = (
{
associatedMasterId = "5E1A2ACF-25BB-4872-A226-5327BC7330DB";
background = {
paths = (
{
closed = 1;
nodes = (
"543 81 LINE",
"468 156 LINE",
"365 40 LINE",
"365 480 LINE",
"468 364 LINE",
"543 439 LINE",
"300 750 LINE",
"60 439 LINE",
"135 364 LINE",
"237 475 LINE",
"237 45 LINE",
"135 156 LINE",
"60 81 LINE",
"300 -230 LINE"
);
}
);
};
layerId = "8A3706BD-364F-4FE3-9C2E-7E87DF0DB4CC";
name = Black;
paths = (
{
closed = 1;
nodes = (
"543 81 LINE",
"468 156 LINE",
"365 40 LINE",
"365 480 LINE",
"468 364 LINE",
"543 439 LINE",
"300 750 LINE",
"60 439 LINE",
"135 364 LINE",
"237 475 LINE",
"237 45 LINE",
"135 156 LINE",
"60 81 LINE",
"300 -230 LINE"
);
}
);
width = 603;
},
{
layerId = "5E1A2ACF-25BB-4872-A226-5327BC7330DB";
paths = (
{
closed = 1;
nodes = (
"453 74 LINE",
"444 82 LINE",
"258 -107 LINE",
"258 689 LINE",
"444 500 LINE",
"453 508 LINE",
"252 713 LINE",
"50 507 LINE",
"58 500 LINE",
"246 689 LINE",
"246 -107 LINE",
"58 82 LINE",
"50 75 LINE",
"252 -131 LINE"
);
}
);
width = 503;
}
);
unicode = 2195;
},
{
color = 6;
glyphname = lozenge;
lastChange = "2021-12-09 03:35:29 +0000";
layers = (
{
layerId = "5E1A2ACF-25BB-4872-A226-5327BC7330DB";
paths = (
{
closed = 1;
nodes = (
"239 -36 LINE",
"408 292 LINE",
"240 618 LINE",
"217 618 LINE",
"49 292 LINE",
"217 -36 LINE"
);
},
{
closed = 1;
nodes = (
"64 293 LINE",
"228 605 LINE",
"392 293 LINE",
"229 -27 LINE"
);
}
);
width = 457;
}
);
note = lozenge;
unicode = 25CA;
},
